<mxfile host="app.diagrams.net" modified="2024-02-18T18:58:40.640Z" agent="Mozilla/5.0 (Windows NT 10.0; Win64; x64) AppleWebKit/537.36 (KHTML, like Gecko) Chrome/121.0.0.0 Safari/537.36" etag="XHgbQOcwXgKVIizwxHzB" version="23.1.5" type="device">
  <diagram name="Página-1" id="j61ld1Xn6sqs_WG1IKId">
    <mxGraphModel dx="2762" dy="956" grid="0" gridSize="10" guides="1" tooltips="1" connect="1" arrows="1" fold="1" page="1" pageScale="1" pageWidth="850" pageHeight="1100" math="0" shadow="0">
      <root>
        <mxCell id="0" />
        <mxCell id="1" parent="0" />
        <mxCell id="Vl_7YJs-ZOXVQnEXLEF5-1" value="Google Cloud Platform" style="swimlane;whiteSpace=wrap;html=1;strokeColor=#3333FF;" parent="1" vertex="1">
          <mxGeometry x="368" y="50" width="920" height="580" as="geometry" />
        </mxCell>
        <mxCell id="Vl_7YJs-ZOXVQnEXLEF5-3" value="Google Storage" style="swimlane;whiteSpace=wrap;html=1;strokeColor=#3333FF;" parent="Vl_7YJs-ZOXVQnEXLEF5-1" vertex="1">
          <mxGeometry x="128" y="50" width="182" height="270" as="geometry" />
        </mxCell>
        <mxCell id="Vl_7YJs-ZOXVQnEXLEF5-54" value="" style="shape=image;verticalLabelPosition=bottom;labelBackgroundColor=default;verticalAlign=top;aspect=fixed;imageAspect=0;image=https://cdn4.iconfinder.com/data/icons/outline-web-7/100/pack-10-512.png;" parent="Vl_7YJs-ZOXVQnEXLEF5-3" vertex="1">
          <mxGeometry x="67" y="58" width="63" height="63" as="geometry" />
        </mxCell>
        <mxCell id="Vl_7YJs-ZOXVQnEXLEF5-41" value="Bucket Proyecto:" style="text;html=1;strokeColor=none;fillColor=none;align=left;verticalAlign=middle;whiteSpace=wrap;rounded=0;" parent="Vl_7YJs-ZOXVQnEXLEF5-3" vertex="1">
          <mxGeometry x="38" y="30" width="243" height="30" as="geometry" />
        </mxCell>
        <mxCell id="Sl2bv3AIZOpNkn_9FIrU-65" value="&lt;span style=&quot;font-size: 10px;&quot;&gt;parametros&lt;br&gt;.csv&lt;br&gt;&lt;/span&gt;" style="shape=document;whiteSpace=wrap;html=1;boundedLbl=1;" parent="Vl_7YJs-ZOXVQnEXLEF5-3" vertex="1">
          <mxGeometry x="29" y="144.32" width="61" height="36.68" as="geometry" />
        </mxCell>
        <mxCell id="s4cBqy5uWarLuJxs_DqD-1" value="&lt;font style=&quot;font-size: 10px;&quot;&gt;imagenes&lt;br&gt;Blob&lt;br&gt;&lt;/font&gt;" style="shape=document;whiteSpace=wrap;html=1;boundedLbl=1;" parent="Vl_7YJs-ZOXVQnEXLEF5-3" vertex="1">
          <mxGeometry x="31" y="102" width="50" height="38" as="geometry" />
        </mxCell>
        <mxCell id="s4cBqy5uWarLuJxs_DqD-51" value="Cloud&#xa;Storage" style="sketch=0;html=1;verticalAlign=top;labelPosition=center;verticalLabelPosition=bottom;align=center;spacingTop=-6;fontSize=11;fontStyle=1;fontColor=#999999;shape=image;aspect=fixed;imageAspect=0;image=data:image/svg+xml,PHN2ZyB4bWxucz0iaHR0cDovL3d3dy53My5vcmcvMjAwMC9zdmciIHhtbG5zOnY9Imh0dHBzOi8vdmVjdGEuaW8vbmFubyIgd2lkdGg9IjIwIiBoZWlnaHQ9IjE2IiB2aWV3Qm94PSIwIDAgMjAgMTYiPiYjeGE7CTxzdHlsZSB0eXBlPSJ0ZXh0L2NzcyI+JiN4YTsJLnN0MHtmaWxsOiM0Mjg1ZjQ7fSYjeGE7CS5zdDF7ZmlsbDojNjY5ZGY2O30mI3hhOwkuc3Qye2ZpbGw6I2FlY2JmYTt9JiN4YTsJLnN0M3tmaWxsOiNmZmY7fSYjeGE7CTwvc3R5bGU+JiN4YTsJPHBhdGggY2xhc3M9InN0MiIgZD0iTTAgMGgyMHY3SDB6Ii8+JiN4YTsJPHBhdGggY2xhc3M9InN0MSIgZD0iTTE4IDBoMnY3aC0yeiIvPiYjeGE7CTxwYXRoIGNsYXNzPSJzdDAiIGQ9Ik0xOCA3bDItN2gtMnoiLz4mI3hhOwk8cGF0aCBjbGFzcz0ic3QxIiBkPSJNMCAwaDJ2N0gweiIvPiYjeGE7CTxnIGNsYXNzPSJzdDMiPiYjeGE7CQk8cGF0aCBkPSJNNCAzaDZ2MUg0eiIvPiYjeGE7CQk8cmVjdCB4PSIxMyIgeT0iMiIgd2lkdGg9IjMiIGhlaWdodD0iMyIgcng9IjEuNSIvPiYjeGE7CTwvZz4mI3hhOwk8cGF0aCBjbGFzcz0ic3QyIiBkPSJNMCA5aDIwdjdIMHoiLz4mI3hhOwk8cGF0aCBjbGFzcz0ic3QxIiBkPSJNMTggOWgydjdoLTJ6Ii8+JiN4YTsJPHBhdGggY2xhc3M9InN0MCIgZD0iTTE4IDE2bDItN2gtMnoiLz4mI3hhOwk8cGF0aCBjbGFzcz0ic3QxIiBkPSJNMCA5aDJ2N0gweiIvPiYjeGE7CTxnIGNsYXNzPSJzdDMiPiYjeGE7CQk8cGF0aCBkPSJNNCAxMmg2djFINHoiLz4mI3hhOwkJPHJlY3QgeD0iMTMiIHk9IjExIiB3aWR0aD0iMyIgaGVpZ2h0PSIzIiByeD0iMS41Ii8+JiN4YTsJPC9nPiYjeGE7PC9zdmc+;" parent="Vl_7YJs-ZOXVQnEXLEF5-3" vertex="1">
          <mxGeometry x="144" y="3.7100000000000364" width="30" height="24.29" as="geometry" />
        </mxCell>
        <mxCell id="Vl_7YJs-ZOXVQnEXLEF5-4" value="Google Compute Engine" style="swimlane;whiteSpace=wrap;html=1;strokeColor=#3333FF;" parent="Vl_7YJs-ZOXVQnEXLEF5-1" vertex="1">
          <mxGeometry x="439" y="50" width="392" height="340" as="geometry" />
        </mxCell>
        <mxCell id="Sl2bv3AIZOpNkn_9FIrU-52" value="ElasticSearch&lt;br&gt;/Kibana" style="shape=cube;whiteSpace=wrap;html=1;boundedLbl=1;backgroundOutline=1;darkOpacity=0.05;darkOpacity2=0.1;" parent="Vl_7YJs-ZOXVQnEXLEF5-4" vertex="1">
          <mxGeometry x="239" y="186" width="120" height="80" as="geometry" />
        </mxCell>
        <mxCell id="Sl2bv3AIZOpNkn_9FIrU-64" value="Mongo&lt;br&gt;DB" style="shape=cylinder3;whiteSpace=wrap;html=1;boundedLbl=1;backgroundOutline=1;size=15;" parent="Vl_7YJs-ZOXVQnEXLEF5-4" vertex="1">
          <mxGeometry x="115" y="50" width="104" height="127" as="geometry" />
        </mxCell>
        <mxCell id="s4cBqy5uWarLuJxs_DqD-9" value="&lt;div style=&quot;text-align: left;&quot;&gt;&lt;span style=&quot;background-color: initial;&quot;&gt;&lt;font style=&quot;font-size: 10px;&quot;&gt;&lt;br&gt;&lt;/font&gt;&lt;/span&gt;&lt;/div&gt;&lt;div style=&quot;text-align: left;&quot;&gt;&lt;span style=&quot;background-color: initial;&quot;&gt;&lt;font style=&quot;font-size: 10px;&quot;&gt;&lt;u&gt;fish_collection&lt;/u&gt;:&lt;/font&gt;&lt;/span&gt;&lt;/div&gt;&lt;div style=&quot;text-align: left;&quot;&gt;&lt;span style=&quot;background-color: initial;&quot;&gt;&lt;font style=&quot;font-size: 10px;&quot;&gt;images_metada&lt;/font&gt;&lt;/span&gt;&lt;/div&gt;&lt;div style=&quot;text-align: left;&quot;&gt;&lt;font style=&quot;font-size: 10px;&quot;&gt;tamaño-peso&lt;/font&gt;&lt;/div&gt;&lt;div style=&quot;text-align: left;&quot;&gt;&lt;span style=&quot;font-size: 10px;&quot;&gt;parametros&lt;/span&gt;&lt;/div&gt;" style="shape=document;whiteSpace=wrap;html=1;boundedLbl=1;" parent="Vl_7YJs-ZOXVQnEXLEF5-4" vertex="1">
          <mxGeometry x="59" y="58" width="85" height="81" as="geometry" />
        </mxCell>
        <mxCell id="s4cBqy5uWarLuJxs_DqD-48" value="Compute&#xa;Engine" style="sketch=0;html=1;verticalAlign=top;labelPosition=center;verticalLabelPosition=bottom;align=center;spacingTop=-6;fontSize=11;fontStyle=1;fontColor=#999999;shape=image;aspect=fixed;imageAspect=0;image=data:image/svg+xml,PHN2ZyB4bWxucz0iaHR0cDovL3d3dy53My5vcmcvMjAwMC9zdmciIHhtbG5zOnY9Imh0dHBzOi8vdmVjdGEuaW8vbmFubyIgd2lkdGg9IjIwIiBoZWlnaHQ9IjIwIiB2aWV3Qm94PSIwIDAgMjAgMjAiPiYjeGE7CTxzdHlsZSB0eXBlPSJ0ZXh0L2NzcyI+JiN4YTsJLnN0MHtmaWxsOiM0Mjg1ZjQ7fSYjeGE7CS5zdDF7ZmlsbDojNjY5ZGY2O30mI3hhOwkuc3Qye2ZpbGw6I2FlY2JmYTt9JiN4YTsJPC9zdHlsZT4mI3hhOwk8cGF0aCBjbGFzcz0ic3QyIiBkPSJNNyA3aDZ2Nkg3eiIvPiYjeGE7CTxwYXRoIGNsYXNzPSJzdDEiIGQ9Ik05IDBoMnY0SDl6TTUgMGgydjRINXptOCAwaDJ2NGgtMnoiLz4mI3hhOwk8cGF0aCBjbGFzcz0ic3QwIiBkPSJNOSAxNmgydjRIOXptLTQgMGgydjRINXptOCAwaDJ2NGgtMnptMy01VjloNHYyem0wIDR2LTJoNHYyem0wLThWNWg0djJ6Ii8+JiN4YTsJPHBhdGggY2xhc3M9InN0MSIgZD0iTTAgMTFWOWg0djJ6bTAgNHYtMmg0djJ6bTAtOFY1aDR2MnoiLz4mI3hhOwk8cGF0aCBjbGFzcz0ic3QyIiBkPSJNMyAzdjE0aDE0VjN6bTEyIDEySDVWNWgxMHoiLz4mI3hhOwk8cGF0aCBjbGFzcz0ic3QxIiBkPSJNMTAgMTBsLTMgM2g2eiIvPiYjeGE7CTxwYXRoIGNsYXNzPSJzdDAiIGQ9Ik0xMyA3bC0zIDMgMyAzeiIvPiYjeGE7PC9zdmc+;" parent="Vl_7YJs-ZOXVQnEXLEF5-4" vertex="1">
          <mxGeometry x="350" y="3" width="32" height="32" as="geometry" />
        </mxCell>
        <mxCell id="s4cBqy5uWarLuJxs_DqD-93" value="" style="shadow=0;dashed=0;html=1;strokeColor=none;fillColor=#4495D1;labelPosition=center;verticalLabelPosition=bottom;verticalAlign=top;align=center;outlineConnect=0;shape=mxgraph.veeam.vm_linux;" parent="Vl_7YJs-ZOXVQnEXLEF5-4" vertex="1">
          <mxGeometry x="331" y="180" width="28" height="30" as="geometry" />
        </mxCell>
        <mxCell id="s4cBqy5uWarLuJxs_DqD-94" value="" style="shadow=0;dashed=0;html=1;strokeColor=none;fillColor=#4495D1;labelPosition=center;verticalLabelPosition=bottom;verticalAlign=top;align=center;outlineConnect=0;shape=mxgraph.veeam.vm_linux;" parent="Vl_7YJs-ZOXVQnEXLEF5-4" vertex="1">
          <mxGeometry x="191" y="40" width="28" height="30" as="geometry" />
        </mxCell>
        <mxCell id="Vl_7YJs-ZOXVQnEXLEF5-5" value="Google Datraproc" style="swimlane;whiteSpace=wrap;html=1;strokeColor=#3333FF;" parent="Vl_7YJs-ZOXVQnEXLEF5-1" vertex="1">
          <mxGeometry x="130" y="337" width="190" height="210" as="geometry" />
        </mxCell>
        <mxCell id="qZR9Qv6uX3RPC9YeKpCW-132" style="edgeStyle=orthogonalEdgeStyle;rounded=0;orthogonalLoop=1;jettySize=auto;html=1;exitX=1;exitY=0.5;exitDx=0;exitDy=0;entryX=0;entryY=0.5;entryDx=0;entryDy=0;" parent="Vl_7YJs-ZOXVQnEXLEF5-1" source="Sl2bv3AIZOpNkn_9FIrU-1" target="Vl_7YJs-ZOXVQnEXLEF5-54" edge="1">
          <mxGeometry relative="1" as="geometry" />
        </mxCell>
        <mxCell id="s4cBqy5uWarLuJxs_DqD-101" value="(1)" style="edgeLabel;html=1;align=center;verticalAlign=middle;resizable=0;points=[];" parent="qZR9Qv6uX3RPC9YeKpCW-132" vertex="1" connectable="0">
          <mxGeometry x="-0.0713" y="-1" relative="1" as="geometry">
            <mxPoint y="1" as="offset" />
          </mxGeometry>
        </mxCell>
        <mxCell id="Sl2bv3AIZOpNkn_9FIrU-1" value="&lt;font style=&quot;&quot;&gt;&lt;font style=&quot;font-size: 10px;&quot;&gt;&amp;nbsp;Function/Scheduler&lt;br&gt;&lt;b style=&quot;&quot;&gt;&lt;i style=&quot;&quot;&gt;Load_Info&lt;br&gt;&lt;/i&gt;&lt;/b&gt;&lt;/font&gt;&lt;font style=&quot;font-size: 10px;&quot;&gt;Trigger: Cloud Storage&lt;/font&gt;&lt;br&gt;&lt;/font&gt;" style="rounded=1;whiteSpace=wrap;html=1;" parent="Vl_7YJs-ZOXVQnEXLEF5-1" vertex="1">
          <mxGeometry x="20" y="73" width="97" height="87" as="geometry" />
        </mxCell>
        <mxCell id="Sl2bv3AIZOpNkn_9FIrU-8" value="&lt;font style=&quot;&quot;&gt;&lt;font style=&quot;font-size: 10px;&quot;&gt;Function&lt;br&gt;&lt;b style=&quot;&quot;&gt;&lt;i style=&quot;&quot;&gt;Predictions&lt;/i&gt;&lt;/b&gt;&lt;/font&gt;&lt;br&gt;&lt;/font&gt;" style="rounded=1;whiteSpace=wrap;html=1;" parent="Vl_7YJs-ZOXVQnEXLEF5-1" vertex="1">
          <mxGeometry x="454.5" y="430" width="84" height="70" as="geometry" />
        </mxCell>
        <mxCell id="Sl2bv3AIZOpNkn_9FIrU-117" value="" style="group" parent="Vl_7YJs-ZOXVQnEXLEF5-1" vertex="1" connectable="0">
          <mxGeometry x="643" y="480" width="191" height="100" as="geometry" />
        </mxCell>
        <mxCell id="Sl2bv3AIZOpNkn_9FIrU-118" value="" style="rounded=0;whiteSpace=wrap;html=1;" parent="Sl2bv3AIZOpNkn_9FIrU-117" vertex="1">
          <mxGeometry x="-125" width="38.784850926672036" height="62.42350061199512" as="geometry" />
        </mxCell>
        <mxCell id="Sl2bv3AIZOpNkn_9FIrU-119" value="&lt;font style=&quot;font-size: 9px;&quot;&gt;Python&lt;br&gt;con libreria Prophet&lt;br&gt;&lt;/font&gt;" style="rounded=0;whiteSpace=wrap;html=1;" parent="Sl2bv3AIZOpNkn_9FIrU-117" vertex="1">
          <mxGeometry x="-118.84" y="7.35" width="38.84" height="62.65" as="geometry" />
        </mxCell>
        <mxCell id="Sl2bv3AIZOpNkn_9FIrU-124" value="&lt;font style=&quot;font-size: 10px;&quot;&gt;Modelo con&lt;br&gt;series de tiempo&lt;/font&gt;" style="text;html=1;align=left;verticalAlign=middle;resizable=0;points=[];autosize=1;strokeColor=none;fillColor=none;" parent="Sl2bv3AIZOpNkn_9FIrU-117" vertex="1">
          <mxGeometry x="-207" y="16" width="100" height="40" as="geometry" />
        </mxCell>
        <mxCell id="s4cBqy5uWarLuJxs_DqD-27" value="&lt;font style=&quot;&quot;&gt;&lt;font style=&quot;font-size: 10px;&quot;&gt;Function&amp;nbsp;&lt;br&gt;&lt;/font&gt;&lt;b&gt;&lt;i&gt;&lt;font style=&quot;font-size: 10px;&quot;&gt;Process_Image&lt;br&gt;&lt;/font&gt;&lt;/i&gt;&lt;/b&gt;&lt;font style=&quot;font-size: 10px;&quot;&gt;Procesamiento de imagen, calculos&lt;/font&gt;&lt;br&gt;&lt;/font&gt;" style="rounded=1;whiteSpace=wrap;html=1;" parent="Vl_7YJs-ZOXVQnEXLEF5-1" vertex="1">
          <mxGeometry x="323" y="122" width="97" height="98" as="geometry" />
        </mxCell>
        <mxCell id="s4cBqy5uWarLuJxs_DqD-31" style="edgeStyle=orthogonalEdgeStyle;rounded=0;orthogonalLoop=1;jettySize=auto;html=1;exitX=1;exitY=0.75;exitDx=0;exitDy=0;entryX=0;entryY=0.5;entryDx=0;entryDy=0;startArrow=classic;startFill=1;endArrow=none;endFill=0;" parent="Vl_7YJs-ZOXVQnEXLEF5-1" source="s4cBqy5uWarLuJxs_DqD-1" target="s4cBqy5uWarLuJxs_DqD-27" edge="1">
          <mxGeometry relative="1" as="geometry" />
        </mxCell>
        <mxCell id="s4cBqy5uWarLuJxs_DqD-32" style="edgeStyle=orthogonalEdgeStyle;rounded=0;orthogonalLoop=1;jettySize=auto;html=1;exitX=1;exitY=0.5;exitDx=0;exitDy=0;entryX=0;entryY=0.5;entryDx=0;entryDy=0;" parent="Vl_7YJs-ZOXVQnEXLEF5-1" source="s4cBqy5uWarLuJxs_DqD-27" target="s4cBqy5uWarLuJxs_DqD-9" edge="1">
          <mxGeometry relative="1" as="geometry" />
        </mxCell>
        <mxCell id="s4cBqy5uWarLuJxs_DqD-34" value="&lt;font style=&quot;font-size: 10px;&quot;&gt;Guardar&amp;nbsp;&lt;br&gt;&lt;/font&gt;" style="edgeLabel;html=1;align=center;verticalAlign=middle;resizable=0;points=[];" parent="s4cBqy5uWarLuJxs_DqD-32" vertex="1" connectable="0">
          <mxGeometry x="-0.2361" relative="1" as="geometry">
            <mxPoint x="7" y="14" as="offset" />
          </mxGeometry>
        </mxCell>
        <mxCell id="s4cBqy5uWarLuJxs_DqD-103" value="(3)" style="edgeLabel;html=1;align=center;verticalAlign=middle;resizable=0;points=[];" parent="s4cBqy5uWarLuJxs_DqD-32" vertex="1" connectable="0">
          <mxGeometry x="0.4344" y="3" relative="1" as="geometry">
            <mxPoint as="offset" />
          </mxGeometry>
        </mxCell>
        <mxCell id="s4cBqy5uWarLuJxs_DqD-54" value="Cloud&#xa;Functions" style="sketch=0;html=1;verticalAlign=top;labelPosition=center;verticalLabelPosition=bottom;align=center;spacingTop=-6;fontSize=11;fontStyle=1;fontColor=#999999;shape=image;aspect=fixed;imageAspect=0;image=data:image/svg+xml,PHN2ZyB4bWxucz0iaHR0cDovL3d3dy53My5vcmcvMjAwMC9zdmciIHhtbG5zOnY9Imh0dHBzOi8vdmVjdGEuaW8vbmFubyIgd2lkdGg9IjIwIiBoZWlnaHQ9IjE5Ljk4OTk5OTc3MTExODE2NCIgdmlld0JveD0iMCAwIDIwIDE5Ljk4OTk5OTc3MTExODE2NCI+JiN4YTsJPHN0eWxlIHR5cGU9InRleHQvY3NzIj4mI3hhOwkuc3Qwe2ZpbGw6IzQyODVmNDt9JiN4YTsJLnN0MXtmaWxsOiM2NjlkZjY7fSYjeGE7CS5zdDJ7ZmlsbDojYWVjYmZhO30mI3hhOwk8L3N0eWxlPiYjeGE7CTxwYXRoIGNsYXNzPSJzdDEiIGQ9Ik0zIDMuOTlMMCA2LjQydjcuMTNsMyAyLjQ0eiIvPiYjeGE7CTxwYXRoIGNsYXNzPSJzdDAiIGQ9Ik0zIDMuOTlsLTMgNCAzLTJ6bS0zIDhsMyA0di0yeiIvPiYjeGE7CTxwYXRoIGNsYXNzPSJzdDIiIGQ9Ik0wIDE1Ljk5bDQgNCAyLTItNi02em0uMDEtOEw1Ljk5IDJsLTItMkwwIDMuOTl6Ii8+JiN4YTsJPHBhdGggY2xhc3M9InN0MSIgZD0iTTE3IDE2bDMtMi40MlY2LjQ0TDE3IDR6Ii8+JiN4YTsJPHBhdGggY2xhc3M9InN0MCIgZD0iTTE3IDE2bDMtNC0zIDJ6bTMtOGwtMy00djJ6Ii8+JiN4YTsJPGcgY2xhc3M9InN0MiI+JiN4YTsJCTxwYXRoIGQ9Ik0yMCA0bC00LTQtMiAyIDYgNnptLS4wMSA4bC01Ljk4IDUuOTkgMiAyTDIwIDE2eiIvPiYjeGE7CQk8Y2lyY2xlIGN4PSI2IiBjeT0iOS45OSIgcj0iMSIvPiYjeGE7CQk8Y2lyY2xlIGN4PSIxMCIgY3k9IjkuOTkiIHI9IjEiLz4mI3hhOwkJPGNpcmNsZSBjeD0iMTMuOTkiIGN5PSI5Ljk5IiByPSIxIi8+JiN4YTsJPC9nPiYjeGE7PC9zdmc+;" parent="Vl_7YJs-ZOXVQnEXLEF5-1" vertex="1">
          <mxGeometry x="80" y="42.1" width="20" height="16.19" as="geometry" />
        </mxCell>
        <mxCell id="s4cBqy5uWarLuJxs_DqD-57" value="Cloud&#xa;Functions" style="sketch=0;html=1;verticalAlign=top;labelPosition=center;verticalLabelPosition=bottom;align=center;spacingTop=-6;fontSize=11;fontStyle=1;fontColor=#999999;shape=image;aspect=fixed;imageAspect=0;image=data:image/svg+xml,PHN2ZyB4bWxucz0iaHR0cDovL3d3dy53My5vcmcvMjAwMC9zdmciIHhtbG5zOnY9Imh0dHBzOi8vdmVjdGEuaW8vbmFubyIgd2lkdGg9IjIwIiBoZWlnaHQ9IjE5Ljk4OTk5OTc3MTExODE2NCIgdmlld0JveD0iMCAwIDIwIDE5Ljk4OTk5OTc3MTExODE2NCI+JiN4YTsJPHN0eWxlIHR5cGU9InRleHQvY3NzIj4mI3hhOwkuc3Qwe2ZpbGw6IzQyODVmNDt9JiN4YTsJLnN0MXtmaWxsOiM2NjlkZjY7fSYjeGE7CS5zdDJ7ZmlsbDojYWVjYmZhO30mI3hhOwk8L3N0eWxlPiYjeGE7CTxwYXRoIGNsYXNzPSJzdDEiIGQ9Ik0zIDMuOTlMMCA2LjQydjcuMTNsMyAyLjQ0eiIvPiYjeGE7CTxwYXRoIGNsYXNzPSJzdDAiIGQ9Ik0zIDMuOTlsLTMgNCAzLTJ6bS0zIDhsMyA0di0yeiIvPiYjeGE7CTxwYXRoIGNsYXNzPSJzdDIiIGQ9Ik0wIDE1Ljk5bDQgNCAyLTItNi02em0uMDEtOEw1Ljk5IDJsLTItMkwwIDMuOTl6Ii8+JiN4YTsJPHBhdGggY2xhc3M9InN0MSIgZD0iTTE3IDE2bDMtMi40MlY2LjQ0TDE3IDR6Ii8+JiN4YTsJPHBhdGggY2xhc3M9InN0MCIgZD0iTTE3IDE2bDMtNC0zIDJ6bTMtOGwtMy00djJ6Ii8+JiN4YTsJPGcgY2xhc3M9InN0MiI+JiN4YTsJCTxwYXRoIGQ9Ik0yMCA0bC00LTQtMiAyIDYgNnptLS4wMSA4bC01Ljk4IDUuOTkgMiAyTDIwIDE2eiIvPiYjeGE7CQk8Y2lyY2xlIGN4PSI2IiBjeT0iOS45OSIgcj0iMSIvPiYjeGE7CQk8Y2lyY2xlIGN4PSIxMCIgY3k9IjkuOTkiIHI9IjEiLz4mI3hhOwkJPGNpcmNsZSBjeD0iMTMuOTkiIGN5PSI5Ljk5IiByPSIxIi8+JiN4YTsJPC9nPiYjeGE7PC9zdmc+;" parent="Vl_7YJs-ZOXVQnEXLEF5-1" vertex="1">
          <mxGeometry x="390.5" y="93" width="20" height="16.19" as="geometry" />
        </mxCell>
        <mxCell id="s4cBqy5uWarLuJxs_DqD-58" value="Cloud&#xa;Functions" style="sketch=0;html=1;verticalAlign=top;labelPosition=center;verticalLabelPosition=bottom;align=center;spacingTop=-6;fontSize=11;fontStyle=1;fontColor=#999999;shape=image;aspect=fixed;imageAspect=0;image=data:image/svg+xml,PHN2ZyB4bWxucz0iaHR0cDovL3d3dy53My5vcmcvMjAwMC9zdmciIHhtbG5zOnY9Imh0dHBzOi8vdmVjdGEuaW8vbmFubyIgd2lkdGg9IjIwIiBoZWlnaHQ9IjE5Ljk4OTk5OTc3MTExODE2NCIgdmlld0JveD0iMCAwIDIwIDE5Ljk4OTk5OTc3MTExODE2NCI+JiN4YTsJPHN0eWxlIHR5cGU9InRleHQvY3NzIj4mI3hhOwkuc3Qwe2ZpbGw6IzQyODVmNDt9JiN4YTsJLnN0MXtmaWxsOiM2NjlkZjY7fSYjeGE7CS5zdDJ7ZmlsbDojYWVjYmZhO30mI3hhOwk8L3N0eWxlPiYjeGE7CTxwYXRoIGNsYXNzPSJzdDEiIGQ9Ik0zIDMuOTlMMCA2LjQydjcuMTNsMyAyLjQ0eiIvPiYjeGE7CTxwYXRoIGNsYXNzPSJzdDAiIGQ9Ik0zIDMuOTlsLTMgNCAzLTJ6bS0zIDhsMyA0di0yeiIvPiYjeGE7CTxwYXRoIGNsYXNzPSJzdDIiIGQ9Ik0wIDE1Ljk5bDQgNCAyLTItNi02em0uMDEtOEw1Ljk5IDJsLTItMkwwIDMuOTl6Ii8+JiN4YTsJPHBhdGggY2xhc3M9InN0MSIgZD0iTTE3IDE2bDMtMi40MlY2LjQ0TDE3IDR6Ii8+JiN4YTsJPHBhdGggY2xhc3M9InN0MCIgZD0iTTE3IDE2bDMtNC0zIDJ6bTMtOGwtMy00djJ6Ii8+JiN4YTsJPGcgY2xhc3M9InN0MiI+JiN4YTsJCTxwYXRoIGQ9Ik0yMCA0bC00LTQtMiAyIDYgNnptLS4wMSA4bC01Ljk4IDUuOTkgMiAyTDIwIDE2eiIvPiYjeGE7CQk8Y2lyY2xlIGN4PSI2IiBjeT0iOS45OSIgcj0iMSIvPiYjeGE7CQk8Y2lyY2xlIGN4PSIxMCIgY3k9IjkuOTkiIHI9IjEiLz4mI3hhOwkJPGNpcmNsZSBjeD0iMTMuOTkiIGN5PSI5Ljk5IiByPSIxIi8+JiN4YTsJPC9nPiYjeGE7PC9zdmc+;" parent="Vl_7YJs-ZOXVQnEXLEF5-1" vertex="1">
          <mxGeometry x="522.5" y="401" width="20" height="16.19" as="geometry" />
        </mxCell>
        <mxCell id="s4cBqy5uWarLuJxs_DqD-73" style="edgeStyle=orthogonalEdgeStyle;rounded=0;orthogonalLoop=1;jettySize=auto;html=1;exitX=0.5;exitY=0;exitDx=0;exitDy=0;" parent="Vl_7YJs-ZOXVQnEXLEF5-1" source="Sl2bv3AIZOpNkn_9FIrU-8" edge="1">
          <mxGeometry relative="1" as="geometry">
            <mxPoint x="552" y="170" as="targetPoint" />
            <Array as="points">
              <mxPoint x="496" y="360" />
              <mxPoint x="551" y="360" />
            </Array>
          </mxGeometry>
        </mxCell>
        <mxCell id="s4cBqy5uWarLuJxs_DqD-95" value="&lt;font style=&quot;font-size: 10px;&quot;&gt;Obtener datos&lt;/font&gt;" style="edgeLabel;html=1;align=center;verticalAlign=middle;resizable=0;points=[];" parent="s4cBqy5uWarLuJxs_DqD-73" vertex="1" connectable="0">
          <mxGeometry x="0.099" y="-1" relative="1" as="geometry">
            <mxPoint as="offset" />
          </mxGeometry>
        </mxCell>
        <mxCell id="Vl_7YJs-ZOXVQnEXLEF5-6" value="Jaula&lt;br&gt;&lt;br&gt;&lt;div&gt;&lt;br/&gt;&lt;/div&gt;" style="shape=cylinder3;whiteSpace=wrap;html=1;boundedLbl=1;backgroundOutline=1;size=15;" parent="1" vertex="1">
          <mxGeometry x="40" y="110" width="120" height="150" as="geometry" />
        </mxCell>
        <mxCell id="Vl_7YJs-ZOXVQnEXLEF5-26" value="" style="group" parent="1" vertex="1" connectable="0">
          <mxGeometry x="265" y="214.5" width="61" height="35" as="geometry" />
        </mxCell>
        <mxCell id="Vl_7YJs-ZOXVQnEXLEF5-22" value="" style="rounded=0;whiteSpace=wrap;html=1;" parent="Vl_7YJs-ZOXVQnEXLEF5-26" vertex="1">
          <mxGeometry width="35.225352112676056" height="11.666666666666666" as="geometry" />
        </mxCell>
        <mxCell id="Vl_7YJs-ZOXVQnEXLEF5-23" value="" style="rounded=0;whiteSpace=wrap;html=1;" parent="Vl_7YJs-ZOXVQnEXLEF5-26" vertex="1">
          <mxGeometry x="8.591549295774648" y="7.777777777777778" width="35.225352112676056" height="11.666666666666666" as="geometry" />
        </mxCell>
        <mxCell id="Vl_7YJs-ZOXVQnEXLEF5-24" value="" style="rounded=0;whiteSpace=wrap;html=1;" parent="Vl_7YJs-ZOXVQnEXLEF5-26" vertex="1">
          <mxGeometry x="17.183098591549296" y="15.555555555555555" width="35.225352112676056" height="11.666666666666666" as="geometry" />
        </mxCell>
        <mxCell id="Vl_7YJs-ZOXVQnEXLEF5-25" value="" style="rounded=0;whiteSpace=wrap;html=1;" parent="Vl_7YJs-ZOXVQnEXLEF5-26" vertex="1">
          <mxGeometry x="25.774647887323944" y="23.333333333333332" width="35.225352112676056" height="11.666666666666666" as="geometry" />
        </mxCell>
        <mxCell id="Vl_7YJs-ZOXVQnEXLEF5-35" value="&lt;font style=&quot;font-size: 8px;&quot;&gt;IoT Server&lt;/font&gt;" style="shape=cube;whiteSpace=wrap;html=1;boundedLbl=1;backgroundOutline=1;darkOpacity=0.05;darkOpacity2=0.1;size=13;" parent="1" vertex="1">
          <mxGeometry x="200" y="142.5" width="40" height="60" as="geometry" />
        </mxCell>
        <mxCell id="Vl_7YJs-ZOXVQnEXLEF5-44" value="&lt;font style=&quot;font-size: 9px;&quot;&gt;Parametros&lt;br&gt;Ambientales&lt;br&gt;&lt;/font&gt;" style="text;html=1;strokeColor=none;fillColor=none;align=center;verticalAlign=middle;whiteSpace=wrap;rounded=0;" parent="1" vertex="1">
          <mxGeometry x="243.99999999999997" y="178.5" width="60" height="30" as="geometry" />
        </mxCell>
        <mxCell id="Vl_7YJs-ZOXVQnEXLEF5-45" style="edgeStyle=orthogonalEdgeStyle;rounded=0;orthogonalLoop=1;jettySize=auto;html=1;exitX=0.5;exitY=1;exitDx=0;exitDy=0;entryX=0;entryY=0;entryDx=0;entryDy=23.5;entryPerimeter=0;" parent="1" target="Vl_7YJs-ZOXVQnEXLEF5-35" edge="1">
          <mxGeometry relative="1" as="geometry">
            <mxPoint x="144" y="165.5" as="sourcePoint" />
          </mxGeometry>
        </mxCell>
        <mxCell id="Sl2bv3AIZOpNkn_9FIrU-6" style="edgeStyle=orthogonalEdgeStyle;rounded=0;orthogonalLoop=1;jettySize=auto;html=1;exitX=0;exitY=0.5;exitDx=0;exitDy=0;entryX=0;entryY=0;entryDx=40;entryDy=36.5;entryPerimeter=0;endArrow=none;endFill=0;" parent="1" source="Sl2bv3AIZOpNkn_9FIrU-1" target="Vl_7YJs-ZOXVQnEXLEF5-35" edge="1">
          <mxGeometry relative="1" as="geometry">
            <Array as="points">
              <mxPoint x="300" y="153" />
              <mxPoint x="300" y="179" />
            </Array>
          </mxGeometry>
        </mxCell>
        <mxCell id="Sl2bv3AIZOpNkn_9FIrU-60" style="edgeStyle=orthogonalEdgeStyle;rounded=0;orthogonalLoop=1;jettySize=auto;html=1;exitX=0.5;exitY=1;exitDx=0;exitDy=0;startArrow=classic;startFill=1;endArrow=none;endFill=0;" parent="1" source="Sl2bv3AIZOpNkn_9FIrU-51" target="Sl2bv3AIZOpNkn_9FIrU-56" edge="1">
          <mxGeometry relative="1" as="geometry">
            <mxPoint x="1415.6899999999996" y="245.12000000000012" as="sourcePoint" />
          </mxGeometry>
        </mxCell>
        <mxCell id="Sl2bv3AIZOpNkn_9FIrU-85" value="Acceso&lt;br&gt;https" style="edgeLabel;html=1;align=center;verticalAlign=middle;resizable=0;points=[];" parent="Sl2bv3AIZOpNkn_9FIrU-60" vertex="1" connectable="0">
          <mxGeometry x="0.0138" relative="1" as="geometry">
            <mxPoint x="1" as="offset" />
          </mxGeometry>
        </mxCell>
        <mxCell id="MrkzlXc2_4qQzo67yfB1-7" value="(7)" style="edgeLabel;html=1;align=center;verticalAlign=middle;resizable=0;points=[];" vertex="1" connectable="0" parent="Sl2bv3AIZOpNkn_9FIrU-60">
          <mxGeometry x="0.5817" relative="1" as="geometry">
            <mxPoint as="offset" />
          </mxGeometry>
        </mxCell>
        <mxCell id="Sl2bv3AIZOpNkn_9FIrU-51" value="" style="shape=image;verticalLabelPosition=bottom;labelBackgroundColor=default;verticalAlign=top;aspect=fixed;imageAspect=0;image=data:image/png,iVBORw0KGgoAAAANSUhEUgAAAtYAAAGHCAYAAACUKhUJAAAgAElEQVR4Aeydh1tUWbqv7/9z75w5c8I995wzc3p6pnt6ejq3oc05I4KKomKDoiioGBBFRTAC5gAIIqJkyZmCKqqKyjmQg4T3PnvTdptFKBF08Tz7oar2rlVr/da3vv3ub6/17f+F+BMKCAWEAkIBoYBQQCggFBAKCAXGrcD/GncJogChgFBAKCAUEAoIBYQCQgGhgFAAAdbCCIQCQgGhgFBAKCAUEAoIBYQCPlBAgLUPRBRFCAWEAkIBoYBQQCggFBAKCAUEWAsbEAoIBYQCQgGhgFBAKCAUEAr4QAEB1j4QURQhFBAKCAWEAkIBoYBQQCggFBBgLWxAKCAUEAoIBYQCQgGhgFBAKOADBQRY+0BEUYRQQCggFBAKCAWEAkIBoYBQQIC1sAGhgFBAKCAUEAoIBYQCQgGhgA8UEGDtAxFFEUIBoYBQQCggFBAKCAWEAkIBAdbCBoQCQgGhgFBAKCAUEAoIBYQCPlBAgLUPRBRFCAWEAkIBoYBQQCggFBAKCAUEWAsbEAoIBYQCQgGhgFBAKCAUEAr4QAEB1j4QURQhFBAKCAWEAkIBoYBQQCggFBBgLWxAKCAUEAoIBYQCQgGhgFBAKOADBQRY+0BEUYRQQCggFBAKCAWEAkIBoYBQ4JVg/X/+53vEJjT4UG1gX2yiGP1CAaGAUEAoIBQQCggFfKqAAGtxAfFRXkAJsPapHxGFCQWEAkIBoYBQQCgACLAWYC3AWrgCoYBQQCggFBAKCAWEAj5QQIC1AGsB1j4YSKIIoYBQQCggFBAKCAWEAgKsBVgLsBZ+QCggFBAKCAWEAkIBoYAPFBBgLcBagLUPBpIoQiggFBAKCAWEAkIBoYDPwPq/vl3Clr2x7Iw6wl+/n/dSWPuXz2bw+z//wP/5nx/457/O4l8+nSa//nHxRmYsWcfvPhFZOD7ULByTrV1i8aJwfkIBoYBQQCggFBAK+FoBn4D1f327mKPXC7l99yFpuSWEBm3mn5+D5H/+61xCD51gxk/T+adPZxF05D7LFgXwu/+ZwZ4j6UTHxvNPn0jQLeBaaPDubUCAta9diShPKCAUEAoIBYQCQgGfgPWcNVvQtCr545ez+N1fZvJvn07nn/82my9mr+HruWv4ry/n8dcFW7iemseK+Sv4YsFaHiiMrNsawX98/hP/WLSer35axKffL+LP3y3ky9mr+Xz6Mn7/5x/544/L5TKkcr6avZL/+WYh/5gjlbuaP38zR4C4uBAZkw0IsBbOTyggFBAKCAWEAkIBXyvgE7CeuWITZpudY0cO8fXMxfzLF7MIjLlE8aMirt7JJi7iIEs3HaCgsoF1wWEs3BSG3mIi8uBxPpu2ip2pxWwKXEvSpUzS7qSTcvM2ufnFTJuxlNsFlZxPuk5ZQwsVJXmcPXeVm9dvcDjuHHvCNo8JqkRE+N1HhCe7xr4E6y5jNTGHook9foILV67RojPzeGCQ+pIHmByuZ8bs0OBjOto9z3wGwzg1VdzPzqE86z6lNbUMP3fE0297u3ro6e5jaKCH6rICPF29T+9+q9e9HW4eZGfQpNbI3+vv7aWlScHFC+c5f/kmFlf7C3Xp7+2ivbPnrX7nZQc/evgAk8X2sl2/fjbU4+X+/bu0dT+my2nkRvpd2voG5f09HW6uJSVg9Xb9evzTL4aHB6kpzcfe9uz+zk4nh8+nYevskw8fHh6ipiCfWo396a+/9eu+ni56e3pheBi7oYXLF8+Rcb+Izp7+ty5LfOHDU2B4aIDC+7c5eDSOU4nneFBcTUdPH70dDq7fLaatf+iZRj/u7aRvYMTWf90xPERtVSlao5a05DRsHSM2/Ov+p15Iv9fb28vw8DBGnYpbhUoGhl7nWZ768gsvh6grLeZKVim9g8MwPESHy8bDe3c4eSqBh6X19PYPvPCt5z8YHHxMb/9jhoaGeFBQhsbsfv4QH7wfprqqhCs3MnmiqEFVx6U7j+h/RfPdLjvHk7Po6n26DcPYmgrJvHWbgYGRzx0OJ1H7D9LV9axPGW+l+/r68XRIfTVEm9vB9SspXL19F1d753iLFt9/Dwr4BKx//+lMloQco6CiEaOhhZVBOyh8VMbh3WFsibnIgR17mbEkkNTsBzII/9fXy1E2VjNz0Ur+49sVZNYq8VuylfQCFelJp/jMfye5NbWsWf4zjeUPWRSwmbSKRk7EHeX4mST2RB3i6zmr+Y+/zRBgLSLWY7IBX4K1q/Iqi+b9RGODgrryfJYvXU5ulYoz+8MpqFfzuK8Hk9GIu60TQ0Mx4ZvXYDKZ6Grz4G3vwmYxUXL1KNvC9nAmPIqElBSsVjNOTzs9PT0YbU75hOi22+ntaiMx7hwn427htuqJid5Nk8VDX083RoMei8PDwON+7BYjZpsDo8nyzAmvp6sTvV6P3dVGb287Z3YGsC0sAqvDhQSi2bevsXpjKJWNaqpLi7iVp6CrpweDVLbdRX9fDxnn9hIcGY/Z2oYEk0aDAZvTy+DQED2dXvR6HWqNlrbuXrq7OtDpdLi87QwNDeJ1WnC7negtHvZHRlJaW490sWG3WjBa7PQPDNLV4UWn19PR3cdAm5F9UeGYPN0M9rZzeH848em1SBcjyrpifpy9HIvVikGvk/UaHh7A63Ris9txOW3ERu+kXGOlt6cLvU6H09uBza7mT3O3UKqS2uSUT5rXjh/jRmEzA4/7sJiMmGwO+vsfYzebcLf/chIdHqbD60GnN4zUrb8Xk8mAzeVlaKCP2/GxJJ9NxG5QEhO1i8zCKs6eOMTR6wU8HjPQvIezgvjJd6KAZCMnDkcQdTmfVq2ahMO72LQ/gfrKfBau34HS2Y3LYcNottLV00X2xb1cza2hq7cXh8OB1Wano6uN09GRZBc+YMuSYMqVevRGM/39/TgtZtlf9HV3YHN0YNHWcPpsMhqTg+KcqyzZfZXOnj5cdgt6g4me3n4G+zpwO61YLCacnjbpmlD+Gxx4jNNmQW800d3Tg01fzZYNm0kraUbiao9Vzablc0m8dheT0cD1S1cxWZx0eFzo9Qbau3oYHOjH47LhdTuw2p0MDQ1TWZLL2Vv3sDrb2XvgEA9LFLi9HlwuFwajib7HA7S5bbR19/P4cS+tJgePBwfxuhzo9Ea53Me93bg9kr8aps3joru3n842FwaDUX4tNUCRn84avwD0bX0MDw1yav8uzmeW0+51y22X4L6nqwunzYbDaqWhtpQ//bAeu6tdBltpjHd1d6O4e4KwwPXoW7U4XF5ULWr+8G//D6fTiRRgkPy6p71T9p1er4fHgyMoL+lnMxswW+0MDA7R290p+0lXWxeDgwO4XR4cLhdGk5n+x4+5k5HB8t3nUKl1HAjbxvmsYm4mJxJ9KoXugVdcDbwTKxWF+kIBn4C1FJ38pz//yOez1lDQpCUgJpmc8nL27DnIT8sC+X9fzGLa4vWkZ6aOgPWsbdRWPuCHn2byp2m7qGioYObabWSVlBPw03y+8dtBaXkjs6evobxBRWlFHVV5d/n2+7l8+pMfu09cI+1+Ht/OWjQmqJrs0VRRv3cfUfc1WC9bNE+GOenk+fBSHCs2JRAXvZVKTQuFuRksXbGKPQmpXEmM49M/fcK+/fspuHaaoJC97N55gOzEXeyM3MWFPVEsXrGcDYHr2bxjP0Xl1SwJOYyzo5/4sHAaHqUxb+4cvv5uKY/ySjkeux+1xUla8ilWrfFn+ep1VFaVsCNwNnOWB7Ng4RIyHtUicZ10Ek2OP8TK1f6sXruJwrJSpv/jC777YTqVldU87nQSuXMXd6taZN8inWSlE3ZRxmUC1q9ndVAoZcUPWf3jZ/zPFz+ReDaPrJtJrF0XSNCW7dTU1bN3+wYWLlnKF199S1pxBcmJx1jht5bQqBh0BgOnIvwICtnGjlNZbA0Lp6qmhqbaMgL8/Fjpt4n0vCqid4ezam0Au09dp9P9G1hLMJ16/hTrdsfS09fJxX3bCTt+k3NxB/HzW8em8MO4vAaObNrMpq2hZGTc58TRSGq1JlLPHsbffx0rg/dQUlvJH39YyPot21i+bjPF9TpGwLqJ2uJ7rF+/kXWBG8ktKiN4yUJOJmfKerRZm9m3c6usc0z8Ve5eOsXadQGsD96F29ZM4IL5fP/DDK6dCGX7ls109/aRczeTv/vtwdr52Bf+WpQxhRWQwfrIHo7frZMjqf1dDvwCAriUcILVm7bzqKqe0OAg/IO2k5KZxbTv/s5P68KoUioJ27GZoNBdlGkNnI3eR0FZAQE/zGH91hDmzVtMRu4j9gWupry8AmVxBmFRqaTeSuDL72YSGX+N/KwrrIq5Q011Of7+Aaz08+f87Qc4GzMIDlxAYOBaNoZGY2kbufvVUF0ij6lVa9dx7loGF/YF8Onn37A5/o4cRS8pSOOrHwLo6BqJmEsg6bYZCFjrJ/u63ceS0Gia2B2yjO2hW/HfFEaLvYPgoEC+nraci2l17Ig9QXZFE9HH9hEUHMKq1au4dreYlNgQUgrUGE31fLlyD42KWrYHb2bZqjUcOHGelppi4k8f4fHAAFfPHiazuIaQdStk35de1ixbyECvh/i9m0jIqKSvtwv/tetpbmog7kAYy1as5GJ2DWW5+axdsoKdu6JJfZjDv/30MxW1TYRs/5lVfn5cysin4W4cs//+FRvX+bHx54MUVDbKYK1XNXL2UKTsp7buOY7baSTu2DE0jg45mq+qymXBoqUE7YxGaXFxPu4Iq1f7sXxDOCXVDcTs2c2mbSEsX76aa7kV7Nq2iv/4YgY/773I3MUhmG1evIZaNq7eSoOjewpb/cdZ9XGD9b9+tYith8/w7YwFfPZTIOU1dazdEcu97Gymz1zCrI2RzFkbwrRFe0m7eZM/fruAL9fuovx+Oj/NmM/ft56kpjidBWsjKCjI4dPPZ7AgKJxHdU3851fzWbx1P7EJaWQmnOI/P5/Fn39azX//4EfslWxmL1oiwFpErMdkA+8KrGGIpgdXmDNvF/sjNlOhVnI1OYaw6FOoTQ5KyipYsmwVg497Kbh6ipk/n8HT1knljUOE7Q2XwTr00Em0mmY2r9lA5MVMvlmzE1t7HwcDNtBqNnLq9FnOXXhIf7uDmMNR3Lufx9rlK1AbrRTeOs6efVGsnPkJ4ZFnyL9xmuWRV+nqH6K6rJBVa/wwWu1kJEZy6vwNYgIWE38iXo7+9HqMbP45nGrjb7dnpVuTVp1ajtREh2wnO+ch+xcsIzjqAnZVAbO++QvfTJvD3z//O+vDE/jvz1aQXVHF/KCdXL6UyM7todg8Xo4cOkLEicvs37qEyw+rGRgcJnTnLqqqS0k68DNJaUVYDCaMFidV5dU8ys3j798tp6qu8deIteSi3fpqls2cy42sIpYvXYrW1U5DbTUNCgXBfoHodVWErwjkfoWagf4+Yg9HUNNqp7WpluamJuZ/9QM3b1/iT9NWca+8ibhd4RxPPM/V48dITs8icO5nfPn9LL75+xdsj75CbVUlrZaRqTvHDu5lWehB7A4nLWodmqYaGupq2BO6mUpjO8eOn+DS5au0FFwkePNGpNu7RXfv8cnCEIxtr75l/3Geej6+Vj8P1jDA+o3ruXB0Nys2bObqjXtsDAqlvKYJh9VA6OaV3CgzMtznxG/jWlJLmxke7uP03gjyS/LZOGs19yqVlGZfYEXQTgJm/EBhURGND68TsO0yNWV3CYtLoqNngJoHKSw/cIWTsYdJzq6gVavEb30oqoJzbAndgrpVzd6IbaRVtMJgD6ePHeJabg1qVSOrA0Npt9YRticWi1ea6jRI4b0kvpoTTX//L1NVhvq5m3wK/5jbmK1mVq8J4OTJ02wOXkOF2szFc8c4eFdB3o2LxF96KF+w74o5xr2yRn6O3MmFjBJys++wZcvPnNq9ktP3m9Dpq/jnH4LY8fMOTqfcwmrSELEtgGNnL3Ho0C76Bx5zNjacs+n5/Nv//SPnrmTg6ngydWKY7IxbTF+zC8XDc2zdfQy3t40mRR0Fd1KYtyaEazey2LZ1J66OXrSt1fxh+jZUehvltQoe5d7h58jDFN8+TuDKdRj0ao5EhrIjMVUG6+zMVP7zv/4s+4pPPv2C5latfKdLmrrT224lZs9Gbpe34vK2YW4pIWhdGAq1jqNhqwnfsZMd6xeSnFNJQc5lvtlwnBsZN1kSdRWj3cLSFXux2TvpcarZ6reWCtOTNn18Y2aqtnj8YP3FHDaExxJ/5iJ7Ys+xNWwXf/52Adv2JxB76gK7DsTx/ZzVfD5jPfHJt9i6M4JPflrN+UvXidi7h0XbD3DyUCzfL9tB7PEo/uUvPzJ92UbOpj4k6uJdzp5PYc+Rc9TX17N94za2RsRyIO4Cu/fu57//Nn1MUCUiwu8+IjzZNfY1WC9eMBu1RoPLYSZhXwgHEnM4tX8zFZoWWpobOBsfR/iOWFIfFLNk2Qq6u9opuBrPqlMFSDBeefM3sD55MRm7qZmQdZvZn3SXb1ZuR21ysc8/gFaLidOJFzideI9uj1UG67SMBwSuWY3ZbkeRf5mI3eGsmPkpR2KuoS66weyfL9DRN0hpQQHr1wVgd9gpuRXHsYRLxAQuJjE+QfZfg31dJB6P5kjyHTo6OvC2d2C0ebgcf4xzyZcJWbWGrIcPObRkBRsjEjHU5LBi5XKOxp/jYspVcnKLWfrTNHZGH+f8zQzy088QGbFLPqGdiE8k9OgFDoauokg5Mq96BKxLOBseTEpWBe1tHegMrew5coKTx07yyWezKSmveQashwf7OLU/jB8WrWPFjmO4bBYORO4n/kIKfgsXo9dVEhUYRo2hjaHBfhmsCyqaiNm1g/MXU/jp8y+4eTuJP80NpkJj4fjuvZw6f0EG66TbmQStms2+Y6c5n3SJwqoWOjo66esbgeLoiD2sDo2Vbwk7TBqOR+8jISGBzZvWkadpJ+7ESS5cTMbclE9E+HYMdhfpt2+yPDwRb9+T2Z5T9VQh6j1eBUbAOoJDt0po62hHpyhh+ZoAMm5fkcG6RmMm9dYNDkQf4dKtbMKCV3G5SM1Aj521W4LIarACv4F18OLNVGqsKMpvsnpbBBvnzODe/fuUZSSzbutl6ivuERZ7Dld7N9UyWF/myMEDZJQ2YzQZWBe0E1XeWaKORNHR00Fs3F4uP1LBQBexhw6QU61Gp9Oydn0YbdZadkQe/2VO9zDVpbl89+NKVEaH7Csk6L0Yd4ht5wrxtHtZt3ErcUeOEr53K67+IW6nXmTHrWoKU1M4eTFLnl4W/gtY7zi4j+xaHcWPStiyeSNnotYSm1ZBo6KQ338fxJbg7dy+dx+Pw0TM9gAOJaYQfWAHLo+b+MNhZJY0kHolmaPR++TsZE9Gmk1dz7q50wmc/zV3HykwKQqJij5GQtxBfly4nIuXszh64JDcra26EbAuKS4g5kQCifFxrPs5nLwbxwkN3IDDZubMsZ3sOjMC1nez0vj8u4VEx18gKeUynvY2eRrO4NAwPV4TkbuDKdC46ejqwtaUz6a1O2nSmbh0IIA9oSHs2rSUTIWD2tqHfLriADcybrMoIgWd2ULg2s00a3Q0l91jXchBjO1ijcZ4x95Ef3/cYC0B1D/9eRr/94vZ/PvffuKf5DzV3/P7v8yQP/vXz2bwu1+mikj7//Wv0/ndJz/wb9Lrz6bzh79O51//OoPffzqdf/1Mymv9Pb//9Ef+e3Yg18o1XL+cwpmrWVQUPGDOtHn84a9SubP4w19+FFAtotVjtgFfg/Wf//SffP3dj8xZtJz9Jy/i6Ojm3P7NlKubyb19hrlz57HzaAqKxkbWLviJkPA9ZF2IfSlYb1i+gBVLFhIcHoNW08KGtcuYuXA1G1YvQGe1cONyMt9NW8KjwjIZrBtbLdw8e5iFCxewdJU/RXn3WDf3ry+AdXe7h/NHI5g3bx6r/DbS0FhP3IYlv4K1NNXC2tpIZGgwc+bOY/HazdwoqOdwWCA/zl7ClvXLyS3OJ+fcfr79YQ6JKTlcv3KWBQsWsnLjdnLz85g7fwFbQiPkeeblZYUknzrInDnz2LT7KAqlipiw58G6murCbBYuXMSKgK3cul/I9NlzWbLKn29mLngBrCUHaWm4z/c/ziSzUoPHamTtoln8ON+P4LULMRlfBOuiygaCFnzHnKXr2Lb0K27dTuKvS9ezKWgTC/xCqNWaR6aC5NdTlJvO8mVLWbAygLt55exct44L17Jkv2xS1rJ9vR+z5y8j/vwlQtcsZtqshYTv/Jmi1k7uXrnIzGkzKSguISfjCosXLyIgNJJajfWFBaAT7ejF771/BWSw3hfMH7/4jumz5+MfFEJmXiVWZakM1tmlDfJUillL1nOvTMHdcweYszKImuaGl4P1gpUEBW1g0Yo15FUrKb59hvmz57A5aDN+IdcxGRVsWLOS0JhzFN5NYvmh2xQXFuDv58fsRcs5efke1uqrL4I1w5QV5uK3ejVzlqwk4foDHrcpnwJr6O3qJC/zKitWrmTarHnsPHCcirIK/NesY+6ChWw/fAFFbdkLYK2seMDChctIut9A2MvAelsIuppsFixeyqpNYfzLj5spKy9h57b1zJ63gKjoOMxmPftDA5k5fynbt28hPa+ETYF+/DR7Ptfzq38da5LemWei+PcvV2BydGBrKmDO9BlsCQ9nxpqNLwXrnOxMvp82k8BtO1i/76gM1nM+/4wlixcRvv8IhVUNcsRao1Jw8sBuZs1bRFDoAdzWVuJPxstTQYYHH1NZnMWc+fMJ3B6FymDh1IE9zJ67gBUBWyh89Ig9W1Y8BdbR3M/J4W9f/0jUqVQKsm+zZuVi5i9exa2H1fwybfv9G7CowagV8AlYv4vo5O8+mcaMtXu4lZXPzdsZLFi8Rgb0d/FbosyPL4LtS7Ae6HJTX1dLVXU1CpVaXoAjjUCHWScvPOrqaKOpqZm2jh6klfp2kw61zoTXaUNj75AX4nW5LRhNRpwmM3azDo26BU/nyCpxj91Mo1KD1aSXF7r0dkqLaDR0dvXIixx7Hw/S292FUtFIq9nJ4/4+WlsasVrdSFk/VAYnUiRF+uvubJfh3mj3yosJbTo1dvuz2TC6O9toqK9HpTXICxLb3XbqFS1YbVY6uzoY6OtGq1HjbO9BWiilalagajVSU1XMqtAYbt66TfDa1VQp1XS1j5RldXoYHhzAatTQ0Tsy39hgNMqr66XFi0adBo3BKi+8NGhb5MwqGq2Ozs5uzGYj/QNP4lBSgL8XnUZDT/9jeWGSw6ynUaWTF4E+7u/C3GqkW8ocMjyM1WKiu0+a/2miWWPEZWmVF08q9RbMZhMmm1PW32Wz4u7oYaC/l9aWZhQtWnnRll6txOKS+kj6G8brstPQpJTL7HBZUTSpcDvtdPYP0d/dTktLC+1dfUgLrFqaFRgsToaerAj7pRTx7yNVYHgIm1lHdXUNNXUN2NwjdjXY14lGp6e7rw+dRo3GYJHXRAz0dcnjvKe3h1a9Dm+PNG6GsZtMtHe2Y9aZsJgNqFpN8jgdHuxH3aKSx7Pe5GFoeBCzUY/eZJUX92ksHgakRXXGVhqblHT19PG4243ZYmZwaBCrzYSrc2SO9dDAY6x6DYrmFnmRI4O9GE22XxfnST04NDiAUaeW11a4O7rl6WQdbhsKRRNtHV0M9PdgNOmRhq7H48To6ZJ9k1qtxtvdj9Fqpa2zG6PFTFt3H52dnegNBjkzhlatxmhzUafU0zc4hMtipEHRLPtESQOXw0pdo1Je7NnZ1Y3VqEWh0j6zUFuqY0+7kwaticfSisuhQQytaqxOFxq9EafLi9VikY2xr6+LWqWers4umhWNmGwuOaNTu9tGq7IJlUqJ3dMhZ1mprauX53cP9vegam7CaHfLixddTvuv+gwN9KNrUdBqMMsZUPp6OlA2N+PwdjM89BiTQSP3Z3d3O40aCz3dnaiaGrG4vAwMDtKqVqLWGceRxeUjHWOTpNmTFqwl2P3dJz/KEWopqi1FuQUAf3wA/K763JdgPUnG8nuvhnQBkZV6neMnTpBVUE7Pk/mX771mogJCAaGAUEAoIBSYGAUmNVi/K6gS5QpAF2A9MQ5G/IpQQCggFBAKCAU+JgVeCdbfzF+L2IQGH6oNnE668TGNc9FWoYBQQCggFBAKCAUmQIFXgrWyVY/YhAYfqg043N4JGF7iJ4QCQgGhgFBAKCAU+JgUeCVYu9raEZvQ4EO1ge7esT8G/GNyEKKtQgGhgFBAKCAUEAqMXgEB1uIC4qO8gBJgPXonIY4UCggFhAJCAaGAUGB0CgiwFmAtwHp0Y0UcJRQQCggFhAJCAaGAUOC1CgiwFmAtwPq1Q0TsFAoIBYQCQgGhgFBAKDA6BQRYC7AWYD26sSKOEgoIBYQCQgGhgFBAKPBaBQRYC7AWYP3aIfLmncPDw/LTtYaGhsR/oYGwgQ/ZBsbxFE3hJ4R/FOeIj8MGBFgLsBZg/WZ2fu0Rvf39tHV2iU1oIGzgA7eB9q6RR3e/1iG8Ymf/wICwjw/cPsR5QJwHJRsQYC3AWoD1K06Eo/24q7f3o9TwQ03FKNol0oy+ygY8HZ0MjTFq3ff4sfAT4nwrbOAjsAEB1h9BJ7/qJPExf+7LdHsCrAWIfcxj6WNquwBrMdY/JnsXbR2bvfsArNswmfRkZ95if/RBTl28icZif+GqzGIzY3V5Xvj8bTrO7nJyI+MejUbHa8spuHGLe/cf4Gxrp7yylISLV+XXrrY2jMpyYhOvorU4X1pGY005MSfP4/C0/bbf66W6IJPo649+/UyrquHokQO/vn+bdohjx2asvtRNgPX77wNf9qcoS/TnRNiAAGthZxNhZ+I3pradjRusJag+tHsbIdGJNKhauHXlAjWNTWhbtZRWVNKsNdDS0szZo5FczSrE5PTQqtNSUlGJ2mTF4fGgVDVTVFJGYVkVKrMDtUbNo/IqWgxWnF43NU1KKmpqqWuoZefePeQpjJbwIqAAACAASURBVBgtZsoqq6lv0WFzuahvqKOitgGz0821fQc4c/a8DNM1ZQWsCdxERasdm83MgQ0L2Xs6jcbmZkoqqtCabFgsemqqa6ipqeXm1WtMn7UGm9uLqkUl10NtMPHwygl+irhKo6KRBpWWxsoclsyfIYO1wWSkpLyChpZW7E8DuYiGT9oLDwHWU9txiROP6L/3YQMCrIXdvQ+7E785texu3GBdXVvLqjVr0TvcMkQ5PR5a9QbCdu5m2apVbN8XR3J8At/9428s3byXwmoFW4ICWbHGn+DIkxTkZhDot4off5zG57OWcPpOIcFBgSxZsYa1wRGoDU0s9F/HinWbSUq6QuS+XRQ2tXL+xH4WrVhDWMQeystzWRO4nqWr/EkrrH0GrG02I0d2bSAk/h7KFiX/+e+fcCMzi8BNwSxfsZyjyWnU5iYx84tv8A8IJebwGb6b7o/V5WZDUDCLFy8i7PB57iQd588zVhDg789CvzDuP8iUwVq6MIiPjmCVnz8r14dQXKOctDApBudvg1OA9W9aCLsQWggbGJ0NCLAenU7CnoROH7MNjBusK2qqWbnGH6f3N0OyOp0Ul1WSm/+A4OBgckqridoRSHa1msKcS/zh//2Jr777kc/+8Q3Rm1YQtPVnrp0/zp5zl8jOvMaGg2fQtqoID1pOdl0x89YFk1+twmIxsXfvDq5cimf+vDlUK5rRapoxGLQUlJSTEBtFWFwKV6N+i1hL0z9uXk1i4Yr15KSd58c1e6lX68krKSMj7Trrt0eRe+c0y2cvoFFr4MGV63z9gx82l4f8ohLupV1h+ZJFnIzZz3dBx2lUNhEREsjKPTEyWFvsev72+Rf84/vp/PmzL7iekSXAegpE6gVY/zZeP2YHKNou7OBtbECAtbCXt7EXcezHaS/jBmtVs4IA/wDSihpQteqor6+jobqEfYeOcPz0GfzXryPzUTUHdgaSWlRHwcNrfL/Qn7jEC6RcvU7h3RQ2r19NxIFDZBZVkpt9lY37ztLcXM/eED9y6otZuDGMUoUBq838C1ifZOmC+VTUNdCq15F54yIRMaeI3L2NoENnuRL5NFi3o1fVsmnNQpauWMbtkmYqi7LZfeAQcXEnWRO0i/vp8QQsXobRauPB1RGwNqtK2BUZzcmTcSxeNJPYQ1HMCk+hRaVg/w5/Nhw4PgLWDgNz5i/l2InTnE++RL2yRYC1AGthA1PABsRJ7+M86Y2n3wVYC5sZj/2I734c9jNusHa63RQX5rF8yWL+8revWLBmE7m5OSxaMJfv565k7c49ZFWruHRiLzOXb6C0Ucne0E189sVXbN59hNTkeFbNWkrIti3MX7OdB5W1bNsUwGdffsOmiFg0FuULYJ3foObS6Wi+/vYHtkXFknr1DJ/85Qv8tm4nOO7KC2AtRa0vXUrgj98uQ2d1Ul6UzdfffMOitVvZEHHqpWBt0Tcwbdp0Vm0JZ1VwELGHIlm2MZwl82axec8higqyZLB2erycP3GQL7/8B/NWbaK0tklA1RSAKhGx/jgcnDiRiX72pQ0IsBb25Et7EmV9mPY0brCWDcPrlRckVtTUodRbsLs9KJqbqVdqUBvN8oJFs80iR3Md3nYsFjOVtXWoW7UkHN7JivW7iT91nLA9B6nWuzAYDVTWNaC3uXC1eWho0WJxeXB6vbRopddeLHY7NfWNqI02bE4HlTV1aIxmVEYLOq2OVoPpGcDVm61UN6lxeNuwOV3UNjTS3GqgxWDBZDHS1KzE4fFiMpmpbVTJU1samppoMVlRtbaiaW2VF1M2q5rRGK3YHDak/VL7LQ471XV1NKr1YvHiFIBqqc8EWH+YDm2qn6gk/6i1uVFbXM9sBsf4MipNpC5SNiabp+0lW/szUwYnsk6++i0B1sJv+MqWRDkfri35BqzHDFNttGqVXL18kbjEi1Q2aX9Ji/fhCi4G0+ToWwHWk6MfxHh4th+0VjfBl6tZHF/6zHYsu/mVUOr0ttFqtmL3PFvWaLWV7rrpTeZnU4w+59OlRdpSUGI0ZVo9bVTo3JRoXM9s5a1uDM5Xl2Fz2HGN8jdeVg+7w4b9qbU+zx7Tht5oRGMwjescI8B6bDb2bF+IMt6XHnaHHaPt9emKX1c3u9MpByBfdYzD5UZrcoxrjL2q7N8+99I6jkCD3d2GwT6SbOO3Mn+zSYvdgVJrwOz0jsrfvayM9wzWvzXmZZUTnwl93pUNCLAWtvWubGs85TabnPzjYAH/O+TeM9vGlOpXgrXZZiPiaCLlahsWhwujxYrZ4UQCbpvDgdlml9OHWh0OTDY7Fmmfx4v0PZPdgVGnJibqEPUtBqSI+fP1r6mo5OyFM9QarC/se/5Y6b3V3UaeysU9hfOZ7WGzi1b7K8Da66E08woatUaun3RH0mi1Y/d4cXi9cntMdhd2l0teCyPBgdQ+6SQovba73JRnn6HaYH/pBUBLXSGnTscTl5BAeplqVO14WdsEWL9oHy/TSXzme52kO0Fj3Z70R8XDW5y7cgdpLEljx2B1yHfZpdkAVqcLg82JzeXGYLVjtLtG7vC73BhtTvm4ysJsGpTKl17ASsklLiRcIDA6A8MYL/Kf1PN1/61OHWF3quU2WJ1u9BY7Zodb9gcmmxODxS4/M8VkG/EN0mwHu3ukTdLrBpWOuNRy9C+Dc6+HjLuZHDqVwokLtzA5pFkTb9+XAqzHINpYhBbfeXvjfJeaCbCeXP3xLvt6KpU9FrA2aBVsClpPyN5YrlxPI2jdarbtPohCq+PWmSgORB/mfnEZZ0/HEhm5m9gjpygpKeLowSgOHI+nqKqQlUuXsuvgCXnaXUl5OY/KyimtrKHV4qS+uobz5+Kp1VtGdZIZC1hb7XbionazPSSEa5evc/JQOEtW+ZOUUUR1SwX7jiVwIjmNy8kX2RW+k5XBhymprOHUsSPsiT5KatptIrYuJ+zwaZoNFipqauQ2SO1QaTSknjzItbQiKvKyCAm/OKp2vMxuBFgLv/Eyu3jXn7Xa3KRW6se05SnMv4LwwaPxTF+5gyOXs0k4fpKf/HZzIrOKZpWChJSbbIu9yfkbd9m8O45Nh25RpVBz5vw1tu1L5HxmJXtCowkIj6NE66S2sZm80hrySmupaWrFajVz4VQiS6PSXgrW0t0k6cJaY3v7Te9oGwkseL2U5Wfz7eq9HE7O5EZmDrNWhBAYkYDOYGH77tNs3HGSlJQ77Np3kuCIGGKuFZCZkcm2yBMcS8qkMPs2s9ZFEpVWRbNSRf4vbXjUoMFi1fMg+y4Gh407SQloLaMLJjzf/z4Bayn64e3opK2zS2xCg3duA97OLtzS1fs4bhsLsBYnyOed4WR4PxawNllthB85TanKRs6DB2zeuJ7FqwO5V9bA7bNRVNU1UJ5+itTUO7TU5nEi+hDJ11KIiNxHxKGj3H5YzOGIA9Sp9Gibq7h89SrJly9z5eYdGrRmXF4vzfVFKEyjO8mMBaxdUsT6ziXUajUtTTXERoayZMlitu6Np1RZwc3iZkx2DUdvFNJQ38Bqvz2cOXmObVtD2Ru5l9jE65TcPU2VXopyu7idnia3QWpHWWUVSQcOcyO7lsbie4RujRdgLQJKY7aB9+EnqrQ2/M5Xjmk7mKnA6h6Z1lCRc4Mzl9LQqJXs2XuEHxZuYtrW05Q3NVOk0KLRG3hYUSk/OC/mUhHXr+UwZ+1+gncfY/HOC2TcvUN9s1K+q5SVk8fplHROp9zhbl6NrGdNUQ4r9qe/FKytnnaq9R7Kte633uqN0lS0kXOWxaEjJK0Ko83O9fQM5vuFsWDtDlQ6M3uPpaHQWTgde5n7ZQpyMm4RcfwKkdv3sS0ynt0HT1Ot1HHsVhk6h4dHhUUkXpLakE7K/QoMxmYe3M7A7vVQdCcJjW10Pu95mxg3WEtQ7XA6GRoeRvwJBSZKgYGBARxOl/zkzueNejTvBVgLsB6NnUz0MWMBa2lqx6GTZ7hXWk9aXhFZRVWcvXyTnAoFGcmHUao1NJemcvPmDQqzr3Ak8hAZecVk5pdSVl1PQ3MLZw8foqSqkbrCW2xYH8haf3+Ctu4kr6YFg9FIXs5t8qtqsI/iYnZMYN3mpaYgQ376btH9VNJuXqMgP4vYuIuUt1Rzt9aIq83BsfPXyX6Qx0K/PaSmpXMzPYPyqioqGlRU510jp1KJ1WVlR3iY3AapHTdTU6nITiHpyk1u375F7PVHY4YqEbEWfmOifcKT35PWOIx1e1JGc0UO56+kk3uvmJ2Hr5ORkcHS3WepaFZR1WqRE0GkPSyipLaJ6PP3efiwmCNnUimurCOvqpGSkkLyymvQmS0cOnqKWavDmbV6F9En03G4XeRmprF092XqDS+fxz3eqSxSOxweC7uTc6huUnLnQTZ55bXcvpIsJ844lJiNwekl/cpN0nIekXLhDHsS75CRnk5hVYMcZFC2Gjl65QGNejuXzp5nnl84s9aE43/kmgzrWTn3yCkuIz4uEb3VPiZfMW6w9nR0IEGO+BMKTLQC3d3dWB3OMRm+AGtxgnxysplM/8cC1tKdG422hcp6BSptK1J2pipFC1qLHU2LQh4j0kmvQdFITuo5DuxPRG+y0KBooLpBgdnhQtOipEYxEomSFjLqTGakTEo2txed3kBZRTkVtXXynOc36TU2sG7HYrNSUV2DskVDo6KRRqWShmY1BocVjXVksVGLWklebi6rtx5FabTTpGyisrYBrdmO2Wyiqr5Jnl9psFjlNkjtkC48HC4HDQoFNY0KOUvVm9rwqv0CrIXfeJVtTIXPHS4nNY1K6lQGFE1KahqaKKpVYZTWKjilzGtttGhbKa1p5MiVIpqMdlpadZTVNdNssMnrGyobVBhdXkxWO1qTVd6kOdgOl4ua2gbuF1fTZLC/wwWMbdQ2NlGrakWl1VHV2IJSrZbHfZ1SL1/8m61WKmobOXcqjlOpZejkTHNN1LXo5PnWNY3NNOhs8jzz1l/aIKViltqv1ekpq1HQrDOP+a74uMFamgIyNCSi1RMNleL3oKenRx4YY3FoAqzFCXIsdvOuvyOlqavQ2ChWWp7ZGl4RARptfRxOO6nXkzlz6SbVKuMrF0KOtrzXHSc9hdfoapMzgEhZQJ5sRqcUcRuf3T24dYVTp89S2dw67rJe14ZX7RNgPb7+e5Wu4vPJoauUcjjrQRGRcSnkVCpGdYdqMvadRqPk2OlLXLpbjNoytuDbeNolwFoQ6pRVQID15HDG43FA4rsT14dSNEbaprLm77sNAqwnzl6nsp1O5bpLY2y0qTUncztlX/Ge1hIIsJ6yWCkqLsBanOQms2MXdfvw7FOA9YfXp2Kcij71tQ1MCrDu6e7E5nDSPzAkaFEoMGoFBFgLh+hrhyjKEzb1OhsQYC3s43X2IfYJ+5Bs4L2AdV9vL3cfltD5eBhbSxU3b96k9FEeOSX19A+K+dqjJsspeOBATzterweplwd6OzAbDAyPMaOMAGvhxMSJTNjARNqAAGthbxNpb+K3pqa9vTOwHujrprL4Prcycmjr6sVuVHPt+g2UJheKynzmLl/D8YtXiNkdwuWsJhh+zJ5DZ8hrcU5BXBRVHq0CfV1eih/m09CooLy0AlVL6wtg7Xa7qaiooKSkRN7KyspwOl+0CwHWU9PpiJOF6LepagMCrIXtTlXbFfWeONt9J2A92N9LzuULHDp+lvsPClBrDBRl3yLz9mXCd+9G3VTHquBw7twvJCwgjFJzt8xlR8L2kZhax+BoKU0cNyUV6HTqyLp5mYcFJbwsoYwEzHl5eZw+fZrExEQKCwvp6+t7oa0CrCfOUQinLLQWNtDORIG1xWajoLSGapUeh+eXBadSWkWNiuyCCnKklGam0Wc7cLd3TNpFq1LdpOxik9W+pIeReSaxfpNVt6frNZn7V6qnr+v3TsC6y+1mb9ARqq3tcjRyoL8bg7oZZXkOO4L9sNvtbD5wGp3FwcGfw8nVtMvQdCA8muQcFWKm9QsM+cF8MPi4l4pHhRQUFlOcX4jVOTIt5PkG9vf3k52dTUFBwUuhWjpegLWAvaedt3gt7OFd28BEgLXT66Uk/wFLAnezdd9pWp488dLtIjUlni8WhDAnIIpr5bpRwagEhR1d3aM69l3r97LypSc29/b3T9r6Sfp1dvdM2vq9TNPJ9llP3+TtX+nCrru3z6f9+07Aur+rnaSYQyTdr6C5RYumOottm4KpKM3leMRmnA47m3Yd5FFtExmXEjmakI5CUc/xM9fQeF6MTD4PXeL9VFVgmB6vFZPZjjStuq/Tg6ZZ8cJUkNG2ToC1AKnJdgIR9fmwbXIiwPqJDdldbh7m5qAyW0ZO+m43aZcS2Hsxh/yqZjk/uLezkzdt7V3ddPX0vvG4N5XzrvZL0Nr/+PGkrZ+knwRe76r9H0O5fZO4f59c2L22Hzo6ke5cPBmbb/r/TsBaoqZOt4WsOze4cisTi9lAzq1k0rPuoci7TV93J9k3krmS/hCXx0tZwQPOJV2ixWB76dSA0YKWOG4KKCAR9a+LFYcZGhr7/QkB1qMf6G9yBGK/0FLYwJttYKLA2ulxU1qYy62CWqxu70j+cXkqSAtFFfVEHb/MuWLtqGCvvatLgPUoLkBeBVYCrN988fYq7Z58LsD6FzYbrZMVT16cAjD7gVZRgPWbQWC041gcJ7QUNvBmG5gIsJamghTn5pBwJZPsR7W0mJ1kXk7mYX4JaddSuZFdTMSxy6TXmUcVQZsKU0H6JvNUkI5OOnt6R6X1q8aQ9MAVo8ODxuqmTmdHZXZhckoXTG+2uVeVOZU+n8xTfaSpID19U2AqyAfKcaJZk0wBAdYfh1OeSicQUdcP2yYnAqxd3jbULRpyH1WTW9Ygg7VapUJrMNHY0MDD4mqK69TYnixqfMMtagHW47NJqc/HCtZ2TxstFheXHmkISqlm3YVK1idV4X+hkm1Xa7lZrsPi8o4L2qeCzxFg/Qs8jbazRMR6ktHmR1QdAdbjO2GMdoyL44TOwgZGbGBCwPoNoPy2fSHAenzjdzxgXdRs4bsjhcw/WUKR0oLO5sbg8KCze0iv1vNDTBH7MxRY3b9kfvFx37+trbyr4wVYjwGsB8cxT/Yj4kDRVB8r0N3Tg8XuGNPVfndvr89q09U7vtuEY3Vm0m3EO9V6jt5rFts70CAht0W+XTvW/hHfGx/QTEb9BFj7vk+lxWMf4lQQadrHz9drCb1eS2mLFWk6yNM2LUWzs+uMLEso43yBGvMHHLkWYP0LbjxtAK977fS24fW2jTmzg8/oRhT0USkgLXp0ezzY3Z5nnNXrbPXpfR8CWEuOetOlav53yD2xvQMNPo3MlW/jPm034rXvwWoqaSrA2vf9/yGCtTSHWvLNBzObXntxLgVHytU2Nl+u4USOEtsHGrkWYD0GsLY5XXKeTCmlj9iEBhNhA96ODqR0VGM9KQuwFjD+pgsSAda+h6ixjtfJ8j0B1r63iQ8NrLU2N1Hpjaw+X4HWOrpzVFatgS8O5HOv1vhBLmgUYP2WYD1ZHJ6oh+8d3oesqQBrAdYCrIXPeFsfJ8Da9zbzIYG1xd1G7L1mliaUoTA4cI5yzrSUIeTY/WZ5YWOTcfRP1Hxb+31fxwuwFmA95ijo+zJa8btv7+wFWAuwFmD99uPmY/c1Aqx9bzMfClhLU/MuFKqZE1dCrsL01hwhZXmRpoSczFFi/8CmhAiwFmD91gPiYz/ZTMX2C7AWYC3A2veQNBV9wdvUWYC1723mQwHrnPqRhYjJxVq0di8tVi9qmxeN3Ss/JXM0OavrdA6WnC4jt9E86mj329jv+zpWgLUAawHWo7x99b4GqS9+V4C1AGsB1r6HJF+MzclchgBr39vMhwDWTSYnK8+UE5OtIk/pJF/lolbvpsbgoVTrplDtkiH7TXAtRa1js5tZnliG2jK6+dmTebw8qZsAawHWAqwFWP8yCkb3732l2xNZQd7txYFYvOh7iHpyop2q/wVY+94mpjJYS3Oom01OefpHQHIN9xUOmsxepLnW0j5ps3va0TnaZMCu1nuweV6vYbPJxTeHC2XAllLyTdWx8nS9BVgLsP4gDPlpoxavX3RkImL9bqH0TdHgqbBfgPWL4+Zj9yUCrH1vE1MZrFVmJ9uv1RJ0uY6sBps8BeRlCxalz4yuNkq0buoMHhm2XzWWHJ42bpTpCLhYieIDWcgowFqAtQBrEbEeXaj6l6NExPrDhHQB1r6HqFfBxFT5XIC1721iqoK1NK1j5406Vp6roqjFKUep32THDm87VToPzebXP8ZcilTvS2/kbH7LB8EjAqwFWH8QhvymAf6x7xcR6w8Thn0ZCRdg7XuImup+532CtcPtJj/nIVfv5JKSVYLWMbqHY4lHmo/PjqU+7+x59um6Uq7qUw+UrDhbQVq16a0eSd5q91Le6paj268aD1KEO71Kj/+FSkpU1inPJAKsBVhPeSN+1WAVn//mYAVYC7B+E4QLsP5tvAjfMaLF+wVrD9VVtVQ2qjh0MYcSnX1U5yoB1uOz4+fBWlpgeCBDwczjj7hbZx5VpPrp8SNBc7PFS5nW/Voglx5xHpRSTWRaw5R/IqMA6zGCtcPjwWJ3YHWN7ir6aUNzuMf+aOqny3nZa4fHi+25J/RZnS6kR7G/7HiXtw2b88XVuE6vF6vT/VsKHOk4l+u39x/B9ImX6jVF2y3AWoC1AOvxAceH5A9G25b3CdZyHb1tlFfVciWvatRAJ8B6fHb+NFhbXF5O5KhYcKqU/CbLmJ+SKE0JkRYySvOtX2d7RUoLq86Wc7fW+NrjXlfGZNgnwPptwdrrRamoJiU5iXNJycSfTaJJNxoj8PKopgGzq43c7Cxu3slCynLgayOor68h5vQ59I6ROU0WfSNHTiWiNr789opWWUPckcPYPc/OgTIoSzlw+Bwa18ggtVh0pJw7hnaKgqWvdZ5q5QmwFmAtwHp8wDHVxrwv6vs+wVoKQBXee0D4/pMk3nxAafPoHkIiwHp8dv4ErKWFhPEPVUw7WkxGtWHcvCLluH6keX3UWprHHZPVRGBS1bh/zxf2P9YyBFi/JVgb9BrCgzcQffEuGqOJkoIHtKi1mC0GHj0qpl6lQYr2atUqmlvUFJSUYbA5qa0sYOXmbaQ/qufS2dPEHD9NeU0DlQotxeVVaK1uDAYdVY2tmBxOiiuq0di86PVa8ouKqGrW4nDaKK+pw+D0oFc3U6/SY3faKa8op0GtkyFdr2kkYGUASQVNOFwO0uO2sm3/WZq1rRQ+eoRSZ5TLaaivoK6+hntZ6fgvXYzN5UFv0JFXWERTqwF1ZTpzFwZT2KCkqrEZva6J8K0raGprx2KzUfzoERUNKj6U9DhjHUBT5XsCrAVYC7AeH3BMlbHuy3q+T7C22pwc33WcuWt3MX/9PuLv1o0qECXAerx23kG9wc2myzXyw1vK1FafQK4Uta41eKjWuZFev8pOKzU2Oa/13VoJ5l993Ku+Pxk+F2D9lmBdUV3NCj9/7E9FbvWtSvZG7MTPfx2rNu4gv6KSlJi9bNm2k4XLVvPz4Qvs2xLEn/7yGVtjkjgYe5IDh2NY6R/EzJVbWbxkJQHbD5ObmkRAaDJlima+nbOUlLxq9kfvY5VfAJtCw7n/IJ2lfv4UKc08iI8kLPoix/eFMmPuUqLikmi1e3B53Vw+F8OigChUqiZ++NOfuJVbysUzJ/FbF0Bg5Alqa4vYuPIrtm7fys5Dx1g06xt5+siFxDhWr12LX1g0D+9dYvq0RYRGRrJg9UYuXs+QwVrh8XD++AHmzp7NguV+ZBZVvXKATAYDF3UYcUwCrAVYC7Cemifp9+nD3idYj7XdAqzfzs6lKLEUIFOZ3WTWGIi7r5IXKUZnKmi1vThNdKz9In1PumMvPTxG73j13XoJpq+XtTIttoimKZp+T4D124J1TTUr1/g/M9eoqvAO2yKP0mK0ciwqmjNJ50k6sp8LaYXk5Bfy44otlOffIWDLVqq1No7G/QLWfuvwizhB9rVUFs+YRfbtC8+AdfSJWMKPnkBrtpFxJ5ngvfufAevQ/WfYuXEJ81dtJLuoAmmRgWS89YUZLFq+ivR7qfxpWgB1ahNNinqSLpzhm8WBZGRnEbJ5MdUtOmoeZf0K1nV1NZw7l8BPS5aTkBDL7PkbqNLbOHLsKKtWbpfBus7h5Mu/f8lf//YP/vbl18RevSfA+qmLrPE4nXf5XQHWAqwFWL8dcLzL8ThVyhZg7Xubmch0e9LCQQlU7d52TK42GWg1tjb58eMKs4cavZtSjZOEfA3Lz5TzaVQuSxPKyVVYX7vQcKz2K9VHafFSpfe8NhqtsbrlqHVinson0fKx1nes3xNg/ZZgrVYqCPQP4Hp+A0ptK/X1tZQ8uEXwnoPUqrQc3LufC5eSSIo5wOWscgpLyvh+WRA1pfcJDN5CSbPxGbBeF5VAQepdlkyfSU56Cn5bTnP/USlf/7SY2PMJhB2Oo7FFy83riYQdOcbqgHVklDaQGhvOjtgb1NbXci87gw07I+RItmQITredk1Eb+GH2Qg7fqaK8tor5/ltJSLnGLL+t3MnKIHTrMppNNhrL78tgbXEYWLExhKSbt1geGED8qSPMmb+REqWGg4f34b8xSgbreoeTwNWruHknk7yikaklYzU+8T3fO+1XaSrAWoC1AOuJG2+vGodT7XMB1r63mYkAawmmpehwo8kjz2suUrt4pHFRrHaR02QnvdbCvkwV806V8X1MMcsSy7lSqqVWZ0dn99LZ3fPOAmZWd7ucIUTvfHXUWhoneQoTG1OqaLG43lld3tV4FGD9lmDtcLsoLsonbMdOVvkHEhZ5mOqaGs6cjmPDhg2E7D1KtVLJrbPxpObVUFZVw8qte2jStrAleCPRF9I5fT6ZU4lnCQnbyY4TlynNzmWz3zoammoJ2riJ9dt2sXiJH2mVas6ejWdtwHp2HjhKVVMLNy6dZnXgmETDUAAAIABJREFUZk4cjeLQhTSupZxh/fqN7I2/hJRr8omh5NxNZ+bMxaiMNpqUjfhv2EBQWBSLg6PJyX3Iwf1baTHbUdYUELRuOVanjQ2bNrEl8hiBoftJST5DwObdREVH8PO+WArLK4jZtw2Vt43s9GsEbdpA8I4oyhuVv/7mk98W/33vjMerqQBrAdYCrCffuBzvuH7X3xdg7XubeZdgLUWEpceLV+vdMrzWGz3y48VbLG5KWmwk5KnxO1/JmnMVhN2oI7VSJ+eNVlt+y/gl9fnzeax9aWdy+j2zR67f6x53bnR62JPawM6b9ZiczyZX8GV93kVZAqzfEqxHOqENu8uF2e6UF/1Jqezk9HuOkffSMdKKZulRndI+OW2dtx2b04Xtl1R7drcHKQ2etGjQ6ZFS242kxJOOsThdWB0u+VaJVI7F4fw1rZ+UTk96L33f7vbKvzPy/lnDe3KcVJeROjhHynW6GUnJNzKQRtLqOWU4ln7b6nLLm1w/l1tOsSfX8al0e9J3pN+U6vnKNH5TYHrEuxhQk7VMAdYCrAVY+x6SJut491W9BFj73mbeJVhbXG3kqZwyWEvQKkGsyuxi86Ua/rjnIavOVlDQbEZKoyfNq5b2P28r7xqspd8zONvIU7rQ2l8ftZYWMP53xENyG80v1PP5ek+m9wKsxwTWLxrjZOpUURfRP8/bgABrAdYCrIVfeN4vvOm9AGvf28y7AGsJkKUFgRWtbuqMHnl+tLTmKrvOSMDFSnbdqiepSIPa+ttd7Vf1/USAtbRgUprjXaV7ffo9g8PDwcwmQq7WyhcIr6rzZPtcgLUA6yl1JTjZBtBUqY8AawHWAqx9D0lTZfyPtZ4CrH1vM+8CrCWoLtW65YWBErRKi//232lk8elSzua3IE2rGK0NTARYS3WR5oFLT2PU2p+92/58PY0ODyvPlHOrYiSl8PP7J+N7AdYCrEc94CajAYs6jc7xC7AWYC3AenRjRfiU33QSYP2bFr6yC1+DtTSnWgLUBpNHntphdXvl+dN+5ysoVllem33jZW2aKLCWfltl9VL5hrzW0nFplXr8L1Sgs43+AuFlbZuozwRYjwGspTnKJosVo8UiNqHBhNiAyWqT58aP1TFMJFhL8+5r6+q4m32f0romWg0m7mbdIyv7PgarHX1rCzkPH5CdW4za7Bj1hZ30pNJNl6p5EyCK/WO7iPg0MndKrsAf65gQ33szNAqwfrNGb2tHvgRrKTotPSZcglNpTrW0yC8xr4X1SVVUa+2j9q1Pt2EiwdrqHom0vy6vtVQ3KQIvtSm5WCPPD3+6vpPxtQDrtwRraeGeze6gu7ub3t5esQkNJsQG2tvbsdrs8kLXsTiSiQRrq0XPpYtnyCyokJ/0WVpZRkRcChk3LnC7rIGcW2e5l1tIckoyN7Ifjdr5C7AeGzCP9kJDgLXvIWosY3UyfUeAte9twpdg3WL1UqJ1Y3S1yc+xkB6s8u3hQio0tpcuTByNbU0kWEsXBlJKwHKtdGHw6oWM0hzyu7VG/nYgn6xaw5jbNpr2++IYAdZvCdbu9nb6Hz/+5Vvin1Bg4hTo6OjA6hjJ4PK2g38iwbqlNp9zx/dx7fpVMrOyKHmUzUOFDbNVRXS69FTSIzQpdVTm3iL9xi0B1iHvFpgFWPsejt52/E3V4wVY+952fAXWUmaNYrUbnWMkw8fV0lbmnSghT2F+5gF2b2t7EwnWUt2kSLuUZ7vZ4n0tMEuZTI5lN7MxpZqa1rFF499Wi7EeL8D6Fy4arYDejk6GhoYmjqbELwkFflGgp6cHi330UyeetumJBGtNQxHp1y+i1rZw71oCD/PucaNAgaqplPj7daSeiaGmtoEHt69y+0amAGsB1qO2gadtWrz2PfQ9r+lEgbU0vVJj0tFsfWohm9dLdXkxcRfSSLiaRZnaNio7+RgeaS5FeqVc1U1mjwzRUjq66bFFXCrWyGn0nu/Ht3k/0WAt1U1pGZnOIj0h8nV1Nbu8RKQ2EJXeOKlzWwuw/gVaXteZT+8bAethAXtCgQlXYKqAtd1h5XpyPOsCgziVfIv6+np2hWxh87ZQ6lt01FfkERK8kZ93RVOlNLzWkT499sRUkHcb2RZTQV5/Un/aFj+W1xMF1vXKRpZsiiSzwfKbP3C7uHkhjtCEu5TUKdE7RrdwzdPRQUdX92/lvCRX8/vsP19ErI3OkQWLZncbOruHn6/X/X/23oM9jiw7zNb/kWzZsj7bsi3LsqVdpdUmbZzZNDs55xnGYZhhzmDOmSABBhAgEpFzzqGBzjl3AwRzmPfTqUIPms1uoAE0EnnxPIVKt24491bVW6fPPUebsDiZOUW6bZY+v3333rzKTzyEdNjDWqj1qeo54Azy5slWDlUMzUnY9anKT+e8AmsF1vMOiKrAmUlgqYC1PHicbhe9g8M4A2FC0ShWm4UBk03TpkjQo4GhIYZtjmn9ZKnAWoF1Oi81lSZzHwjzBdbeYJDGmhKqjXE/8UfClFw7z8sfbWV1Vi6djiBjd+9OuQgU3r1/f8p06eQ1F2mkbg8fPZpx/SK37miu9Uz+W9y6c5eTNWY+y+7SIixmor4iPwHDTOSVdh537mIJ3KLTHiUydmfysu/cpdkU4M1TbVxptWvh19MuJ43xk4m8Hj56PHkb5qkeqdry4OHk40/GVXj0VtofV3+SCmnSfRgrjXUqCarjcy2BpQTW6d5P00mnwFqB9XTGi0o7e8CeL7CWvnIMNlBr1k3dZKK2RCx2+wJ4gmEOHs9j101DWi96qfOi1ljfvs39Bw/SakuyMWz2RakZDuEOjWju5/5wtIXcZuuM80ssYyE01lIHMQMRt4Fi3pJYp2T74iHkh7vrqOhzTUtBkyyvTB9TGutxGkpXsBkB62+/xWLoxuwM8uTxQ4Z6W6mob6H6ZjHe0Mhc85nKfx4l8PDOKP5AgEePH3N3LIrL7uDbb2dmSqTAWrnbS3ci4kzSKVOQ2YNouu+RpZJuvsDa4XGTezWP86VNOINhyvOuUt/cSVtjI3klNVy4XkGHLb2J28+zjbW4p5PoiiZfFF94hE0Ffay71ovVN3VExXTHnPT52DybgsTqZtBsrSPahMbYsVRruz/CwYohfn2gUfNznQkzmFRlTfe4AusMgfW33z4h5HNisjp4+PgJ9+/dYdhgwB8Z49GjR1gcXtxOO1aHl0cP73LxwEFOXCikt7OLU3v24A+PYBrsZH92FXcezyP5qaLmVAKPHtyhr7WR5sZGmhqacHuDz4C1ALPP58Pr9X63iDvHxD8F1gqsZwLM6V6jwFqBdSJAzBdY+yMRzA4PVrcP+WXK4/PjC4Xxh0LYXB7cgVBaWkyp//MM1sMePaCKTF4s63Xyk6x6mo3etGWT2L/J9hcSrP0RsbWOaC74ktUt8ZgnNMKlJosWYfJ8vRlPOG7y6wLa1iuwHqeXxA5LtZ9MY/3k4T0qr57n2Klc2ru6cdkGOXdwNzU11VSUXKO+x8Jv3/2SyupKsg9mcTmnlINb95B1NJfC0gbW7bis1SIajfDLL3dijTxIZCq1v4QlcCfipujyeSprmnmSRFktPqqLi4s5fPgwR44c4ebNm4hrvcQ/BdYKrNOF5JmkU2CtwDrxvTdfYJ1Y7mz2n1ewjoUAF/d64h3jy0tdnKkzIQG5ZiOvxGsXEqylLvLx0GQOpx0x0h8d4UqrlR/sqmN/2RDO4MLDtQLrcXpJHFyp9pOB9Z1omK1fbqLWEtG0kcbq43z6dRaROw8xiBY6p5yffrqZAd8YfTcPsX/3Ti4cz6WsycTwwBAbdlzSahGNRHh5+W7sUQXWiVC5VPcf3Bmhs72Nrs4uulpbcTjdz2isxTQkGAxSUFCgAXYkEknaXAXWCqxnAszpXqPAWoF14ntPgXXmx8RMvIIIVIuZRIctjGhp89psfHy+gz7HzNyvJvZz/P5Cg7WYu0gkSWmvaObj65ZqW64p7HTw3pl2DpYP4UzTg0yq/GZ7XIH1OMKkK8hkYH1vNErWqm2UdFq4e3uMvoqzrN6wlcjYXXraqjmeX8tPP9/OgP8OhsojHNi9jQtHLlFWN0TUbeZ01g5u33+M29LP3ou13FWmIEnBcikefDAWZjQaRhTVjx+M4bZZngHrWLvu37+PLKn+FFgrsE4XkmeSToF1ei/xdN8Vz0M6BdaZHxMzAWvRUlcYgprnjwFHkO9vqyG70ZIWdE53HC40WEt9rf4Rao2habvT6/j3MO7vnm5j/bVeemxxHmbm2SxEgfU4xaQ7+JKBNd8+wdbXwLnsK5SVVzNoMNFecZ3a6moKr17UZu8evlyK59ZDfEO1VFWU0lNXw5Xca/QMWunvaia/tIqiq7nahIRUYKWOv9gSUGCtwHomwJzuNQqsMw9R6b5XFms6BdaZHxPTBWvRVnc7IlpAGKsvwq7iQT4638GwO3278+mMr8UA1hKNUQLgDEgAnGlCscEVZNXlbj7L7qRm0D3rgDnTkV0srQLrTIA1IJMXZZKiLBKZ8cmTx9/ty0/94tdQnEF8++Qxjx8/1s8/fMjjx5L2iebXUq6dqceIFxs5X4zWK7BWYJ0uJM8knQLrzENU7EW7VNcKrDM/JqYL1vaAHgxGYFMmKv7xWAtD7tC0gTPdMbgYwFrq6gyNaP66JXT7dOFa7Kz3lxn48Z56bnTYmW+PIQqsMwTWLwbaqVYupAQUWCuwngkwp3uNAuvMQ1S6MLNY0ymwzvyYmA5Yi7a6xxGh1xnR/Dyvz+vVNNZzOV4WC1gLTA97o9QZQwhcT7fNnlCUUzVGXj7UxIGyIc0l4XQBfbplxtIrsFZgvZCsqMqehgQUWCuwTheSZ5JOgXXmISr2ol2qawXWmR8T0wFr8VfdZA7hCo5QNeDm7VNtdM+x7fBiAWu5Z8T9Xo8zQpstPG17a/36Ecr7XLx7up1ll7o0u+v5gGsF1gqsp4F2KulCSkCBtQLrmQBzutcosM48RC1VoI7VW4F15sdEumAtUCmRCEVb3Wn183dbqrnSkrkIi7E+TlwvJrCO1a3VGtY09+l6CYldF1tLMJmVud28eaIVsydzwXRi+SeuFVhPE6xD0RFu37kzbket20frNtVqW8lhbsdAJBrFF5zZhJU79+5l7Jvg9r170/5ZLvHBM5N9CRyxLKeb//xVmVrmQAbiacDomdn4mkl/qmsyD22ZlqkC68z3UbpgbXBHNLB2BaOaC7nfHGrCNA/352IEa3twBIHrLkdEs72eidZ5wBlETGneOtlGSbcTMRXJ9P0Sy0+B9TTBWpyxSzQol8uNw+lUi5LBvIwBj8erQfVMgwE8D2At2orCbjd7K8xqmQMZHK+1IS/x2MtBrTMPVUtNpgqsMz8G0gFrf3RUm7g37InQOOThndPt2sTFmWpspzPuFiNYS/3d4RG6HWEazSHN7eB02hRLa/GFudHh4JWjLRyvNiLBZWLnMrlWYD1NsM6k8FVemX9oKZkml+lzAdYjo1rggNKBIGrJvAyqhoLzPnte3a/J79fFIpfFANZWhwezO5g2AD0PkRdj7vXEu8Waqz1sKuibN7dxixWs5Z7QA+XokRlFg230RjU77Ol+cNzscfL7I82su9qD2Zt50xAF1gqs035gLZaHvarH9F/GCqwzD6LPG9wrsJ7+ffW8P4sWFqxHsJuN7DmUw7UmY9rvqaUO1p7wCA2mEFZ/FAHAXx1opM3sS7v9sx2TixmspW1iBuIIjGi2523WMLKIHfqgO4rBE9VgW7yIiI16KpMRMSusGXDzuyPN7CkxZNwsRIG1Aut5u2Fne8Or62f+4ldgrcB6qg8BBdYzv7+e12fTwoL1KL5AgNN51eQ2GZHgbLfu3J1yGbt7j3v3H0yZLp285iLNnXv3tbgWyfIevXOXQc8Iva5Rzdzh0wud7Ckdnte23L57j/sPHs5rmclkkc6x0dt38EXvMOy7RY/rFt2uW3Q4Rqg3RWg0hxl0RzTQFhttSZuYZ5c1xG8Pt3C51Zb0fGL6dPcfPnrEWBpjNd38Mplu7O5dHjycqn/vEB69lTYb/sk4Rz+zel4fjKpd6mUpY0CBtQJrBdbqWTDd98FCg7XU93J5K5ebTIgmWuyTp1oEoAQOp0q3UOdjYJOsfH90jHZbBHf4Fgcrhnn/bAfe8Oi8tkXkJ/CfrH6L/Vh07Dbh0TE84VHMvqjmSaTLHtFk2u0cweK/RWBkDEknbZHxXdjl4DeHmynschIaHctIuwVcF7Os7j94MGn9NDlOI+KlAutpCGu6D2GVfvG+uBVYK7BWYL1478/F+uxcWLAewTzYy9rNx1m9rwijL5KWBm2pmoKI/XCXPaz5be53BHn1eAtXWm1ptTmT40f6XLT+mcxzofISUxCxv5aolUOeKPWmkKbJtgUmojmKWcjpWpMWSKbO4MlIu5UpiDIFychAWqgbR5WbHiwosFZgrcA6vXtFPVMm5LSwYD2qeeCyONyYnb60PTgsVbAWc4WqoRAGT4SPz3ew5UY/7jl0CZdqnD9PYJ3YRgFsCbrTbAlroC122JLGHxlhZ9EAb51q1XyGT3cyZGI5CqwVWCuwfgG0+AqsFVgrsJ4AxsQXodpPLpuFBuuZ9MtSBGtvZESbhDfgjnC93a65g2sxzd+ExXg5P89gHWunTG5st4W1JRYu3eaPcKLGyDun2+iwzE72CqwVWCuwVmD9zJyDyQ4sVIAY+VlPHoZTAaI6P7OPCDV5MTlcxl7GL+JagXXmx4TY3oqNa/x4GvbqWlRvOMonFzrIb7c/dT4+7VxvvwhgLTLUTW8i1BnDOIO6P2s5tqt4kOU53fjCM/dxrcBagfWC3cBz/YBQ+U+8FJTGemaw+SJBugLriftFPTt0WSiwzvyYSARrb3iEVksYCQYjtr6fZ3ciUQIXagy+KGAt8hVTkAFXRPu1wB7QQbrXHmB5ThfrrvVimmH489mCtSiRBPIF+PtcETrtE4u4FZTjcn4mY0S8fdy9f39G16YqT01efAG0s6k6/0U+rsBagfVUHwkKrGf2onqenysKrDM/JuLBWkxAxN5X4El8Vf/tpmouNVlT+l+ej7H2IoG1yFMAtd+lB52RSY1yrM3k42d7G9hRNDCjaLSzBWuxA28yS5TJMAOuKDZ/FFsgijWgezqR4zJuXKHpa9UXLVjbbGaOH9zDm2+/w7Kvd9JjdqRxI4wwYLIiX6elBdc4n3MNmY2a6RulubmZTbv3a+E/Je+g38raDdsYsjiSlmUaaGPL+nX4w0+HMrYN1LJq7V6MQf3B4naZObJvA6Y0wDwYDlJ94yKbt+/A5vEmLTe+3T6/l/wrF3j/gw/4ZNVGbtS0TnlN/PXx2539DWw5dR13QnsCoSBmp4dAJEJV2TW2nalAfnaLvzbpdiTElQtHeG/dMczjs9J9AT87dm6joqbu2esjQUxO/9PjIRom/+pFKrpMz6ZPQ55J6zXN6xRYK7BWYJ15SMrEvbmY81BgnfkxEw/WBneUOmOIfmcI8Vm9r2wIiba4kGPiRQNrkbVMVux3RWgwhZFJpLI/4Ahqtu45zRZtfzp9MlOwFg16jzOiQbPAtYBz4kRK0Wa7QyPaJFeBb/F24p+G9npRgrXT6eBw1jZWbdzF1YJC9mXtoW1gSJu9bHU4cPoChEZG8Pr9uP0BLA4nvnAUh83Amh17aTW6yC8q4eL1G1hdHuzeAFanW4M8fzCI3RvEH4mOHxvBFwxgtjtweAMEIxFsbo82g9Xn9+H0hfRjTicuv/7T0XB/Bx+89zbX28wI4JZd3MaHGw5itLux2J14Avo1To8Lp8dNW3MN2zetwxeJ4gsGMdscuAMhzO0FvPS7L+h0+LB7fThsg6xb9jqD8oUXjiBttXl0gBTQlHZ6Qro7JGNfJy9///9w6tI1vMEQLq8XmdkdiIhcAtq+0+PR0gdCAXJOZrHsqzWczb3G4cOHOHuxgGA0it3lwuLUr/MHA1obJR+X14c3EMThdmt5uDxezA6X9nHQ0FbCu5uP4wpFcXk92vUC0P3tlew6mYvBYqO68AxbjxXiDkZwut2arAORKP6gH7fPi9XpxO716wM6HODortX82X/7HsUtAxowdzbe5Kf/9H+4VlBIMKLX0+b2Inn0txZw8FIxNl8Qp9+P3e3B7nFz+fQxChv7sLk82ngIhkM4YmVME5Knc4PH0iqwVmCtwDrzkBS7v57XtQLrzI+ZGFgLHLXZwlj8I+Q2W/ngXMeMtKOZHnsvIliLDAVqJYKjaIJjNtcXGy389nAT1QPuaSlCZwLWMh5iUB3vDjBV/4qmPWabL9fJrx+p0sYfX5Rg3dnVxRtvv4dr3E2LVNjtc3P6xCE+W7aKTQLPfQauHd7N5m37WLHiU05cqeRs1hb+8V9/yOaT+ew/eoq9B4/wyZdreeOLLXy+ah27T+XQUHKZ5RtzaTcM8/IbH3Ct3cTpg7v5csUqVm/IorW1hvc/X0aT0UP16V1s3p/L9ZwTLP98OceuVmiCFZg+sXcDr67dj9Vm4qUf/BXnbtRy7sRxVq9Zy+6jZzAMtrH6o5fYlZXF7oPHeOfVl/CHwmSfPMbKFcvZmrWflurL/PhHv2HbvsN8uXI5N6rrdLCORinMz2HNum9Yv2U3bd2t7N2xno9XrCe/rJ5QNEpV/gX+4k//nJ179tJWf5PV6zfx2ZcrOX2pmKsnzvHZJ8s4dPwUzQNWrBYjv/jBv1BU0fDdoBCorqstYe2a1Xy1Zh0XCqppLjjGyk1ZfL39COeO7GPj9v0cPHiIS1eL2L5tK6vWb+Zszg1iYG11mDlwYCfvf/gpJ64WcebIZr73sz+yZ99BCs7t4POD+dTXVbNi5RqWr17N+RtVNJScZP3aZWxYv5rP1mxnyOknFA5w6uAmPlqxlpVZF7C6vezf+jXf+4v/SV5BId3dbWzeso1Va9ZQ3trN6o/+yI9+9QF51e3sOrSTlV9v5mJFCyezsiiurWPjli0cv1ZF4dnNHLp0XfsAiB/0c7WtwFqBtQLrzEPSXN2viyVfBdaZHzMC1rfuPtDsZgXkREP9ytFm8toWbsJi/Hh7UcFaZCDa4W5HhBZrWAsyIxYGe28a+Nm+BpqGp/71PSbH6YK1a9xLiYRnj7kAjOU11VomWcqkfhlL6WiuFyVYt3V28Po77z71U39XcxkfrNpGt8XNnk1bOHb2LGd3bOTQxTKqa6r42Vur6Wos4eMVK+lxBMk6cIhtu/bwxjvv89rKnRRfvs5v/u3nlOWd4YPV52kZMPCvv/4je06eYvnGnRidHi5nH2Ldjt388Z33qB9yU3FkE6u2nGTjqo94/cM15BbXfvfF0lRTyit/fIMbpUX8zQ9fp6t/iML862Tt2cU/vPwWxRVlfPLeyzT1W+lrucnvf/kDfKEQRfl57N65jR/98pccP3WAf/v5q9T0W9mxYwNvfLBBA+veQJDXfvsb9h4+wa6t68m+lstrb77J2h0HqW5q1+C4v7uHf/gv/42ejnq+/OO/sffURQYH2vnej19h+Rdb+Gj1JszekJZ2eNjI9//u5xRVd30H1r6Ak80rvyK/qZ/Ghjpef/Nj6q/s5PMth7B6Q5TkHObL7WexeAPs2LGT9z7ZwKGDB1i5YgV14xprm8vOldxsvnj/9/z+4xXk5x7lvZ3ZOPxBSrJ38to3R1n+0Wtcqmiita2BH/3uIw4f38lX23ZgtQ2z8ZuvKO80aWB9+sh2jlUN8NXqZRzev4OVX37BF398n7yCIgzDg5w6dZI333mNVUdyqTi+mY0HruMJB9i442uOXiwlGAlxdNtWbrQMUlNVwk9//gd+9PPX6U1hnjPVjTST8wqsFVgrsM48JM3kXlxK1yiwzvyYkch/Bu+Ypq0edAZZc7WHDdf7sPrC370DF3KMvMhgLXIXsBW4Fjtm0Vw7AhG2Fw7w+cUu+p1ikTD1mJgOWIt2utUqttQRLZBNOvknpnHLBFhrmD5nBM8U3kwWJVgP9PXx/rsfUN9nwRcMY7JYaKi8xrINexhy+Tm0eSvHz57m3J5tZJe0UtfUwo9e/ZTOplI+/HI5HWb/U2D9/uZj1F4v5hUB6/yzvLPsOPVdXfzgl39g+8Es1u/ei80bID//PJ9v2s7rb71DRY+F63u+4qusK3T2tHP+zDHe/GwV7Vbd92Iw5GL7l2/z6psf8tWpKjp7O3n5d3/k01Xr+f6v3uBGSSGrl72Kwemjv7VMA2tv0MMbb77Jmm++4ce/fokjh3fzi5c+pM3mZefuHbz19loNrHsCQd547XUq65vp7u3BaLNRV1fLpnWrWbsrC5/YKglY/+V/p7e9hjde/iEnzudgsgzxd//8ez75YANbdu0hMD443U4bH73yC07l5uHyBbDYbBiGeti0bA1VvWaamhp57Y33aLi6my0nLuONjFJy5Tjbz5dp9tLbd+1hw85segYG6eju0TXWG49Qc+M0f3jrYz59/zV+9cFK8nKO8+bWM5hdXoov7ODV9Yf47K0/UN7YRntXJ//6q7fYc3A7244cIhDysnv7ZopbhyfAutrEzasn+P7f/yNbss6y9/Nl5BXcIPf0ft7+eAXvfPgun2Wdo+r0Vr7eewVnMMDGPZs5faORYDT8HVg3VxTwwx//lL/+p9foHHandZMm3kQz2Z9/sB7RTHkc3qD20TZkMjNktuAPRzSTm2GLhWGrIz079/Gxotztze3HgZq8OPULcyb33lK+RoF1ZseEaERFs6hrREe40GDmf2+spN08O7/JmRxjLzpYiyzFrKLdrveTmGgIXH9xsZNtNwZwBqaOAJoOWMtYsPqjNJhDGlQn2lJPt0/FHlsiS/Y4JtdcL0qwDoTDlORl86vfv0HWgcO8/fobXL95k8+/+JJlG/fw2fK1lDR0knfqGAU13bR2dvPWis0YDJ2899FH7DpXyPGz2Rw9eZpVa79m/eFLtJRVs+z9D+nuquP373zMuvXreOl3r5FWUouAAAAgAElEQVTfOsjGDevYvHMPK5avpLy9i+ObV/Pl+h288/ofWH8wm2/Wr+Wb7Vks37SbAZeuBZYOKSrJ5+cv/Q6Dy0Nnbwd/eG8Zm3bs4JdvfklFTRW7tq/E6PEz1F3HFx+9iTfo4M0Pv2Tzli385vUPyc4+xR9//yqrt2zh7Q8+5WpFA3u3rWI4EuHkgW0s37CLzRvXc6PwIis372Dt2vXsPnRCA+ahgUH++NOfax8dTTezef/T5axbs5Jl289w9cwljpw8/R1Yi+lId3M5b731Dt9sy+KTjz7k6+2HOX/mBMvXbGTz5o1sOJxLW+lJjlwu1r7oqktyOZZfTzA6Qm3xVd75aDlbd2Wx7uvttPXUsPbABQrP7+T9L9axauUXLP96N7XVxfzuzU84fOw0xZcOsOZEITfzLvDOF+tY/83XbDp2lYayCxy9mE0g7OPkscNUd5sJhYNcuXiMS802bHY72fmVDDm8nNm6nZsV5Vw6toc1G7by/sdfsOlUPv01l3jv49UUNPZy4PRhrlR2EoqGuXjsKBVdBi6fPsCpazc5sO5Dzpe0pvXTzXRvsGTp5xWsoyOYrUaO7/ycYzlVtHa2s3zdNvZnbaOya5D6kkscO3mSnVkHKKrvTvvjQoG1AutkY1sdyyz8xctTgXXmZCvgJK7SWqwRAqN3GXAGeP9MO+cbLNq8qXi5L+S2Amu9z6W/xM1diyWsTRaUXxckzPzhiuEp4XoqsBatuMGtT5YcdEdm7DovcZzIR4DUVyZipnLHtyjBWhoiE/IGjabvFk8giMVu1/aHrA5tcprb48EdCOMLhTHZXZp21Wi1YnS4cXh8ODwyoc+J1e3D55dJg3b84TCiyZO8h0wWLZypzenU9oetdu3mc3tc+nmzBavLi8lq1faNDs9Ts0elTqIhFPiUOgyZJZ2ZQbMDOWdzOTRjfM1bhs2mpdPTWDBYHDi9XowWGwaTiSGrTMAMY3c6NCD2+LzacYPJrE2AHDabtTrY3boNkkxuNJrM2mQ+maRn1M6bsftCeGQiZIKnkGA0gslq0/KQOlpcPm2CoiZjkwWHL4R4DnFoE0NH8fp9OHz6ZE2pv56/CaPNgS8U1GTqlToaTQxbbdrkRJmYOWwya+W4vW6sngAyWVQ0qYMmC05/CF/Ah8MrmoMRHB4PXi2c7Ig2CdIVP1M7OoLT6dLk6PK4tXJErlaPH5mMOWy2aL8y2D0eXAH5eW8ElzZZM4zD5cITjCD9aPMEnjIpSrxJMrk/n2BtNQ1z7kI2J3Z+zq5DF2hoLqe4w4bd3s/uok4u7s9iwGClueIa16/mK7AemFtgnsoEJHZeaawzB1GZvHcXMq/5AmtfMERrRw+dw/p7SWuzfKCbjZTXd1DR2MVgnOJoMpks1siLxvEgMI7QLXzRO5qf5M0F/bjj3y1pmBlM1vZMnFNgPfEckBDoogEW7xvi57rb6uf9s+1klQ5OGkBmMrAWu23JUwDYmcTrx2z7UOrZYAohHmeSacEXLVjPtuHq+omBq2QxP7KYT7BuKC7h3Vde4eVf/JgPP/+Sm7UlFHU6cNh72VPUweXDuxkwmGgsvcL1y9cVWCuwTnsMqOfF/DwvYnKeH7AeobOzmV++uYr31uxj2OHRx0M4xNUzB/jrf/uYH762lgtN1rTGyWIDa/mlzezX3epZ/SOERsc432jn1weaFty1Xqyf49cKrJ++xwROxea63qRrrst6nfzrrjouNemKy3jZxbZTgbVolMWln9hvT2ULHctrJmuzL6rVV3xfJ16vwHoRfL0mdoraf/qmWyrymE+wll8sPP4ATXl7OZVbTs9gH9u372TX7t009JlprSlg986tbNu+j4b2wWdu/FQyVaYgc6vZVhrrpXlvp7pfMnF8PsBaftUszb9Kx5CVyuYGGoxO/ZkQCZGffYyVh65T2zGQNoQuJrD2RUa0n+UFpMTfsOxfaLRorvVKu8fbucje8wqsn30OxFzxyQRBkzfC6TqT5oavuEssFJ51c5cI1gLnjuAIHePeO2YS2GU697OUJ+YgMVv++GsVWC+yGy6+c9T2szffYpbJfIJ1TA4epwWzQ/x7RxgaGqR7YFjzNS5mOd29vfQPm6dlW6jAWoF1bGyp9fw8f+YDrMWc7/rFC9rk9ZbhQSoNMeAcwWa30tI9yL6TVzjTYEnrI3yxgLU8rwSkJFx5LNBHRZ+Tn+9vpLjHPW9mgNO9VxRYJ7+3xGZZoiDqEwTDZDea+fm+Bg6WD+HRzEYnrosHa4HcIU+EmuEQEvQlle3zdPtpqvTyMSD22/JRJyYtsfSLFqzFblnzbhAOa3bRYhutFiWDuR0DEc0OPnZzTHe9EGA93TpOlV6BtQLrqcaIOj/xAs2ELOYDrCVuQWNtOQeyCzl65hLdVhc3LpylorqRG5fzOHW5lDV7znOjx/UdHEzWtoUGa3lOibcHscvttIfxjIed7rb5NS3niRozY/fup9WWydo5V+cUWKe+hwSSxZxH/E2LHfP5Ris/zarnm+t92P0T3kIErAWg9dDkIS3ojGisZWyk029Sjvg377D4Kex0aGHuT9aY2Fdm4Fy9map+FwZXSJuHN1l+Et1b6iv5xdItSrCWSHv+YIhQOEwwFFKLksG8jIHw+LiTj7rYDTKdtQLruYXS2ATApbxWpiATL5/p3FvPc9r5AGuRn81h5+iZy2QXNeAOhmmsrKCjZ4COpnoOnMjlWmXbd3EappL3QoK12NCKL2ExGZBoeGJHKzAlHiU+y+5k1eUe7IEo9x88mNFzfKq2Z+K8AuupnwPiN1qP0hgir9PFO2c6WZ/Xx81el2aCYfSN0WWPaAA+4NZDk0/VN2JS0ucIcLbOzM7iQVbmdvPhuQ6+utKDTHLdUtCvrb/O6+Xz7E7ePtWqnZOJlC0mb9q//i5KsBYPD3fv3UP9KQnMtwSiIyNaKPepbtBk5xVYK7CeCvoVWE/9Qk12bz3Px+YLrDMpw4UAa4FnmaAoQC2LaKxjbRoYd9P23pl2hlwhYiHNY+cX21qBdfrPAdFCdzsjVAx4+exiFz/JamD55X5qh0PaB5Z4AEnWv6JBFo22nG8x+jhebUSA+Ye763jteAtrrvQgGmrRSvsTQpXLdWJ6Iu4aj1YOa5D9i/2N7CgaoNno1Wy+J9OML0qwjt4a48mTbzWmkv+3H8Lo/YVZHjyeQDup0tiDhamHtD+xLrcWSCa3HsDjJxNyeZ627t69q00KTHajTnVMgbUCawXW6b8wp7qfXpTzCqwnHzMCSBZ/VLOllrDSMkEx3oa2zezjswudbCscoN+hu4hVYD25TJfqvSW/VshkxnXXevn4Qhcb8/vIKjVox7qsfi0IUM2gW9s/VDHE5oI+7VeMj853sKmgHzlWPeDGHoikbTIispIJseV9LnYVD/LO6TaWXeqiqMvxDJDH5LrowfrOQzBHJl8Gg9DrnzzNVHmkOm+NwsMnIIDvvw3D4cnLGQpB3xzUxRQG9y34Vv/eIHwX5FiqesvxHh8YQpOnmez6VOeMYfBKXZ4noh5viwLrUeTlNRUgqvMz+4hQGuvn84Ufe6HOZK3AOvmYEHiWCYkSQKTOGNLMPiQqcEzGcn7YHeKNk62syOnWNJOxcwqsJ+QUk8nzshZNsTccpXLAp/W7uOX7SVY9Lx9q4lcHmvjZ3gZt/4e76zUzDrGVNnnDGgTH20FPVx5SrthTy8fbN3m9mt33yRpjUhvsRQ/WwTvgHAVZp1ocI2AMpT6f6rp0jgtcisZctNUC2QLXk13nuaUD72RpZnpONNQCs7LYopPXQ8oYDk0tu5nURWQgshj/UeG5wmsF1gqs5/KjQYH18/vCn+6LOpZegfXEmBB4EZtpCcAhkxLF24L4N3YmTEpzBiNcbbXxm8NNrL7cg9EzERFZ5KrAekKmsXH2vK1l8qKYcEhgOZnU2GcPaB9ash9bEk08MiUDsdUWzbiYloimPDFfBdaTALtAp2URgfVYHFgL2E4FxQqsp8/8CqwVWCuwfv5fyokvwoXcV2A9qnlUEHgWMw/xCyw21LKtTUyM87Yg4C0aw+1FA9pP8nltNmxxniJi/ajA+vm/h+Pd7cX6fb7XAvCixU4s94UHa9G+Bu5A4DZ4x8A3pu/HoHVewTpOG+4fe1Y7Pp9gHdPMy1pkEi8XpbFO/tBSNtYzM4+YS5BdbHkrjXXyeyfxxfQi7b/IYC0/zXsjuveHquGg5l7NHnwWVGQ8iPaxdtDDSweb+MPRZkwJWur4MaPA+vm/zxYDWMePufjtJQXWAr+2ADiiYB2ZAOBEUxBJZ43oZhCyLeljphOuEbCFwTGq2wmfGoL2ABR3wIFmyOmAQvNE3qnA2jdufuIZBWMA/OOa70RTEN8tMIfBdUvXMEu9pGwBdwF5SxjsIyD1auoFi5ibjMHeKrhofFornQqs/bfAGgJ7FOzj5Uj+iRpryVfKk3I1GY3XS0BZk+m4HbdnBI4bwByFKjNc7oVdddDo1eujwDr5Q0uBtQLrqUBegXXyeyf+pfSibb9oYC1BNWQSmsET0cw9RDst5h4SIlomicX3v2gDLb6w5lNYJqzJxLG9pQb6nfokxfi08dsKrJ//+0yB9fgv8vEDf7LteK8gAojf2VjfhoJO+DAPbgxPQOdTYH0b6vrgnWw43AqtBvgyF9YU6hMP99+E1ddgRSnU9MEPTsE3DfBWITQFoNMA7+bq8CllpwLrwC0o7IS91dDkngDxp8D6tp7mzWzY1wAmJyzLhS+KoDMAx9phxVXYXA4FPfCjQ7CxDgJjcLYL9g9OtFHqkgqsg2OQVQmfXIeewMQ18WAtUJ3TqLetyAiNFvjgIhyoh14HrL4Oy6/CnmYob4G/PwM5Q/oHiZidfFEAJ/oVWE82bhVYK7BWYP38v9AnewbM5NyLAtYC1BLMo9EcotYYotOmu8wTyI738hGToUB2QaeDH+2uR1ydXWyyaGYgqdyrxa6TtQLr5/8+VGCdIbAWLWtpB7x0DvKGJmA2HqwNAfioCBqduqb481IotMHlNnijGFZch2o7HCmHWjN83QhNPni7Eoyi+bXBWxenBmvfKJxvgU+uQZ1zwmwjHqwtHthVBn0+6LDCqwehygQFzXCiEbZ16dru2n4YdMKhQnCO6PBaYoKDhglIngysNQ13CbySA93+iWviwdodhO0N0O8DYxAu10CLBzYUwZoKeCMP+lywrBDaHLCuRddYi8zrDLCnHkzjdt1KY538oaXAWoG1Auvk90Y89Kjtp2X0vIK1wLIE+TB6o1rIcZmIKNppgetY+PH4sSDpzZ6w5sZszdUefnWgkbdPtXGj06EBdTL4jr8+fluB9dNjLF42z8u2AusMgbWYPDSZoNMJLY4JmI0H62E/fHgd6jy6tlkg+7qYM3TA2+Ww+gZ0+iGnDhpssPnftbP1XlhxAy4MQVE3LC8F37i9cyqNtSsIxf0wFIC8YfCM6UAbD9ZWH2RVgLjg67XDm0egwQ7X6uFgA+wz6B8HnWYweuB48YTJSsEQ7O3XbZsFqicDa28U6i06vHf5koO1Kwzf1EK/uN8L6WDd5oX1xbC+Bt4tAHcYviqGdjesb4XhKLRaYFsl1Dsm6qLAOvlDS4G1AmsF1snvjeflZT4X7XhewFrAV4B50B3RIuaJVw8BaXGX1+eKYNFMPSbGh2ieLd4wDUMejlQOaz6Jxd+wRE8Un9THqoyax4WZuEhTYD0h57kYs4shTwXWGQLrGGAmruPBWkw0irrgeBtUGKG8Gw42QV4X9AYgv0/XvDabwBCEgmG4YYE+Cxys1wG8N851XyqwTqxDbD8erMWk4+YAXOmGnE7oHYaCbthfDw0eqPDoEGz265rq8g6oMOn2z+XDcHlAtxWP5Z3SFCSFZ5N4jbVMPjzeBFd7odYOdXbI7oDL3dDvhexeEC18fj8Yo3CuDxrdUGOE6wPQbtd/AZC6KLBO/tBSYK3AWoF18ntjMbyIF2sdFhqsg9ERApHk3g1SySw+8qJExut3R+iwRzQTj5jNtGHcq4eYdIj3hE6Ln0tNFvbdNLCrZJBVl7t56VAT/7KzVofpG/0UddnxhCciKqYqf6rjCqyf//tQgfU8gnUMQjO1ng1YZ6oOsXxmA9axPDKxVmCd/KGlwFqBtQLr5PfGVCD0Ip9fSLAORiO01VVy+Hwhp280YE7iui5Z3ySC9YA7goC0uMyLN9kQTx4XGs18dK6DT7M7tcAae0oGNbg+UW3kZo+TfkdACx+drJyZHlNg/fzfhwqsFVhP6XM6HeBVYD0+kOZwpfxYKz/WU8HxbM4rryDP/wt/ujC4kGDt8flZs2In5yt72HXsOhda7UTHxqZcRm7f5vbde9+lkzZEklwXvnWLPkeQbltAg25/dBQ5FvlumbqsdOqTmObWnbs8ePjwu/olnl/o/dHbt7lz7/6ird9Cyyed8hdz/0r9Bfwna4fcM9N5VvxJKu5JN5N4ryDRe3qUP/EMkmqR0N4DgdTnU12XznHxiHHvkR5KXNKLq7zJrpP0YmIyWZqZnovcnYi8KOHNp8qnP6CHM58q3XTPx2SgIi8+DQlKY6001lNBtwLrp++ZdN8Jz3O6hQRrh8fH71ceo9UaJPvkdbaXDPLw0eMpl0ePHvP4yZMp06WT11ykefT4CU++/XYR129xy28u+iTTeS7m/n34+DFPprg/Hjx8hLBuus+2jIK1wNvofRCoTLWE74Isqc7P5vjdhzrMysfCwycgoD9ZfnNWl3tw99HEJ4vUJTJFXUJzJBeRwYPHE3V5nraUxlpprKeC49mcV2CtwDrxRbqQYO31B9iy4RB7s8tYk5VLTqsNCW4x1SJAMHbn7pTppspnrs6P3r7D/YcPF239RJMpGv+5av+LkO/9B4u3f+Wevnv//pT9m/gsmGw/o2D9PEGbasvil4ACawXWswHnqa5VYK3AOvHluZBgHRoZwWkbZsvWfRzIqdCiGybWL9l+vI11svMLfUxsrBezDa7ITz5MFlpOS7n8xdy/8mFz5/79jPZvRsH6229BtNaTLY+fgCyTpZnpuUdPJjTW6ZYzV3V5/O0EmKbTHq2+U8gunXySpYmvy0Stlv6WAmsF1lPB8WzOK7BWYJ0IMwsL1np/iFcQ8Q6SWLdU++GRUQQOU51f6OMCNtP5mX2+67vY5Tff8phJeaL1n8l183VNpsdfRsFazEAkBHfMxCLZWuyNxbY52bnZHhOvIPfjbKynqov4v5bw6bMtN/F6MeuQCY7yoSF8LeWE7kxejoRHF//aiXnNdl+8gohdttTleftTYK3AejbgPNW1CqwVWCe+2BcDWCfWSe2rcarGwOIaAxkFa4FJgbjJvGbE+7GeLN1Mzi0md3u37k9MXpQPianaE+/Heqq00zmv3O0lv+HU5EU1eVGBdfJ7Q72kU8tFgXVq2ahxo2SjxoA+BhRYh6eG3umAbCytcrc39/pxpbFWGuup4Hg25+dKYy1R7PodQXrtAbXMgQzM3vCc/eyswFrBo4JHNQamGgNLCqxF+yrgGrgNbnGnNzIRzlyOT6axDoxHPJRrY/AbH3kxdizddXw+sm2PPl2X+QTrmFwkYqNox8W8JRbmXWmskz8ElMZaaayngu65Aut6g4e/3VTFf1x1Uy1zIIMVud0KrEeSP/emAgJ1XslNjYHZj4E5A2v/LRi0gmcUugMToDcbU5B8BwxHoaIDjrXC4QbY36mH7Z4MrB1eKDfpociLBsE9psP1TMFaQLp7cALQu83waQ40+ieOpQJrTwiMHnBFoCs4kX42piB5Dt0+u7wPvq6Ec71gHNHzVmCd/CZRYK3AeqHAus7g5n9vrORPV5SqZQ5ksCxHgbWCo+TPfSUXJZf5GANzB9ZjkNMBB2vhet8E/MaDtX8MuqywtwryDNDtgtN1sL8RBoJwsQEOlMPxVmgdhp9mw5YW6LJBuxeym2F17QS0p9JYu0OQLfXohnMD+gRLAfF4sBZYljK2lEGpCQbdsLcSzrTrdblphR1VcKIVSgfgF0dhRwv4onCsDJZlQ61vApRTgbVvBA42wsEKaHRNpI8Ha6lLoxG2VkKbBwwOyKqAiz3Q7YRDVZBVBpf7oaoT/vkiXDVCdjfkDEKfb0ImCqyTP0gUWCuwXiiwbjZ6+dm+Rv5ua61a5kAGmwr6lcZaaaznbAzMB5ipMpK/t5eKXOYMrANj0D0MXxdDrRP846YY8WA9/O8a3nfyoDcCYqrxbhFUeCCvF14vgVXXocMLZyugwQpbWqE9qJuB9HhhXRGc6pmA9lRg7YnApQ744CrUOyagMx6srT44VgWe2+AKwiv7odMDlS2wtw529uqa7mYDDLnhRCl4RuDcTTjbDh9dgCuWibqkBOtRKGyFLVXQH2ffHQ/W7jCsbwDnbfCNQkEtGKKwrgTWVsG718ARhBU3oMMFGzvAfgtMQeh2wIfXodShNNaT3YQKrBVYLxRY2wMjVBhClPQH1TIHMuiwKRvryZ596tzShjbVf4u//+YMrAUIe4bBHILWOA1qPFgLCH5aAFf7odUJKwrhRA+cboAV1bD6BnT6IacOGmywsQnyLXC5CU51QXYNfFkyAcqpwNrqhjITDAegsB+ct3TojAdrux9234QqExT1wpcn4XovHKvQtdT7DDr8d5rB6IMjBdBog7IBPc/3zsJF40RdUoG1QHu/XYfglkByjbWA9VflUG2GNhfk1MONYVh7A3bWwbsFoKUphnYPrKiHVq+uya81wRfFUGJXYD3ZA0iBtQLrBQPr4AiVQyGmKl+dn9kYVWC9+MFjsmezOqf6b6mPgTkD61STAOPBOngbeq2w8hqc7gSDE3YWwbYKfTLgiSYYCEN5D3R54XIH7GsBkxd2l8L6Mt3mOlZWKrCOnU9cx4O11KV2AD69Aue7dY3w+nzYWQ9DEbhs08F60AW2EchphJ2NOrwGRuFsLXTE2UynAuvEOsT24zXWYgpS0wdf5EGlFXqdsDoPzouM3LCzAbxigtKsy2dHJeQbobYfPrsCBfIRMD5JU5mCJH9IzSdYB6NRPP4ALp8fTzCMBHiQbVkk0EMgEsHt8+P2BwhMI/BDcER5BZlL+JyryYt2BdZz+lGhwDr5M2+pw4qqv+rXpTIGFhasx81DYnA52/WswDrDdZkNWM9WDvHXK7BO/jCaT7D2eKwUX7tK9tljHD6ZS2tHNzv2HuPs6WM0D5pory8h58oVTpzNpqZzKG3bQAXWM9NopgvjCqznVr7p9sN00ymwTv7MWypQouqp+m+pjwEF1nF2zvFAOtttBdbKj3Xs4SAaa18ghHWwlr1Zx6iuq6Cw3YrN1sfuwg5yDuymb8BEc/kV8q9eV2A9sDiAToH14ugHBdYKtGLPUrVWY2EpjIGMgvXIfd2PskN8TKdYjGHo96c+n+q6dI6bwnAvLqS5dWTyciSM+EBg8jTplJssjWiKYyHNJVS5PYU8Ytf2+UHqH9vP1Fp8WttHFk9I8wd3otTVNuMOhDEP9dPdP8y3M4y3vmQCxERHGOzvIPdGEQMWJ23tNdzsdeNyDbKrsJNL+/cwOGSlpewa+ZevE46OpLWEoiO028Jz+rP6dKHmeUqvgXU4mlZfpNtnks4RiCob6zn8eOq0hafVZ9N5UasAMQrspjNeVNoXc7xkFKwffzs+KXBM96ssQJm4uG+B69azxxPTzWR/dDyMuOhK7z8CCZgyVT7zUZcHj9Orh8hmqvpO97zI4O6judcep1/Ct3hsJhpqKqhp7ubWnQfPXPrw4UN6enqor6/Xlt7eXh49erYRSwWsnfZhNq9dyWcr1nL67DmaWxr4euN2du3aRnmHgfribHbv3MrmjTuoqO9SGus5hK7pgL/SWCuNdSIYLUWwDo/eIjo2lvZzJbHNc70vMh27c3fR1k/kNzJ2e9HWb677JxP531rU/TvKrdt3Mtq/GQXrZwhJHVASSJTAt99i7O+murqKmrpWImP3ElPw5MkTjEYjZ86cITs7G6vV+kwaObBUwNrjtnEj7wpnz5+noKgIj9dDS10512/W4QlF8fh85Odfp6yuGX80/S98ZWM9t+CnwHpu5Tudj5zppFU21k8/QyKjt9ICB1cwSpPROyvACEZHGXaHaBz2MOAMMuwJ0WryIcdTAZpA6/0HD7Tzcq07FOVmj5MBRxC7P0JZr4uyXqeWX0Wfi/wOO0PuIPL8u9Fpx+AK0u8I0GX1c6rWyI1OB8XdDi42WbjUZOFo5TBn6kxklRo4XmVkZ/GgtpysMXGwYpjDFcOcqzNzoHyIc/VmagbdXG6xcrzayIkaIxX9bnJabJT2OLR6lHQ7MHpCWrm9tgCFXQ7tuoYhDy0mr/ZML+x08HVeHxuu97H1xgAb8vtYd62Xb673sa1wgE35fewsHuBmr5Memx/J83StibP1Zo5UDnOoYpiD5UPa9bIWWVq8YfLb7TgCkZSyNHvDmuyyGy1syOvT8hS5HCwf5nq7XctbZDnoDHKq1sTRqmFNPoOuoFb32OR5b3iE2kGPtki9tDzKhrS8+xwBrXxJ02uXCfh638q+9F+yfr433r/x56T/pFw51msP4AuPPHOtyNnqj1Da48ToDVPe69JkL9cYPWHaLT6tj6+12ogvv6rfhdUX1tK2m/XxZ/GFKeiwP1OGfDjdvX//mePxdZ3udkbBWn7RH7k34UJutnbK071ezEBif4+fQOTuwtQldAfuPozVBKQucmy67clE+vBdePRkoi4LvfXk/hgO8zAjY3eJhjxYra6kpiBiHmKz2XC5XBpoJ6v3UgHr6d6U6aZXYD234KfAem7lOx1Ynk5aBdZPQ2y6YC2AuqfEMCvA8EdGqOp3awApECyAearGpHk/SvVciwdrSS9w9ll2J/VDHnrsAT4618FXV3oo6nLwaXYn75xup87g0TwovXWyjZoBNyXdTk7WGPlpVj1fXuzS0v/xWAs/29vAj/bU8b++qeR/fj71gnkAACAASURBVFPJP+2o5c9X3+S/rivnbzdVacf/27oK/nlHLX/1dQX/tKOG1Ze7+a9ry7XoqP+4o1YD5H/cXsuK3G6tLm+eaKWy36UtFX1OPjjbwf/dXM36vF6OVRk1oHv3dBt/trKU/7CylP+46iZ/vuomf7aiVDsm+7L89/UVbMzvp7LPxcrcbv5tbwP/d3MVf7m2nP9vbblWx/+w8ibf31ajAWGryYvkG4PRZPJsGvby8fkOfn2wif+0ukzLUz4+JI9Vl7u1dm7M76O8z8X/21Kttfk/f1WmQbfAvPSf5CvwLh8A8lHy8sEmDV5Fhmuv9nJjHE6dwSgCsOLZSq4RqJePjGT1SgbWUlZui1VLf6bWhNX37AdDh8WPgPyKnG6kbbuKB+m0+LVr5KNE5P2vu+q09gpIyxiR8qXu8sFSa/BobZCyOq1+rf8S67fowXrsAYjdstg2p1qGgiD2xKnOz+a4OQJidvEt41EVI5OXY4xAX2DyNDOpj8hAzDpipsMS/GYqufT6QVzuzaS8ya4RTyli7hKrSzJAnddjUpG4ynz7ZObUr8BaudubDnBNN60CawXWiS/hxWQKEjNREDCdbBm9fYfbd+9NmkauH3ZH2FVsmDLdZGWFRseoGfSw/lovVQMeCrucnKw1Eb01ljJfMQN58PCRdv5GpxOTN8LH5ztpMvroc4Z470w7qy73UNzt5KPzHbx1qo2GIS/hW2O8fqKVOoOXm70ujleb+NGeej6/2MXqyz28crSFn+yp51931WuQKiD7/W21GtwKvP6vDZX81foK/uKrcr63rUaD2e9trWF5breW5n98LelrWJ/Xx//bUsPynG6tLq8ea6FqwE31gFtr47tn2vnrDZWsuSpgbcIZHOHNk2386YrS7xYB6fh9gW6BewHr6gGPVuaP99RrdRII/0+rb/IXX5Vp1/z91hpELu0WP/IhMewJp5Rls9HH+2c7+OX+Rg2sf5rVoMlN2rf6Sg/ygaDBfL+bv9lYxV+uKdfKyGu3a1pt6T/pX094VNO0S3te0sDaqslqzZVerU+1NJFRagwe5J6QfZs/qp2LJhmPsf6NHzvh0TFymm1I+lO1ZhzBkafaJcd77EEMrjDLcrppNvm18SnH5FxZr5ujVUbk4+fn+xq1uStFXU4tj22Fg/Q7Q9QPeTlSaUTK6rEFtY+g+DrEtuUXk9h2srWM3/A0oplmVGMtGlbn6OSa2af8WGdYi6vc7T0re+Vu72ntTexFOZ/u9mJlZnqtNNZzC34KrOdWvtP90Ek3/YuisZaXvdiuTrWM3b2n/dQ9VTqTN8qe0qEp85ssn+jYHeqGfHx9vY+aQS/F3S5O11kQuE913Z1793n46JF2vqjbhcUf5ZMLnbSYAgy6Ihoorr7SS0mPSwPut0+10WT0I2W9caKNhmEf5X0eTtaYETj94mI3X13p5ZVjrfwkq54f7q7TIFYg+h+213wH1gLDAtv/5atyDaBFSywAuiK3ZwKst9fyzfV+/k7AOrdHq8urx1q1tkn7ZHnvTIcG1muv9Wlw7w7f4q1T7U+BdCqw3lQwQK3Bx8rcHn6S1TAO1mXPgHVhl4tOa5C3T7Uj/ZRKlq3mAB+c6+CXB3SN9U/3NlDS49baJTIRsJYyqwe9/M2mCbDO73RyqMKoAavk7YveYlvRICdqzLx0qEkzhRH5SRulTyWNPzqm9XWsbx3B0e/OJdYv1r/xx6X/LrfatbxkjLhCt55pV58jxLAnwvKcHtrMAW189jnCWrryfg/Hq8380446DaxdoVFtjEgZ24sM2thpNPo4WmXSxopc9+G5zmfKGLsrH3YPnzkeX1dpo3zIpvsOV2Ct3O3Nq8I6k4UpjbXSWKcLWzNJp8BagXXii3QxaawT65ZqP11TEPkpP6fJkjY8JCtPbHTbzD7NplnsjcXuWGyiY3a4ya4RDWHMxrre4NFsiXeXDCKmD2JbLNtid1w76GbvzUG2Fw3QYfERiI5qtsptJh+Nw16tHDEhkfQHyoY0s4UvLnbxwdl2XjvRwm8PN2vbvzzQyG8PNyGALlrtPxxt5pMLHYjpiKwPlQ9pmvA3TrRq6cXc4OMLXRyqGGJPySDbCvuRMmPt21E0wPtn2zVTlLw2G04xo7jRr5mdiOmJwL6YK3xvazX/sL2WH2fV8y+7avm3rHpOVBtpNnrZX2ZA6ir5/P5IM68ca9bq+y87a7W6SNvFDlnKNnuT2zGLbLttfq2OX1zs5Ie76/nyUpdmmvPWqVb2lRn4UKunSStTk8vxFn5zqEnTvl9ttX5nCiJ27mJbndNs0fIQs4tXj7d81w9Sltjkiy19rG/FfET6O1kfJzMFkbEiJjWSvrjLgTP4rCmImIGIPbj0Z7fVz/kGM3123cZb5CY259Lna672aHKPlS829XKdmJJcb7dpZkMylnYVDzxTv0VvCjLXGmv3GIgGVsrxjz2rHZ9PjXVgbKIeXvHmMb7E7KLn04+1yEXMTaQO8ouA/Gog+5qcbusuEJ+Ifcxz9qfAWoH1TIA53WsUWCuwToSE5xms5RewmI1tYrunsy+gJfkIOMmSbFJafH7xYC2wLNcL2PnG85BJad5wVMtT1p5wVINqyUPSBSKjBCIj2nmBO1coqh0XwJXF5o9oNsNig2sPRDQbaJsvrB2z+cPaBEmBRDkna8lf8pW8ZJF6BEdua3WQ8n3j5Wtti+hpXaGI1k497ag2gXHIFWLIHcLkCTPsDmqgZ3CFMHn142JLLpPXRVZaeUG9/Fi5UjdJI5PupKyYXKSf4uUXvy32zlJHmfQp1wqsivzFflnaJnl7Qnq/uIIR7by0W2/LxORBKUvqJvUS+UkdJc/YtVKmlBXft1Iv6b/4+sS2k4G1nJNytfW4bXcsfWwd61e93FGtb/zj18TGmdZnoaiWjxyTa/UxosssNqalLGlPLO/YekmBtYCn0QPmsB52PAZ6iaYgkm4ooNsgSxhucxCMIT0kt02u9YPYTrtHYG8PNHj0c00WuND7tOlDKrD2RWDQBy7xW+0F/zh0PhXS/A54R2HAp4csFyj9rl53dDvlwXFf07YIlLXCQBBsQRhwQ0Er5A9M5J0KrP23YNgHpiBY4sxm4kOaS9k+qYtfL1c+Iob8eph32baEwBDzBR6G3T0wFIZrBjjXA5troMWvwDp24yRbK1OQpQlN6UJxJtIpsF6aY+RFMQVJ9lxLdixdjXWya+fjWDxYz0d50y1DPqbEnGa616n0E5CdCqwXg4yWFFgLHN7ohJfPQ/7QBADHg7VAdVEb/P407G+Cqi54+zx8cQ16fLClAL64DO/nQUU3/OAEbGiAIQd8cg621IEtDk5TgXXwNlzvgK8KodU3UZd4sJa65DTCH87CtiroN8HH2fDmVR3mdzbCF7mwvhgKuuAHB2BTnZ6X2QWvZ0OtdyLvVGAtddlRCn+4BH3BifTxYC2+pw9XwOsX4foQVA7Ba2dhSwW0W+D9S/CZ1KUaSpvh709DjgFO9cC5XviiGKo8et7Kxnri5o6/iRVYL01oygQwp5uHAuulOUYUWD/9zFNg/bQ84t8D6WwrsJ6d/ETGCqzHzQXSGXCSRiZQPBm3MxCYjk1eFO1zYTu8mQN5gxOmCfFgLRrgD4uhy6dHB/ykFCrdkNcBvyuAFflQ74KTlVBngQ1Nuib2s3w43gsFkv818I6bZaQCa+8InG2CdcVQagHfuDlJPFibPLCzDEwh6HPAy3uhzgbl7XCiAXb2gmjQGwfB4IQjReAeh/qqIcg2TGirRQ6pwFo01nvL4P2r0B4H+fFg7Q5CVrMeidEahsvV0BOETUWw7Ca8dR2GvbCiCNqdsL4NpO2XWuBSN6y8CheHdZkrsE7+UFBgvTShKV0ozkQ6BdZLc4wosH76mafA+ml5pMs2sXQKrGcnP5GjAusMgbWYLHTZdZOFbs+EbXQ8WJsC8NE1KLWDuOH7pFAH1Ox2+KQaVt+ATj/k1EGDDTa3QJUbVuTBkR4oaIPPiidAORVYu8JQZQRrRAdrbxKwtvlhX4WuKRet8EcnoMYM5yvhQCPsM+ig2mnWTVyOFekmK6JdziqH/jjt82RgLZDf4YRBt+7qT9LKEg/WrgisroQOn26OcrkOah3wVTFsrYd3C8Ad1vfb3bC2BfoDcEW0/jZYmwd7OhVYxx6MydYKrJcmNGUCmNPNQ4H10hwjCqyfBiEF1k/LI9n7YLJjCqxnJz+RrQLrDIF1DBgT1/FgHRyD+mG40g+NNmgZhks9uumD+JgWsLWNQI9Dt9WusUG1E/rt8O8edSgdgL44rx6pwDqxDrH9eI21mGg0WqDUAEUDMOwA0UT/u695uoLQPG6zbAvpPqqbDdBo18Oml1j0UOSxfGWdSmMdnyZ+Ox6s5aMkrxduDkGrGzo8UDgA5cO6bXaJCUTzXW0B6yjcMEKHH1pdet2v9IJxRJmCTPawVGC9NKEpXSjORDoF1ktzjCiwfhqEFFg/LY/J3gvJzimwnp38FFjHeY1INsCSHUtlChIPjfHbT4G18mP9XTTGeLCOl9dst5UpSPKHggLrpQlNmQDmdPNQYL00x4gC66efeQqsn5ZHMo6Z7JgC69nJT2SrNNbzqbFWYK3AOu5jbrqbyt2ecreXLiTPJJ0CawXWicAlkPUkLnLsdJ5Z9x8+XBDPEgqsZweGCqxnJz8F1nFPicQHSqr9eI316H3dZ7KYb6RaRDMr9sCpzs/2+P1HesRszxjYopOXI278BuagLvYRCN/VQ6uL+2iZXCnHJmubhHk3hidPM9n1k51bVCHN48bYbDcVWCuwngkwp3uNAmsF1onvPQXWs4esRJkqd3uZl2mijBd6X2msx2kn3Y6IB2v5kL/zEG49mGS5D7dkmSzNDM89eKzDrDTh8RO4nU4+c1CXsQcgdYn9Pf4W5NikbZ6Dekh5IoNHT2I1eb7WCqwVWKcLyTNJp8BagXXie1CBdeYhUIF15mWaOG4Xel+B9Th7pdsR8WAdwzbR0i7EEis/fr0Q9UgsM74+se3ENPO9H6vHUl4rsFZgPRNgTvcaBdYKrBPfgwqsMw+BCqwzL9PEcbvQ+wqsx0kr3Y6IB2vRjIr7OfFlnWrRTCKiqc+nui6d4yP3dTMQacK9R7r3jsmuk4mUYkIxWZpMnHON6trqmGneyD2QY5PlPZdyEtMQ+WVhqf8psFZgnS4kzySdAmsF1onvQQXWmYdABdaZl2niuF3ofQXW47SVbkfEg3XoLjhGdZ/V4o0i2SIgK3bWyc7N9pjYTAswSrwaa1S3bZ4sTwFMsWueLE2mznX74P64eUj03tRlSlvmSk7SptsKrDP2XXH73sKEuw2OKLCeCTCne40CawXWie9BBdaZh0AF1pmXaeK4Xeh9BdazAGtxDSda2MlcxL0o7vYSZSDRJWNgLZM8E88n7otPboH+xOOZ2lca63sKrAeWJjilC8azTafAemmOD+Vu72lQU15BnpbHdCFTPqbG7i6M8mS6dV2s6RVYK7CeE5hVYJ0xjv0uI2UKojTWs4Xnya5XYK3AOhFUlMZ6dpCaKE/ZVxrrzMs0mZwX8pgC6wyCtUQQDNzW7a5jmtbZaKwlFHngDvjEhCMIvX4Qc45Y3qkiL0odJMqirN2yHvef/VTkxWn61Ja2xco1h8E0HunQOQJdHjAEdXOPWJpUYC35iDu+2DqWPlFjLXWPnZvJWsw/4q9TGmulsZ4MKtW5IAqsFVgnwogC68xDoALrzMs0cdwu9L4C6wyBtYTcvtkPpYN6KO4Y2CUDawFcgUsJK+69pUOwQKBMhIydE/C8YILeEFyphz0tkNsK22vBNw6NqcDaGYTLbdDphHMDE+HHE8FaA+/Rifw8o+P1uqNDskC51FPq2NClQ7orCJ8Vwf5BfULi4XY9RPuxdqh0TcBsKrDud0JBP9yUUOqmifTxYC1t73CCfVT/OIjJRPvIGP9oEPlKvcQUR+QW+4iQ464QlDsm2iWyVWCtwFrB8+TgqMB6cvks1vGjTEGeBjVlCvK0PKYLmcoUZHbyE3krsM4QWAu81XXB3x2BG+YJYIwHa9E81xtgWzlcHYQGKxyugu010O6F45WwpxT21UHjIPz4HGxshjW5sLYZGvrgtxcn4DcVWAuw53bCL0/DQHCiLvFgLfDa0A8bSqFoGDossLMMjjRChxfyjLC5Ag42QlEf/PgwbGkGXxjO9cJBA9gicKgX/Hcgrx021E+UlQqsfaPwdaWe91BkIn08WPfb4N1s2N8FxgAcqoaDDWCJwuFu2FcPBT2wqxx+ehEu9UNZH3xTDoWDcKkWfnIBSu163RRYj6JCmi9NaJpPmFNgvTTHiALrp0FIgfXT8lBgPTt5TFd+Cqy/s14l7dCr8V5BBNhikxcDY1DSDTuroNg0YX4RD9YGP7ydD4ZxM4p3i6DWDwW98PtCWHUdOn1wvkqH7i1t0BECgx3W3oBfn4NDfRMmF6nA2hOFmz1wuQNq7ROa23iwtnjgcKV+TjTcL2dBpxfq2mF/Lezu08+1DsGwG06WTkBwiUkHa0cYzvfrbS1qh2+qJtKkAmurH670Qk4vNLsn0seDdeAWVPXrsrUEoM0FxVV6BMt36kDMT05Vw/oa2NEM9Wb4PBd6fVDSDEMWyDVM5K3AWoH1fALqUi1LgbUC60SIUKYgmYcyZQqSeZkmjtuF3lca6wxprMUUwRXRtcnOOLvmeLC2hmBlIZxogyozfF0Me5rhcDVsaYSvbkCnH3LqoMEOGxvg4pBu6lA7AEeaJsw6BBZTgbVoxgU+RSttj0xobePB2hGEvWVwtQdyO2DjRbjQCrtK4Ewn7DPowNxpBqMfDhdApVk3uTjZBmsbod8Hu+qg2AAHa6EgTlOfCqy9o7pJidQl9lESa0vMK4h8pFxrhxoXVHfDyUY4mA+9Qfi4DeT81TrYWgPZbVA8ADuK4XIn5LbBsB221EF/eOIDR5mCKFOQpQq881VvBdYKrBOBRIF15iFQgXXmZZo4bhd6X4F1hsBa4DDZEg/Wcl60v9tvwuU+MPngRDUcbtTtlXM6YTgCdQbo90NxP5zu0icv1g2CMc50Igaj4p855sc6ZtedrB5yLB6sZb/VBN8Uw3Wxl47AnnI40QGWESh06VA67NEB+EYnHOvQPxyW34S3C+CmBQac8HUpnB0/Fys7FVjHzieun9JY34Yb/XBhALqcOry3D4N1BE6bwRmGTUVQZYfLTXCsDXocsKkMrvWDPQobK3Qwj03cVGCtwHq+AHWplqPAWoF1IpAosM48BCqwzrxME8ftQu8rsJ5nsE4Eytnsp9JYp8ozEaxTpcvE8dmA9VTliya+267D9w0DDKfh/1qBtQLrpQq881VvBdYKrBOBZKmDtT+qQ5wvMkowOoonPIIEmkpsZ/y+P/L/s/fe4XEc6b3u/eve43O8to+v0zm2z70+x3ttr+21N9her1byes/uSvImrbQrUVQiJVFiAnMmQIo5AiACiZxzzmEQBnGQ4yAOMmYwM5gMkKJISRTf+9SAA4JcJkQOqcLz1NM93VXV1b/6uvD2119XT2OyT2G0TTmXM79nyoj1SfsUetsUeutMXWbHNCKJOsRS7BN5RHmRx5nPcaucdQrr9BWmr17H5JhytkfkE/knbuUVdYjfoq2u8q594rdYf5T0KHkN1pl2uuoTbTfaL2O/ctV5bNEG57FtM+1xrj/i8V11upaiPS7tXNvuXrrOW2w3O6acfSb6YkaTmT4UOrv6Z255V5+4tom2u9rv2iaWc3UR6648Yin6wpXXaBf9P+3cJmzH1cdzbeVe68LWrl7/dNbGXP0r6hf1uMqIusU2l32Jcq5j370U5zZ3m2j3vc7XdT7CxoWWIrnOw3Vc2/RlPrl+fbYdru2LWf4fc8Kq71h91ErvF2N9Pxi822N9v3wL2f5lBWuXViL8xuWRdm2731KCtQTrlQLUJ/U4EqwlWN/9f/BJBmsBFxqD3QkuXTq7E6gaR2xO2Lj7PF2/RZl+g4M+vYOWURt9ertzfcDocIKIWIq6agetVA1YnbA1bp5i1DTl3D9qnkI1ZEWts9M8aqN6wErNoNUJUN0TdmoGrPTpp+jUOhgyOqgfttE0akOttVPWZ6FCY3XW1aW10zhso7zPQnm/xblPLMv7rM51kVek0jlLsT43Kfutd/y+u0xZvwXVoBXx8qtrn2ivashGu26aSs3MuqhTnGv9sNXZFrE+9ziPui7OrWfCTrVm5hxEOddxXXV06xzUDtmc9Q+bHE6YHJp0IDTu1dtn+65fb6d1bEYfVx1CZ9FmV11ObUdm6nIdS2go2iHKiPXKfiv1QzO/RZ8KLVx528ftDBodzn7UWacYMc3YgMtW7rUU4Czswzx9+wM7op7OW/0pQFqUE5Au7KxhxIY4P7Euzs957H4Lou9EG13nIvrFtS6Wwi7E+YpzcZbps1A3JH5bnPYnIL1bZ6fj1rFF/a72uj1Yiy8KjtpBfLb8fmnIDhrr/fffr9yjbBefARdfN7x5c2Z+awHaDyonZtUQ3t0H5VmKfeLz6mI2ks++mLl3MVyZ+eT6g+oW7VouncYcYPvkjvuoJ/LH0/KBGIvDwaTVyqTVhsUxM9C4LvoHLcU/PTGYPqng6u7tlmAtwfru68+dwFoAgQijeFia/vgqH39yDceVjxmcnPEQ90w4mHRcpnHEjmXqyn3rEGUGjFNoDFO0jNnpN0yhMU4xNDnlrE8suyccs2Btv/wxE7bLjFtmPvyitVx2gqnII8oLCBVQZHJcpkfvcK73G6bp1AlQm3aCdfOonS6dwwlIApREHaK8uAlwQWNprwtCrYh1kVzjydx11zaxLO+3zuYRv+fmc0GaatBG27h9ps5bAC3Atl07TUX/DFiLspVOsJ5pj4DXucd51HVRX69+yqmJOP69ygmNBOCKfaPmaYyOy4yaptFZLzv7wjI903eij0S7nfB569xcoOmqdwas7bPHcerWNwOtYl2UFW0S+cTv2kEbAoJFefG7Q+tg2DSN6B+D/XYfP8j+hD2IvrNcvj5rY6Ietc5Bw7Ad8y3bs13+2GlXwh6FHQxMTtNnmJo5thP6Z/rZdS7Cjlzrzvb1WZy2JADc1V5xQ6QUN0tDNoROPbdu4MRNnNBL2Lar7SJUxbV+r6XIa5u+7V2/e1y4+/eSeKxvfDFDjCK22XENLJ88niS8sDdvIaKAWAGPj6stc49r/QQ++fw2u175FMS2uXlWcl0c+9qc9txu2ZO1dvXqVYxm8+yd593G/aDf7jTdXndrDdEx0QRFJtLYN/bI5yPB+t7/jOYOuItZl2C9vPoupm8eVPbLMt2egPzpKx8/NF3++KpzelEBDEOT0wiIEcA26bjiBGvr9P3rEGUEjGuM004wFksnWJtmwFnUJyBdwGeVxsptsL7sbJfWepnaIasTrlxgXTNow+y44oTK6gEbAqw7BFibL98G64k5YG0VYD11D7AWXswZ4BJQ6LKJ+0HqI4H10D3AWgDm3WCtmQFQcVwB2a5jz2f5KGAtwFsArqh3zDzt7DMB2OLmpd94K4zGefMzTdu44+FgPXobrEWdQiunJ/8+YN0x7pgFVbEuoFeAtQiPGbfM9PGDbFAAqQBay+Vrs3Y6C9YjM2Atygu7GTBOO+1RnN/gpPBgLwKsnR5rG0qnx9qG9fLHTnsTQO8E68kZ+3W2/eOrXP/ss9n23et8xHWwomBtsTuw2ezcvHlTJqnBitnAjRs3sNpsmG32RwbRuaDtTmCdE30Rdd8wVSVZZOUUY7RYmTBOPjTpjJPU9evJb9fJtAwalHTqGNU/vB8epa/m5hnQGlF0yj5bLrut79c/9Npx9Ye41uaOCw9bdyeP9cPa6trvmsda3IiLR/kizlrAsIhJFeEZIu7UlffupSgzYJh5NC+ejmlurYt6RF6xFI/Y64Ztzkfx4pG+1jKFCAER+8fMU9QNC7C2O8MKhBdVhFuIEAARBiGAXACUWjeFCHUQXmlxnK4JuxP4hGdyzDTlPEbTiI0KEbogQkBuLQWcCq+kSDOhIXOWt0IEnOEjt8JKXOuukJK5ZUQddcI7PT7j6RS/RaiKOLcO3fRM+MfQTLiF8Lo3jMyEHlQPzoSE3FH3Xce+1z5xIyI0EMdwtt/pmb2z/WK/CGkQ5UXohYgrHp50ODXuN8wJBTHYnR7ruXqIEByhn+vYQtvmkVvhNE6gntFNeNxduoo2NQzbUPZZnCEhInTCVb5Da3eG64iQINGO0UcMBRH2YZkTCiLqFKE+oj9FvLWwE1coiGijOD+NUYQfCRu43cZZjW6FfbjaJfpQ7BOefXEuzu39FudNmnCOiJAdEQoitBQhKCIsyRXKJI7tlqEg4tG1gBtB+ZevXpVJarAiNuC4fHnBUC0uJncC6+RAP/o1o7Qos8nLyKaxpZW8wsJHSqk5BcRn5su0DBokZhWQW/Bo/fCo/SXyZecXkpAl+2257FZcE4/aH02trfeFSjFO3J2eZLAW5yJe3BKwLMBWwIzOcucLZHefr7OM8yW2mbwChFwvn7n2iRfERMyvgGixTdQrXkAT62Ip9onjzcDYTD6RR2wTZUQ4gPXKNSfgCygX8bsC+gVICngTUOQ8hmVmm9h+dxJQLoDsQUmUedB+UceY2eHUxJnX+XsKrWWayamrzraI9oo6RLvGzTPtEPHkD637Hm0TZcR5ibpG7rFfHEfsdx3TKF4idb7IObMU/SD6UugstBR9Kep0pklxLjN1u85Z9MO4Zab9rm3iuOL4zjbcWop8YrtYijpdeUX/iWOKPprbx+L4D0riHK5cu/3yoqhT1CXaIuoRZV02KY5ptM2cjzgnoa3oF9d5OdvibOftdoltYv/d5yt+i+2ivaJ+0Q6nbTnP43ab3RKsHySo3He786QW7qWFO4F1aXooeXm5xARHkFdQ44yzNtsdyCQ1kDawvDYwn3caxBj+JIK1KxbbXf8HhSYPmwAAIABJREFUiQkQRAy4u7ZPePxFnLq7tu9JaJc796+4Pq5c/WRJ+3fRMdZPQqfKNroX1LpDf7gTWI+ODHAp0I/IxAxGJ21LeoG7g9auNowPdVHR0DH7+M+1XS7d8/q02Kw0N1STnpVNSWUtBsvTa5uPaoNPIlg/6rnJfO55Hcp+efL6RYL1Qx5jSKN+8oz6UfrMncDa6phyzghiWmC8+KOc7+POYzYbyY06x7kzpxjS6p/am4fHrfNSHt9smiAjJYbg8EjCIkLpGjd86fvtSQNrMeNQjaqeiHQF45aFvY+ylDYl6jLbbKiqK4jKLGNAd/vlc+PkJHn5CgJicxmaMD1WW2tvbyU6vZgh/d3tmELT20bj0OMdw9QdbUSnFTNstNyhk1Y3RlJ6Lrn1vbNhFkvdf49SX29fL0GxOdR0aGbDVcT/uU61mqD4PKrUI3e0+1HqXK48IpS5oq4ejXHpHAcSrCVYu42BL9eFc6963QqsvwQ2ONjdhK9fCFW5UfQMDX8pbe5edujO2wRY5+Wlk1ukIDUxhp4R7e1/kl8Cm71X3zxpYD3U08rRIz7sOBaCT1bzA19UvNf5Lsc2zdAQa3Z4s93Lm9zK5tmxoLejjyNHgzhw3JeQonZMj8nGLFYTpy/FsPtYIGFlnbcB1THF6PAQ5/wvEqUanG33cmj0wDoddg6fjWDnsWDOpNahv/XyqXHSQHJSKttPhpGg7HB+cOeB9Syjvhf9gtl/PIjDITloDDMvCBsNWoL9L7HraACbDgXNa2rZ5ToPi81GY0M9b++9SN3w7Zu8xR5PgvUyGtdiO0eWXz5vuQTr5dP2XnZbVFDAqQshxCVEEZ9XeccXt+6VX25b2f65l94CrEvKS2jt7qO0rJzAjGrni2T3yvtl2fakgXVBfAbnY6vRdHeyeWc4WjcINevvbiKpWcvEWD+JterZsWDSYker09PR3kiqqh/zY/rfPD6opqiyjOEJA1u8Cxi2zlyL4oYgKCyRlFIFIWXtmOy3PzKyovZvHCK2sp2+gVE2HIymUzcDrp0tdew6GUVcZhl1wlM8j28iLHX7j4blM2y04heZi7JL67wJMRq1JMUlk1pYik9w4my/L/Wx51OfeKKj0Qywa2+IBOv5CCfzPv5/0O7YBxKsV9Yu6tuaGdBb0GlHSYmOxGR7TP+UHtM/a3e8Bh7WJrNJT0ZyJL7+AZw650Nmtfq29+5LquOTBtaFiel4x9Uw2K1m87ZQtEv4uPth9nO//QM9zaS3GzBqB0is7XKGwWkNZkxWG+UVdZxPrERrfnzjg3ZITWmtkhG9iS1n8xgw2dCbzCRklfLcL7fw7C838+7u84xOGB+P13pymPiaTjSD43xwIIL2cRN6s40mlZJTMUWMa0fIz83GYF260Ib79eX9th8NL2Rk0oZvZC5l6jFG9WYG+9VERaWj040SdSkcywOmebxfvcuxfXLSwuGDEe4F1uKuSHwxTswHulxpvl+kWw7xZZ0rC2LLrbcE65XtTxE/Lj5vK8YLo+nuuMWVbcty29ZTU79jCv2kkVHdBKMTeiblzdATNyvIiKaTs97BHDwXSVBhu1uEggyNjrDlUCD7T16kuK6drrZGAv3SaWvq5MPNJzl4Lgr/NCVDk48pJtxmJiAyCa9zocRVd9PT0URKZj4Gs5VhnYHOYTWJjQOPzyPscHD+Yjye5yIIzG5mYKCbpNIGhkaHCQmJ4ohPJBHJhY/1eo0KjebIuXBORxcyaNRxwC+LtsEhLgSEcfh8BF7e0Zgfo0fdNUabrRYKcrP59ZrD+Geqluz6WHQoyKhWR0xcHMEhIcuWomNiGRp99C/SuUSTSwks97MBCdbSNu5nG3K7tI372cCT5rG2Ohyoe/oor+9AZ3l8XuC5eoqXxcRLbMqGTsYnrUzoJ2jvHGRcZ0ShrCe/vJ6y5l501sfXXs3gIMr6dsaFt1o/Qe/A7fdCJu3m2bjhuee1kusDAzPtGzPZmDRN0jsy4QTVoZFRSmpa0WgnH483/daTrJHRMUqqm1EPifcy7NR3DjnnJtcMDFJS00LHoO6xts/VVxa7nY6ODqfNqToHl+yJ3KLBWjM0zPFTp9h//MSypVWr36C5vd0tOsLVIXL5ZP/zlWD9ZPefvP5k/z0OG3jiwPpLGrLzOGxDHlOOSS4bWBqwPn2Gg2fPLVv6yc9/7vwanavRcikNeLE2IMFa2tBibUiW//LZkATrL1+fy+tc9vl8bUCCtbyj/1I+CZBgLQfL+Q6WMr+0GQnW0gbkOCBt4GE28PjB2tsX/7QMzl24cF+Pt/RYS0N+mCHPd78Ea2lT87UZmV/ajARraQNyHJA28DAbePxg7XeR7L4BYkKCJFhL7/mKec8lWMvB8WGDo9wvbeRuG5BgLW3ibpuQv6VN3G0DywLWAXGJJObkEpWSxOnoeIJTMolKzyI+I5UzQZdIzckiLiOTxMx0TgSHkjswTGl+LoER4Xie9+FCXBKBQf543orblh5rabh3G+5ify8lWF+9fn3FbggWe96yvLyWpA0s3AYkWC9cO2l3Ursviw0sC1gHx8cTl11Ay4CGuOo6yqtr8I+IoaSpmZLCLHSj/YRGR5Gvaic2PYUczTClxVXUVZfiFxlJeWMz5/x8Zj3YEqzlBbnUF+RSgvXnN25w7dNPZZIaSBt4ym3g+qefcZOF/d344gtpH0+5fcj/A/L/oLCBJQdrT28fCmsbGNEbsdmNJKoaicsr4OB5X6KV9QxUlDDW1co5H19is6vIVKSRoxkiNjyCFnU3LfUKamsLZ6FazDYiwVqCtTuD9cL+zcpSUgGpgFRAKiAVkAo8bQosOVgfDU+gobWFtKISOkcGSahtoLalkcjUdFRt7aRmJmPQjRCfnEx1Rw9hSclk9fQTHRJEbEkTBuMEYdGhEqxlvPWyhlcspcf6aRsU5PlIBaQCUgGpgFRAKrAwBZYcrD29/QmIjiUwOpbg2BiCFFXkV9cSEBWNf1QUATExaAf7iIyJ42JMDEf8/DkdEc1xHx8uZqsYGNVwOsBfgrUEawnWC7umZSmpgFRAKiAVkApIBR6TAksO1nd/KOZcShZBSSmzoHwuNIwqZQknvW/HULvKZJWWkZWTwqHz52fzy1AQGQay1GEgoj7psX5MI448rFRAKiAVkApIBZ5iBZYdrD3Pe+N1znsWlD3Pneewt8/sjB8uqBbLQ94+eN0F1RKsJVhLsH6KRyB5alIBqYBUQCogFXiKFFgSsN67/wCr339/2dKPn39BftJchoYsaWiI9Fg/RaOYPBWpgFRAKiAVkAq4iQKLBusRrY6LQUF4HT68bOmcjw+a4eElBavl8ILKOp8c77oEazcZgWQzpAJSAamAVEAq8BQpsGiwFjBpstkx2WzLmOxYHFMSrKXXeslsQIL1UzSKyVORCkgFpAJSAamAmyiwJGAtPbVPjqdW9tVMX0mwdpMRSDZDKiAVkApIBaQCT5ECEqylF3jJvMBPErRLsH6KRjF5KlIBqYBUQCogFXATBSRYS7CWYO0mF6NshlRAKiAVkApIBaQCT7YCEqwlWEuwfrKvYdl6qYBUQCogFZAKSAXcRAEJ1hKsJVi7ycUomyEVkApIBaQCUgGpwJOtgARrCdYSrJ/sa1i2XiogFZAKSAWkAlIBN1Fg0WBttjvQGSfRGY0ySQ1W3AbEVI8LeWlSvrzoJiOQbIZUQCogFZAKSAWeIgUWDdZifmm9yczEpEkmqcGK2oCwO3Fj5w5gfeOz62g6W0jNyKZneIIvbt5c2DDx+TUaa8vRWq/+RvmbN28iav3800/oHx7ns9/Ice8NN65/TH2dCp3949kMn376CdU1NVy//unsNteKOM7dfzc+vcLQ8BDXP//i7l3c/Pw6nY0V9Ovtzn3Xr9iprm9i+tpv5r278BdffME9Dnd3NvlbKiAVkApIBaQCT4QCiwbrhUCNLCPnvX7cNrCUHutPp/UkRIXgdykYX79AgiMTMTuuLGwA+MTCwe1vU9xpuLP8zZt0N5VhnJ7iilVLREwS5mu/CcB3Fpr5dc2hx2PNK3j5RSNQ9+bnn1KbHcrrr6/C4XDcUeSzqzaUBUXYrt2xmSvGPiKjEzBfvn7nDuCLT+xc8Hqf6MpeJ/g7dD1s2nuYQevnv5F37oZrn3xCQEQ6A6YFajW3MrkuFZAKSAWkAlIBN1BAgrWMsV6Qx/dxg/Fij7+UYN2YHs7bb76PVm/mxo0bfPrpZ9z47FPa68sJDo1AoWxg2mYkPTOJypoa0nILyYrzo6q8mLzGYYaHB4iOiiJbUYnDrL0F1nrMumESYiJJK6zkit3A4e1rOHTam9KCMtKTC7jyxRcM9XUTERlJdkEFVouDNO8LlBZmExAUhXrE6ARdAdaHtq5i9fotDJg+Ztpq5I1f/Ae//tnL2G02utvqCAmLoFMzTk9rGa+9+gYhaSWM9LYRn1lFoaIYk7GPpJhMyvMyyK9rxzQ5QXpMHOPWj7khwNrzfaIqurlx4wts491s2HOI/smrdLU3ERoWSW27hmvXP6WrRUV0XBJdQ0a6WpT88KXVeHrHkJWuIDkuiZysNBpa1eSkJpFeVMu1658z0N1GaGgIuaX16AdaSczMokZZRHRyHleu33CDYVQ2QSogFZAKSAWkAjMKSLCWYC3BepGjgc/Z87y0/giTUy5v7k0mOoo4cOgcfX09+J8+SlRSGh6rniUkowb9QCOb3n6B7KoOPr56ma37vMjOL8P/vA9JMTFOsC5q1zLUWUNhUSHb162mdXiEgCNbaOjrxzDcxclDAYxo2zi0dwcN6l5ig304F5HH9v/9PNGZBaT57+NEYBjXboAA6+CLJ0lODObAmTDKUkLZdjSYHR9swWY20tpQQWb8Jd7bfJymRiVrtu5DM/kxow2Z/OyN9fSN6LHrmvho7wVGxwfYsdODzZ7enPWP58YXN50ea599b7HlqD9JyWlEBPnz6w93UVSUjde+PSiV5Zz3CaSlX0dGSiZREZE8++I7lHb08NK6PZR2askMi+LDbQepVtWx6u13qW9uZfUvX6atvY9qVT0Vpbns9thJcnw4z72yjuqWTs4d2MGl/E4+fzTH/SJ7WRaXCkgFpAJSAanAwxWQYC3BWoL1w6+TB+YoSYhk1erNjIgY45tfMO2wUp10kmNBeXzy2Q1Sk+M5f86f7W/8msZRB1cNnRzY9hpDlmm4ZmbTjt3kFJVTVVnFcHeTE6zz6ntQ5sVw+CNPXn7pRXK7Rwk+uYNeowGHYdAJ1u31iezZ6sHUlSsoy4rYdDiMrT98kbbePkarYzjoE8rlT2fAOiT4HEPDPRzbtZ633tlAl2aMj7ZswzDYQVzUJXbv2MzPXn2Tyupy1u0+jP5jGG/M5P2DZ7Feu4ljopmP9l1gcvoyfoc388Kb28mr7nLqIkJBfA++S2COCpPZzGCninU7PYkJOcsWDw9qVPXU1DUzPDLImVPHWbfuQ/76X35MvErNyxs9qR9zkBcVw8kTp+jXDLD6rTU4JsfZ8ObPaKyvITY8jH3797Pq129wKdCPV/b44rj2GSURxzkUVuS8eXhgB8mdUgGpgFRAKiAVWCEFJFhLsJZgvciL7YtPpwg8uoeth/yoqShn86YtdNSVsW3bXgrys/HcuZXM4jJ2vfMmLdpprhrUeO1czYj1soh45uCuvSRmKUiOT6akqJRDO9eSUlDIzu0fkFZYzIb3VpPbPUbQqe0ExCRSqazg9EcXMUzpOem1m/isAs4c2k10dg37XvwZ7X39jKsS8PQNZ/pTuO7QExbqzeTlT2hoqCemoIErl69wbPtOOgsvss3zOIkRgfz6zTXUNtbx+poPyahuo78unQ0f+WC/DlMTLRw74EdXq5Itu08RHJXIlr1HuXZjxmPtf/hDYqv6bsVY9+Jx4AiNLc0c2LuLrJIKEjPzaWqt4CdrdxF6MYBvPPcfxKl6efWt9ZyIKSHML4zTp86gGRjkrTXvMWUaZ/M7v6SuLJ2jnnvJzkhhw/vruXTRj289/xbxaVmsf/c9yvvszmMusgtlcamAVEAqIBWQCiyJAhKsJVhLsF6CS8lmmqCiopJyZQWlVfVc/vgTmpqbKStXUtfSyeUrl+lsasD+yWfcuDZFd0cDH38683LfaL8apbKCcmU1Y2M6ujua0ZutdDTWUV5ZQ11DI4bpq4z2d1JWXkFvdx99PUN8evMLtEM9zrI1DS3Yp6+irq7BcfkyV63jdA+MICbx+OLTTxge1nDtsxuIWThEHPSNzz+nt6OTj+0TqCorqaxVoWptxzY9RZuqhvq2LizGcVp7NHz6BXz2iZ0etQb92ABdw0ZnnHZ9m5pPPrvJzRufMdjTyph52qnkZ59M06bu4fInnzLY006ZsoLali7MDjsl5Uqqq8pRVlczbr1CfUMj5dWNdHT00dfXz+UrV2hsauaz61dpa1Jht07S1lxHmbKa5rZu6osS+fE728lRKKmqVfHpFzIOZAnMV1YhFZAKSAWkAkukgARrCdYSrJfoYpLVLL8C5qEW/JKKuPrgCUeWvyHyCFIBqYBUQCogFbiHAhKsJVhLsL7HhSE3SQWkAlIBqYBUQCogFZivAhKsJVhLsJ7vVSPzSwWkAlIBqYBUQCogFbiHAhKsJVhLsL7HhSE3SQWkAlIBqYBUQCogFZivAhKsJVhLsJ7vVSPzSwWkAlIBqYBUQCogFbiHAhKsJVhLsL7HhSE3SQWkAlIBqYBUQCogFZivAhKsJVhLsJ7vVSPzSwWkAlIBqYBUQCogFbiHAhKsJVhLsL7HhSE3SQWkAlIBqYBUQCogFZivAosGa4vDgdFixWC2zCSLFYtjaklgzWS1YZ5Tl9lmx2Sz37ducdy5+a23oNlstzNpc8yWE22e+9uVTy6nZzV62rW4eu3afK8VmV8qIBWQCkgFpAJSAanAAxVYNFj397XieciTdR9sYL3HDrZ4nad9yLAgQDMYxmnv7ndCr9lmJjspgsSKdsyOaawOB5npqaTnF98X3JtU5aSX1WOZ64UWX3srSuZ0Zj0WUc/UNN1t1QSll96Zb24Zub6g/nuSYHwpwVp8++/mzZsySQ2kDUgbkDYgbUDawJfcBhYN1pMWE11dDex883V8E4rp6B3AYLm/V/lB8FWVdo61e84yrLdgdUzRpEzl5x8cQD1mZlI/zCGPN4kpbrwvEHepWyhr7roTCh1WEqLP8rZ/wSxYN1VkstM3fvb3g9ok9z2dXuylBOtPrl/HcfmKTFIDaQPSBqQNSBuQNvAlt4FFg7UTPC2jHP5gLdGKNoa7azh1+gQ7t2zmpHcowRGxrN18gLDoGFLjgtjmdZItmz5gy9lQEuJCOXryFB8d8iQsKpLD637NMy++QUyS0gnHIyOD/Oz5/0DZ1EZZaiDvbDtAdmYSR06c5vDRE1yIV1BZmsA7G3Zy/kIsuYnxxGZWoK4r4MTJk2xe9z5H/BOJDDvF99/24NiJ47yy7gCF2fFOsB4d7uLkmbOcPnuG46dOkpiYxNp12/ANCKBzwnYnoEsv9lOlx1KC9cfXrj1V2sibyafzZlL2q+xXaQPSBqQNLL8NLDFYt2PQj5KSFM3GtatYu2s/H53zxTckCp1BR7jvSbwTCjl7eBvp1Q1sem8tezyPcPr4YXzCYvDb6MEv3j+EZtzkBJVJ8yTRJ7dz5Gw4m999jyP+yQxouoiJCmXLFg/Wbz1EQU4w646GMG60UJQcRUBMAWOjfSTERrDmVy+w6q31hAQe4Y1j0ajVar77jX8lMy7QCdaK6EDWbdyKj58fu7wOczE8nFdWr8cvLA69bWnixKURL78RL0RjCdbu2S8L6UtZRvaltAFpA9IGpA24iw0sKVhHFTZSnubLno+82LrxbVbv2I/nGV+i4hKw2G3kpofz9pYDnDjrQ+/gCLs2bSBPWY1Wb2DCOEnI1u289J4X/eOTsx5A/Wg7P/vVKr7zyiZK1FqiQ4PZvn0vHtt2sH7zVgrywtgdnMWkfYqi5GgnWGekxLB18w42rnmZ11evJiTwEG/7ZtHT28sz3/oumfEzYF2ecJEzIdGM6Y2M6w3oTUYKc1LZunkTeV0Ts21wl86S7Vi6gUOC9dJpKe1SailtQNqAtAFpA9IGZmxgacDaqiPo+BGya9TUKuLwDY8mJTkK78BgLkYnkJ1fiNEwTmTgR1yKTSEyNAifiFSKCvO4EBLpBO/qxlYaijPx3O9FfnX7HVB7/Ign52ILMNoc5GSmEXgpjMSUFC74+lJdmYlvejkm+xQ1xbkk5VZTXJxHQGAwyTFBnD7qRXpKCJ4+4URFheIdnoqqohCfhAK04/2Eh4YQEZvgfClS1dhCWGQsgSERtI5Z72iDNJina9CQYP109ae8PmV/ShuQNiBtQNqAO9jA0oD11BR646QTfMVUdjqxbrViMJnRmy3O6fi0o/2cOnmY9JIa0hIi8PRPRWudcnqqxw2TmOwORFnhuTZY7oxvNphMGKwzL0SabTa0eiN6kwW9yYTJakVvnslvEtP+WWxY7HZ0BiOTYt/kJEazGZ3JgtZgdE7HJ+qYMM+A86TFMuOtNtsQ0/KJcrpJi4TqpzymXIK1HIDdYQCWbZB2KG1A2oC0gafLBpYIrB9FlClGRkdIz8ggv7wOrUl6hOXF9Ch2szx5JFg/TNcp542pc056x5RzjnpxM+qasvJx2664CZ97Ay5ups1z5qp/3O0TbdFbZubON9ls6CbNmNyofWIef5P4RoBjyun4EI6He30D4HHpKJ5Ozj220NBdbE9oJp6QivZNWu1ojSanM8Zd9BPXxu22TGE0W5hwo/+3ZuuMI0x8l0JrNDv1099ydM3t88eyLsY6i3Vmil/hMDTNaOcutme2O2adjBa7cGKaMd5yOj4WvW454MT463J+inaIvnV9z0R8j0SMfyJcdznaKDS5Y4rleTgFRb9OLsP7dCsI1g/7Ry73L4fRyTrvbVcSrO+ty6y92Mzk5eYxbjAxPDpMYkYhsRlFdA+NL8vgOHvcRxwUx0eGCEmrdALE+OgIqclptDSp3aJt4lzUTV345bVhspioraolKrWINEULpmUYxOernchfUNVFzfAM1OSXVRGZUYKibdBN9HOQ3qBh4tbHwcYMk+SUKhlzEzg0T2pRDYh3cKYoqmvDLzaPhBwVw6Y7n7QupF+WoszEWB+tOqOzL5s6uonPLCazpGUWdJbiGAuvw05reQUWm53BgX7i0osJjc0kMj7bLWzPZNQSlphNp95BT4+auIxiolLLaFCPukX7etSdhOQ3I25EyivqiUkpIqO0gTHzwqY4Xng/3vn/Q9PeTEReA2aHg6HeHjJTcxjXGZwRBSUV1USn5lFU3bT0zgXHFD0DfYxZ7mzPo57XmMlMXtsI5kf8v/Oo9UqwXmJBH1V4mW9hF8JS6fZlBWudXkdMbDwbPP2p6+gh4GIIO05G0Nw3Rk5yEp4XYth1Lg5VYwPvfLCLd7aeJL+kkGqNnp72Rupa25b1H8zwyBAnz17iUEAqQ6MjnD0byKHANAYnTFR1t3PgfCTHI/Oobmnkp2sOsP2jABqU5ax5ewd5ZfXL2jbhqWxpaWbrwfOEiGk9O9rY7ulDeI4Ko8WCsjSb3ccDyKhsJT8/n39btZ+T/ulohicY103g7Z3ExDLCl9lqJTsnn3V7L6Bo7qNCWYrHQT+KG3uZ0PaTGhOGh5c/KcpWzp/35yfrjhBapmbIYKGpvYczKTXLqp9h0kBoRALbTkaj6hokJjKG3Wei6Bo1oCrJ4qNj3mw9E0dNUysbt5zknd0+1HYPU5SbRVFNBaPm5Q3R0/T3cPCoH74J5XT1aTh3zp8TYTmMGibJiI1m3yFfjkYoyM7O4lcfHsYzooQIZSeV/bqZEMRl/F8ivNB1tVWs232GkLRSamur2XXwPBfTKhgZ1nL4eBjrdp0hsbSR2IgQXvrgMAGh8QSl5FPVPYphmT3CRpOJpOQ01u72obCuk6zMLDZ7BZCj6qZZrWHHqQje2X4GRW0Hu7ef4PWNx0kraHDaW1uzisDE0mW1vTHtOAEXw9h6LJTa1m7Oel9i14lI2ocmKG1Rc+ZSNBsOh1GiauGnb+/l1W3nOXoqkNo2DWWKKsJT6pa1fR0dHez2PM+p6CJau7rZ53We4yGZDBtNZKhUHPcN5lBQBun5+fzgjX2sOxSKx4U8+seMhMYVU6zWLX37HFN0tLeyy8ubuLwqhga62XsskJiiRoxmE4XKcrYcPE9WZTNZ+dk89+tdhCXmUJ+fw7adJ+gfHkdv0FJU38qkxUBZQTa6Jb6Gtb0NvOfhyQavADQjvWzYe5b9l3JoG9Ljn1TOriMB+GVW4O0XzuY9Z4koamZkdIgjpwM5El5IaUkZq94/zO4LKQyZl45JJFgv42C4VBAo61k6g3dp+WUF64p6NcHpSkpqWqhraSZB0UBBSQX5dR3EXbqEd4KCs2FZhObXcvK0D9mKamqqCumfNCPek6jr7V76AXzONVhXVkxecTUVda3kpyYTk6Igp6CY6t4RitqbicxXsd8nh7QyFRs/CqOyocP5OL42L5b88uUF60mTkbTEJGcoW1VNLecuxJBcWENsTIoTnMtKc8mtrOVcSROF+RW8czyZxo4BjCYzXeo2iqrbZkMIXHa4lMuujiYCQtIprmqiuKQMr4upZBVVEBAWj3a0i5z0VIqKijjpF0FgZA6+mbV0jhqd759EpRYTUtiyrH1bXlZPYGwhippWslQdBGVVkZimwDuhGkV2LEGxmUQHXSQwtYLjkYXk1TSjKC/nfGgGcUkplDYPLLlnyaW/eGwdn1tNfEEtVU09ZNU2k1BUx6WoAmKVauKCg4jLUHDKy5vwTAWBGeWouoYpa1YTma4gLL2MwcnlC2/UW8xE5VeTV9FIQ0sr+coy8isaycjOo1E9zL7DEWSUNbAvsIjC0iJC86uorqokODiGuMwSohKy0N0VXuONGzk1AAAgAElEQVQ696VYjgxrSFNUo6hqoq6mirzcQgrKakhMzkTZ3MXewEwKK2u5UNBC3MVIiioa6RnUYbaYiM8to65/GcBwzrjS0dlMRmkNJVVNpCcmkZylIC0zj+i0AnLq2gjPqaYwJ42SxnY2H/QmWtFCfnYeBcpaohNzyKy+68Nzc+perH5mq5ny/DwKy+soVbUQHhJFZkE1kVGJZJeqiK1SkVbSQHZ6PNmKEj44GY9C1UZITDo7PrrIOzv9SGseWfJr12jUkpuYSlFVEw1NjRw77E9ifiWRYbEM6nVkK2sormogpKSNMkUhG45F09Yz6HwykpkcT/+IFp12kPrOVufTndaWCrSWpb1GJg3jJGfmkF/bQX93Mx9u8eJ7L20mNqeGwyEF5FS1EJBUSlBWLZGRifimlpEbFcnRc+HsO+pPRk4pJ2IUVLX1Y7AvHWdIsF7CC2SxF5gsv3SG/TAtv6xgXaBsJTC7EYPZTH1HC2n1Gnp72imobyM+NIyMeg3phVVcKmgkPCycgfEJWlrryW8fpaWuktqm5YWvKkU+DV2DGCaGyUuOJb9aTXNdBaq+IUr7e1ANm7gQXkZqSR0HT8ZgvhW3p1oJsJ40khSfyIDWwIC6nqPHA2jqGyE5KpZxrY629lp0djM+VZ2UFtSw3beASbOR7NR0lK19TNqW93FtZ7OKoMgsDCYjFYpCdp6MRd2r4bxPpBOs2xqqsUz0E3gxjOCkchIax9Bb7PTpzLS0deMVWoxpGcfDwrwyYrKq0OrGSatowSe3mdq6Vo7FV6PMjUepaqZZkUxgWhW+aXV0T9rRT5oY1hpoqFfSqzUsOTy4xgkB1oEJpVS0D9M/MERcmYq0hgHS8yqIUHaTFhlJe88AiT6BxBTWkqzqRsS4TkxonS/Fx+VU0q4zL1v7Jkwm/NKrGNSb0Wk1ZJaWox7VU1qYTXP3EMcvZDM8aefwpRJULQ3kdY46vymRWliEelhLUX4WA+Y749Zd574Uy4HBPlIrWzFZzPQ1K8kpqWBguJ+kmDgqW7q5kN2AyWHCX9FGaUoaI6aZa0FVkE5qlgjpWt6xv7WtjuLWPgwTWnLjoymp66Shro5LEVkUtPZRozFg0Kio6uxm/8mLlHZNEBoYRVXbIBVlFYTG5i9b35qtJhS5ufSMGent7+FiQDAtfWNkZuSRkFtLWkcP/QYbfU2FFJUp2e6dxbhNxM6b6ertJTCxmO6JpX+aYzCMkxqdQN+EGe2wGs+dh1C1dxN9MYhRvY7angEsU3ZiqnuoKy/hiG/67HiclTID1nqDjrSKBnT6MXJSk5lYYo+11eFA1VxPn8FEaXQkTc0dhPp7E5NeyunEOkZtU8RnVZFUO4Aivxjf1HIUceHUtffR29tDZ18f/vlt6JcQqsX1JMF6Gf+RLMWAJetYngH3ywrWYtab8spq4nOU9I2MUlRSRlJ+BT3jBmoqKmnQ6Khv76W0Y4TePhGfWULv4CDZ+QqSC6sZmrg9x/xy2KZ4ZJtdUEZOVRNjOh25BeVklNYzbrLSoRunV2+jqLKLliEdtZXVpBZV09/dTVh4EsHxCsYMS/8PZvY8HVN09/aRkFlMdVsvGk0fiVnFlDWonbGEgyN9GB02CntGGdFOUJCvIKe4hqioNC7F5pCYXbascG2yWqhtaCYuu5zOgXFaW1qJzyh1ejSNhjEGNb1YTDoUZZX09PYQm1ZEtXoIRXkVCbnldA4v79z9eqMRRXkNKcW1dI9OUKqsIqmgkj7tJF2tKjr7BtF01lPS2EdTUwtxeRUMGmY8XKOj/eiX+cZkcHiUtOwSSuu7GBofJ6eghOzyRkaNFuqrqhgcn6C2uIwq9QgFJZUU1HXT3qUmJrWQssbuZXs5S9ifAP+Orm6i04qoau2hu1tNclYxJfVqtDoj2YoWdFYHmWWd9I3rScospkzVSqe6w5mvrLl7WeF10mqhuq6OqMxS1APD1NU3EJ9dSkP3ID1D4xSLpw0OG8Udo2gGBwhPLqSpe4i8sibnjd3sNbZM/4/1hgmKSsudT5h6BkbILSonMbeKvhE9LUNaenQWTLp+enQmOtqaicsqo7Gjh5RsBUkF1WhGl++mTpy7RqMhObOIwroOegeHSckqJrOskRGDifqRccbMDsYG2tFodRQXlpBd2USFqp74vApaB7TL0rci/Ki/r4+kbAWqjl6GhzWk5JZR0dKNGGt6xiawTDmo6h1n3GCgqLCUqhY1/W0tXApLJjqjjnGbjfrGRqLSiqjtFDaw9C8wNrd2kJxXzuDwEBniaaeylKpGNXl1GqcXenR8nPQcBb4BUQTl1KHTjpFXVEZiYTUDYzqKSyvJrm5Hb1s61pBgvUwX8nIPFLL+xV0EX1awlnazOLtZqH4LfWt9ocebbzl3b998z0fmfzx2/iTpLm3+y2EjOt0oqTkKIlJLqO9dmZfvJVhLsF62R1zuPMg+LWA9YZ2iY9xOm5um6kEzOWq926a8bj2FPQa3TJUDJjTGaUZMl90yDRkv06+fdsvUp5+mdtBMZseE26asTj3ZbpoUvUbax210au1umSo0JpJadW6bctV6aodMbplEOF3LmJUuncMtU359P7vOp7PtdPKSpa2nkth6avH1bT+TQlZ560On/pRgLcFagjWL+/v42rXHpuHwpANFr5nCbvdMUY06DisGOOSm6XjZIGeUQ26Zwhu0NI1OodZdccvUNn6ZhqEpt0z1g1PENek5UKhx2+RZNIBXsXsm36pRirrNlPRa3DKF1mnZkt2LR5Z7piMlg8S16NwyxbfoyFFPouy3umU6EVfL731nO//pHze5Xfov3/TA0z/roSEtEqwlWD82KHycHu2nxWMtwXpx0C7BeuHQLsF6cdAuwXrh0C7BeuHQLsF64cAuwVoC85cSmB8V1lcarPtHjUws8M1jMftAe8cA2ltf8pt7jksB1hm1XVxKL8cvrYq0Fv2s9zu7sY+AdCVBWdXkdRpnt8/HO74gj3VxL9si8/ngYhYbYuqcXj3h8fYq7GZrVKFz+/qwMvZmd/JeYBbrAjPYnt62IK/4QsD6dFkveyPz2Bqay560Vk7PerwHOZrbjGdmC6fLhzhe0MGWoCxnvv2ZnfP2ii/GY905ZqO4ooGUolpy6wbv8Hi3DBqo6BiiU3sFka+oop70smZqNdY78j3MU74YsC5rHyM6t4ZkRSM1/dZbXm8HykY10dkVxBa2UtlvJa+yhdjcKpKLG1FpbI/sHV+4x7qf9WEK1vpnsC6kbNbbvSe7i/eDCpz2timuln05bXwYlMm7fhl8EFk7m28+HvIFgXVRP9uiing/IJPNMTWzHu89We2su5THukvZbE9tYn9mHR9ezOI9/0y2JrfP5ntUD/miPNY9JiKLGrmYXk5EUdsdHu/ovEouplcQpRyguMdEenUb6TU9d+R5FC/5QsF6zaUiXvNO583QWjbf8nZvTu/gnYs5rPLJ4I3AEjald/LWxXxWeWfwdmTjgrziC/VYn0st51hCMd6KXmJvebxjG4fxzSjjeEIx5/NaiGkc4lRqGScSiwmpHZ63V3wxYF3eYyCxoIbQ7EriK3spn/V6W8isaiYko5zgnGZyW7SE59UQlq10zjQ1H+/4Yj3Wv/uvO/nmqyf5o+/tmOPx3sxfvniE5948yzNvnOUr394yZ9+jg7YEawnWEqwfYAMrCdYmi4XAyEwCMysobx8ko7Ca9JI6NDoTjXV1pIpZEsaMNDY2kJRTTmP/MINjE2QWVJJV1kjf0Aibt5wjOKPmNz5NvBRg7XXmArvPRrJu41Z2hZaS32WmUD3BGd/jeAWnc+icNzF1oysG1vtSq/neL17jnfNxfPunu9mY1uWEZs+8NjYGJLHON4rnXv6QjVEqfnU8lrUnfXn+eNaKgfWhhAL+9+vrWO8bx7Orj+NZqHFC8+nyPtad8uPXx+I5UTrE1sAUvvvaDj44H8JPj+VwahbAHy30ZDFgXd2gYs27mwmKzcJjz5k7gLmwvJQTweG0jF9B2dzN5h2HiSusWzGwrh+wEpOWwqnYIs4GxZFUO+oEZlWPlj0fvMX2MzFs3H6QM/GNfOS5j9DUAo557qFCrV92sN6XWc1/7D7B68eC+PE7b7Mnf8YrvSO9nVXn0nnPN46Xj0ezI6mK93yieMljN//0+pEVA+sDqYX8dK0Hr3ud4aVtezl4K5xkW3ITb5xPZ83ZUCcg7orJ4+3Tsbz4zvv8aGPEioJ1QX0rO32CORuVwi4vT4pmw0kmeW3DMQ5fjOXHq/eSWNuP59F9nLwUjGI2z6N5sRcE1pmdPLP+JD/xDOXrP93HOwlqJzRvSmnm1eORvHYukX9+aSPvhZXy/c3H+flHwfzTtgQ2LSDcZEFg3TTAr/b4sPNCLD9ac45LqjEnNF/KVfCrD7bjFZLI+zuO4R8bw8YTgezxi+DNM/lENc/Pe70YsM6sbGH1+7sJSFHw/rFIMjtuhZSoNew/uJ1zYbH88MVfE1rYjl9aBb6hwfgmZMwr5GQxYP1b39jMt98PIr2ynefePDELz//ln7axLbCATftDCclv5R9e2DO7bz4hJxKsHwBVcz1+cv3L8Wbw3f28omBts3ExvoTspn7nnLIllSouROaQWtnNOU8vonJr6epQccEvkpLSMvKqFVQ2N3Mpo5K4bCVplR1s8fAhQ9XLpPXOuWgXCtbZDd1cSCkmrm6U9cdC8MlTExLmzbqPIshVmyho0bBhw1sk1/QRpajGr3zlwHpLVCl//Ytd7M7t59nvvcxroQ2z0OxV1MeuyBRe2Hycvbm9iN9bAiJ5N7RkNs984rkX4rH2CEzju+svcCSvi2d+8BYeaerb3ujCBjaEFXK8dIiP0sp5/rU3+dmHW/CIq5zj2V4esO4cd1BS20B0Xh3xSdG8sc8PVfcYFz7adwdYdwzryakqp3n8Cvk1Naxev4UfvvQGUQo1nfOI556vx7q4rp+w5CKylOIjId5UdBuIyuvBr2DACcwVDRp++O2XiVHp8D+xhy378/C/eJG1Ww+x5+hFqnosyw7WO6ISWeNzgX153bx3fDfbcm6He+zP72NbbBHvXkhiX4GGTf4R/NPzq3g9sHyFwFrDtkAf/v1XnuxNr+f9cyfYW3A7RtuzqI+tYSmsD813gvTB/G5e2XmCX3mXLDtYF3XqCctQ4hOfT3h8IsHRyRR1jBISf5acWWju592AMjJVbfzkey8SpBwhS6kgLCZwZcA6RcULxxNZl9jON/71FX4RdNsbvTmzm3UxVXx/41k+SGzhubc8+JdV63jlQsGsZ3s+8dwLAuuqOrZGKwkq6eTZH7zFqdIBJ1ifjojgp7svEq1Sc+z4cfxjQ1iz/wRbTofxzBv+hDYuL1iX906SpKjCLyGPoIxy3jiaSGGHnvd2+xBZq3dCs6KyiDXvvU1Z5wh71/6UlNIW8iqVvPrjXxGQpVoxsHZB8omkCv7t7VOz8Py73znD4WMZ/Nk3N/HWuTyef23v7D5XmUdZSrCWYC091g+wgZUEa/ERk9C0Wkq6x6nr7CI6u5ygeAVRxW2cO3EepVqLujYfb78U5xyqygYFqvoaLkRmcD4sk6wqNQd2+lHQOozZvkRg3diNX4qCuLoxth69hFd4MUeP72XD6WQymsfIaRlm/96tBGVVciEhleDKsRXzWO+MVfKNFz5gfYSSb/9gNe9ENbM7sx3Pwl7ePR3GTzZ5si60hAN5naw5FcQvD1zCI6oCz+L5x1svBKz3hGTy7BsH2RFVyr/8ZD07MtQczlNzunyQj1JLeOtsHAcy2tkaXcTP9/jzxuGL/NDDnyOKRwNq18uU8/VYO8Fa1UhMfj2ZuVms8jhOmqKGQ/v3odZO0zRkpVN7mcbuASLTUyhXaylQNbDtVBCHT/iyziuMlmUEa0VdP+EpxWRXthMfH0pieTsBKUpCyoeoaBuivLGH1T/5BWdS6ji4czdbT6Wx7/BZ/GOyOBscS2mXadnBek9iPq+f9GFDZDGrtn/I9uwutiY3syenk3fORPCTvZd4/1IRe7M62BiUxSvbPXlu7e4VAusB9kTF8MPXt7IxOI03vTzZk9fL9rQ29mW3svrQWV7e78umqEoOZLfxxkeB/PJIHDvSWlYErMMzK/BNKCA2p4CzUbHEFNdyxuc4uV16choHUfRoedMrnotpxfzgh28QUT1MbFYyZy+cILNFN69wkAV5rNOb+Pf9oawKKOJr33+LV8Oa2ZDcwqYMNW96J/G99ad4LUDBB+EZ/HTHIf5j/yX+cfVR1qXM/wXJBYF1fTtrfVM5nljKMz/bhHeZhgjVIL5JKfx843G804vZ6XmIyOou9gZE897BE7xyNHvZPdYCrJNLqvFPyCciu5JXd/oTo2jh7b0XiW/QU9ipp7SxHo+N60gsrmHNr58nvriZ5LI6TnkHcyZZuaJg/QfP7cE/R8UrHhf47W978PvP7OQPvrOfgz6ZfOeXx9gdVsv3fy7BWgLiAwDxbk+s/P1oHviVBGvxcYf87AKef3MPJxIUvLHBi7cOhBNe2Ir3KR8qunRMmibwPufH6xuPkKosQd3Tx/ZdR/mPd4+iaO4nOy6UNz3O0T+iv+N6WKjHem6cdFRmHt/51rf5t1d3EKns53BgBOcVGhIKS/nmP/4DP1zlQUaLbsXA2quwi9d37uIP/8f/4of7YtiZpuKf3znE1tgyvvUPX+f/+u3f5f/5xnd52yeJ//w7v8tvfeW/8id/9yweGZp5e60XAtanS9T8cu3b/NFffI1V53PZm1jKd9ed5aPCTp55+WV+6yv/N9/88W72xyr4xnf/lT/+639h7cUyZ9y1C5ofZTlfsJ4bE90xbMT/zBH+5q/+gQP+2XQO6fFOLKJ20EFQ8Fn+6I//iF+/t5HariE2r3uDv/3Wv3Epp2lZPda3ZxBxkFak5J++/Q2ef2MLxZ0GvDb8jLCUQvILsvi3732HH6/xoqhTx/HDB/jz//cveXf3eap6zMsO1gcKevnRmg/447/8Oj/wCMEjJJk/+/67vOmXz3/76t/yn77yX/nTb/6YtT4JfO3vv85/+5vv8crZ/BUDa6+iXn6xfgP//Wv/yi8/SuXDkAL+7Me7WH06gd/74//Of/rK7/HVH73Ju/sO8ge//Tv81u/8V559ZxsH5zn7yGJirBXdBjbv2MZf/O23eO9IDClFpXhsfo+Cjgn27N7C//r6d9gXU0eeqonvP/sP/N4f/glvnUxZfrDO6uEX27z4k7/8O57bE8uG+Ep+uu8Ua8OK+NuvfY3/87/8Ln/+jWdZG17CM796nT/86jd5/kgmmzNXCKxbtLzvsZn/+ff/jEe4kpCiMrb4RhBW3cuGnVv4b3/xVd4/n0x00xDf/PcX+P6bewiqmv/sI4sJBSlTj3PYcz9//udfZf2JGMraNRwMzSKv08AZ79P89d//M28eiiWqsJrvPfcMX/3H7+KzgmD9n7/lgUdME1euXkc70MvXfnqANy7k8v1nd7HpTD5a0xRlpdX86fcWNuuI9Fg/RhgVE8/LyecfDXAf143ASoK1OMdJ8anfoXHGjWYGR7UM6c1oTTbGtBMYrA4sNhv5OVnsOx5AjrIJ8dWrcd0EfSM6THaH81PBA6Mz63M1WwqwLlAbSarqJrVxnMIuE5nNo2R3TFKgniSpUk1KwygFC5zOb0EvLyoG8CzoYntCDQcLZsI9dmW0Oj3WuxKr8YhRsi2xhv15Xc515++EWsTLYPMJAxF5FwLWAopPFHVyIFXlfFx7qrSPQ7mdnC4f4FBWA3sTKvHKaHX+PpLTzIH0Rk6VDdwOF3nEWOvFgLWA7PYRC+XNgzSPOJwe64YBMx3ayzRpJiiu66aycwy17jJN/XrKW4dpH5u+I2RkLqjfa32+oSC3wXqKeo2VooZ+ilt11A86KG/RUN0zScOQA0XTIKWdM/HUNT1Gcmp6UHabqZ/H1H4Lf3lRw57MVrbE17Inr499uWo8EhrYk9ONR2wVG6PK8YivdYYhbU9UsSWxkf0F/SsH1sUD7MtuZ3tSw8wx83vYmtzCvpwutsRWsjlaybbkBvZntbAlWun8vSutedk91ne/cJjfMkJSVQ95HUaK1RNk1fej6DFT0D5OUnUPRT1mBICnVHYSW9pGRvP4CoB1L5vT23kvsoqN6Wo8MrtYn9TMpnQ174creSe4hLURlWzK6GJDYiPvRtawKaN7RV9ejFL1E1DcRnTTOLGNI4TVaIht1hGl0uBX2ERUg4i71hKoaCO0Zv5QLaYAXAxYi5cQS9Q6Uio6KeyYQNlnoqBdR3mfBUXnBOk1fRR3WyjrmSSrrpfU2j5Keswr6rH+o+/v469/coj/74UDfOXbHvzBc7v5vW9u5ve/u5OvvujFnz+3g//8jUd/YXFuiIgE6xUAawHPWrOdXq2F9lETqn4Dhe1aElXDRFYNUquZpN9gZ9DoYMQ0xbhlCvFBj0nb1EMnGJ8LT3J96SF9pcH6oX1ot1NbU0VqcR0jRtsdXukHlV0KsJ7rvV7q9YWC9XwBeaH5FwrWj+JxXmyexYL1vWB4KbctBqznQvZyrC8GrOczs8di8i5oVpB5ep4fdRaQu/MtxmN9N2Qvx+8FhYIs4CXE+cRVz827oFCQFZr3erFgPZ8ZPhaSdzEvL86F4OVYl2C9RGBtsk9htE05Abpp0Ei8apij2V0cSOtkX2oHa8Mb+ffTlfzjoVL+9mDJbPqXY0oiasZ+4y68tM9CzYCV5lHb7Nfy1Do7Y+YpTPZpJ3BbHEsPkg+Csy/jPrcD6wXaa/e4hfDKEYKUQ26ZTisG2JXbx87cXrdMe/P7OOim6UzpIBmtBvI6TG6ZCtVmSnuslPW6XxLtim/Sc7Z8hDNumM4qR/CtGiOgdtwt06WaMcIqR9w2nSwaYGNGDxsyut0uiXbtK+jHv3rEbVOQUkOEotst0/7gUr7+q5P8zS+OuV36218e53xMKSK880HcJD8Qcx+gEY/nK7on8CnqZVdSO++GN/HcqQq+9VEZf+d5G6DnwvTc9fuB9b3u3kt7LVT0W6kbstE6ZqN93M6A0YHB9uDOe1DHusu+SfsU90qP++bhaQHr3MZh/s4jg79Yl+KW6Rv7C3nxUgMvBrlnej6wnh/5qdwy/cCnhmdPVPK94xVumVaFNHG6bIjzFcNul7wrR0hqNaAacrhlqh+eYsD8CZNXPnfLlNU0wde3ZfOX69PdMj1zpITXY9tYHdvulunV6DZeDm92y/RSSCP/sjWW//HDg26ZXtwcQoyyn+TaIbdLKbVDNA8YHwjVgr0kWM8Ba+GZ7hg1kd82zvsRTTx7soKve93piZ4Lzw9anw9Y3xO2+yyohmwMGBxoLVOYnkAvtvD21w9ZqR28MzUO25yw/Tjh/2kB6/TaAf7knQR++9Vot0z/c0sW/+5Xxw/83TM951PLM+eq3TL988kK/ma/gr/aW+yW6QXfWg4XDXCsdNDtkgjxEWDdPn7ZLZP4OI9x+jOufY5bpryWCf50bTK/+3qcW6a/31vAq9GtvBbT5pbppfAWfnyxwS3TD/3r+Kt3QxY03dxyhFfcXee/rwugsMMwr7jshYScLKSMcID2TtglWD8M3oRnun7ASFbzKJ7pnTx7snI2nONB4PywfYsF67mwLcJHGoZtaAyO2ZCRh52XO+wXnury/t+c8L9KY8Vov783vre7j+RMBcn5tfSMTS7Li6DuBdZTDPUP0D48cydscdgZGRrCZLVjttlQd3VTUtvK2KTlNy7ohYL177wey5+uTeQPV8fOAvlXXovhT9Yk8j/eS+LP1yby+6ti+P034/mztYn83qqY2XzzgfiFgvWPLjbwi9AmXgis/w0of+FSAz8NauBHgfW8FNo0k0Ia+f/Ze+/wts4r3/r++U2SO8lkZjIpk55MYieOHbc4LnGTZVvFsnrvvVCieqcokRIl9t577733AgJgAQkQRCFYwN6LXJJMcr87684BTarZEnEoUZBGep79HOCcFyBEUtTiwu/de76X+fA+K7B2ruJ9Tynz3SW8fhOcv+tezQJvmanedakSDe2zAetnzxfzsm0JT5+6Fcx/c7aIl2xLeO5coQnWnz5dwHNnbl0zU5CfLVhfKtBzLr0B2/yWW8DcNreZs8L5PP0t580B+NmCtaJjHElzD3LD6B1gXts2Qp3x+vT5urYxpAbhncaZQ/xswfrzv/yNobHrXP/z/7kDzP/8n3/n+l/+f/769/9i/JNPGRz7hM/+8//ese5uUD8bsP7uljh+vCOef1l/A8r/dWMMP92ZyE93JfKjbbF8a100P9iWwI+2xfPtdTfWzRTkxYL1umgl2+JUbIhqvAXIN8Qo2RHfxKboRtZGNrItvsl0f3ucinWR5sO7WLBeGFDLsuB6FvjeCeUf+Ney2L+G+T41LA2qZ0VIPUsDa3nfTIC/H2D9jy9b848v3Tq98BsvHuS7fzrOv716WPTmQAGyZwvWxZp+suqNFGmGboHzwqY+suo6KNaNUqIVZjV0kFXfRbF25JZ1dwPuJ2B9k4n+MsgUeguXaXqxTW3iPcdKXrxYItpOfxlk30+wnoLsYp0QGRmh3jhmiooMihyR/WWfjwdxTixYh8XkkCvTkhYVhF+GnMEHYOvnBKwnrtPWoiMtr4wGfSd6nZbUvArTlMX23gEqFGriM4tRt7ThecWLPQ6x1Cj1FFWU4+rmT2fvAE0aPVe8IrjsFUmKpPkO0y8GrP9pfRTrA2q5ktCAa5SM53ZGmaD5mxtjWeBUwT7/auxTlHxwJJ3TCSouxjVwzKuYH6w1H67FgPWHfjU4VnYTIO0msMTACv8bwPxhQD1eNX0kSA2sCa7FSYgilBgpbe5jW+iNdTM15KLB2kXChgQt0dVGwqo6ECBzynxfqzCSLOvkWn4L2/1kvHETdE+tmclRLFi/5lDJlbxWnAraOR4s49kzk8b7Gdsyzue24VtoYI2nhD84VK+lzBkAACAASURBVGKXqeVasJzfirDiswLrfDW7L3ux/NgVlp4NMOXcp8DZOjCO5ScdWOsQy4XboHtqzb2OswLrzglS8su46B6MR3SuqVPJFDSXVOay78JFYqXtJpCu13fhbHuNc0EF1Bs/mTFczwqs//NvlFeUEhgeRUxCMp/99QZcf/aXv1NeXEp83QAT42MUZKYSGBRIfJ6MP//9v2YM12LB+l/2ZXA8sgGfXC0rbXP41hfG+znrdNPPldORjbhHV/H6+SpsEpT45Gh491SG2VZcHFg34lzZQ3LTEFHVHeyImQTmDTEqvGS9hMl6iK7tZk9SM+5VXQTJek3S7VDCXIF1LW6VPUTU9eMptFX0vwHXS0MUeNf04V+sYYFvA7HSXnzLO7BNUbN4jsH6qdXO2IeXsmiP6y3W+7VD4ThGlhL234PNfv7WsVuu3W6l73Z/NmCdI1Nj4+DFiWuBOCdWU/TFyPUSTTfuAcEcs/PmjEcGceVqrniHcs7Zl8gyzROwni0ACvEEbc8IHgU63nS4P3Z6rsB6CrCFo5DLru0Yo2t4guEHAJ6z/TwLjxcL1l4x+ZRreqgrScY9tuyudlvs65wLsBba5Z2/7Mves24kZWTj5hvMzhPOnHSLp7JezapD19h3ygmftEqOHbRj4e6rZBbV0dJmIDwsnI7eAaoULSRXGxgaG8czuYaukVsHxIgB6x/uiENuHOR9+0KyW8Y46p5zi43+t+3pnI5T8pp1KXkZSj66WISyo58lVtG3rJuJuRYD1msjGlAPTrAmrJ7G7lHOJDWYrPU8bxkXi9op6/+cUnUnH/tJeddLxtoEPUmyNj6cQ2P9jqeMaO0YO6ME49rBIX/pNFgHK/oIz9Wy0EvKmw/BWO+KURJa3sJ7zhKq1Z28eanIZKeXBKiILtTzwdUynjtfxDseteSoR4iNb+CZOQbrC0k5vPruUs4kVfDW4lXsC5ZO2+lLec1cSJey2D6M01m66fP3gumbr4sBa7l+kApVFzKNkYj4UEr1Y3gml5HdNDQNzFkp7vxh/gr8i3UoOkYJiUlj2/rjHLqWSN0DBOu//P2/GJv4lL6hMYb6jRSWpDAw8QnFUc6MfP7XL4D5v+hsbSYrN51AaT+C1R4f/wSFJI9TdoF8/rcHD9bvetVxKq6BVy9V4xgu4/s3WWvBRr9zpYotzmXsje7lfJScrTkd7PKpmhuwjlGToh7mbJrG1K1LmJwqREkEQ70rsYk9KVpy2sbZldBkOm+d10F6vZH1c2Wsg1XEyXvYF6uirX+UHZGTcZIFAXWczWlHpukitVrPQj8lyZVd7AxTfGGwbwD4TOInszXWbx6OoVozxLbTfjfBsxWHAwp4a/VF9oUoWb7yAv/wnLiWduaCdYnQ8k/RQWZtO34RaSw86EdSdSurT4aQrpq00fkVBVywsSVbqmDlRx+RJDGQr+olMjmJoIK6J2AtFqSE/LTKOIRHvo5lXtU8f6H4vkQ+vgyqhXMPwljfDNZTt8tbRk0bHruEriIWBthiwToxMZeUwhpC/AOJLFQ+kL/XXIB1W3cnAYWNdA2N0NZcQ1pMGm1dnSRGh1HSqMcluZrB0QFCyxtJCgznanK9KeoxMjpESnyMCawlihYSK3T0Dw3jmSyn+z6A9Y93xKE2dPHi8Sz8akY47V88Dcz/uC6a1R5yTnuX8KPtyQSXtJOr6KNrYIQVJ83PcosB6w0RDeh7hlkeWIO8ewybNJUJrDfFqYlvHCBJO0KDoZ/1AXI+ClKQ0jzEwVjFHZGRmVhrscb6Pa9actonWBNSx+F0Hacjq6fB+nC6Fu/SdhIU/ZyOrJtzY30wRklwQTN/ulKGRN/L25dLTGC9Ob2d2LJ27DNbsE/W8PTJfBY41+IfWjfnYH0mIpHnX93OhUwFi9ZtYq9v2TRA22Sp2GoXyGa3HC4Wistwmw3WnZ/g7uLPh4uWEhwdT0yAJzWdn+IRW0+SYmAarBs6Jjh/3pfgYh3ZBXnsPHqBg7uPsu6YJ7K2iel1U4b7q47mGutPP/9P/K85sWLFSuLSMqlKj+HT//wbTVWh9P1lEqz//OkIzm7OuLtfY59DMPreCUb62vH3dOSSR9wcgHUs60MMnIyt45fW2TjESfnhphsxj3/dHI9XtprXjqezKkSHU0YzoZJudrqWTJvtBxoFSdQQpR1kb4IK9cB1Ludqp+Mgm2KUuEm6KW0fZVeCik2xKpJV/ZxOm4Rvc7PcoqIgMc34yjpZH66gZWiCXdENpoz2kZxW8nVDRMg6KarrYKmfAueiDsJr+4gtN/DRl8RG7gbYswXr/++5Y+z3bGTTqZvB+iwXPYt45tVDvH8hiw075g6sCxQaDh3dzcJVm7jgHcUmxyyyatpYbeVKkmIyDpKREc6R02cpUeqx3rSMDFkLeTIlF2xtCciVPwFrMWAtAJ7w1t1sNiN+FUB/1fm5AuspwBYatAsRkYExy2nVJ3zey1pGESIsN1el4e4Z676BATLzyihTGBgYu9XQivn6f9lj5gKs2zu72X/WF1vPaPLycnH0DuSsYzBHHUKRNxkIKVQxen2UiMpmipJi2HPCi8paNRkFRVifciA0QUJjgwqrc55cdgkgserOXzLEGOvvb4sjzzDMNo9K5B3D7HfIZP21Qp7eGc6zZ4vwy9Xz72sjEDLXP9qRwIHQegoKa/n+hht57JnYamGNGLBeGd5A7cAn7EtoRtk1yumERlwKNCwPlLHAr4bDRZ2UqTtZ6idlW5KOkEId80TYagG8xYL1n9yleClHuJzejE9VH5u9pByIU7Itop4jCY3sj2kkQD6Ab0oDbzqL2xwpNgqyMaKRSEkHa4MbKa1rZYWbHJsYCWvDm/HN0rAxqAHnDAO/O13Ax271BEcq+L2ITZKziYJcTC/n3YXLOBSSwcsfrGNPmJRVV+KxydGxwc6bTS5pnM9s4tJcgXXXp9S2jlCt7adW30tgTDQJ1W14xqYjZDNDg30oazSiaB3i1Cl3/HJV1LWPIdUPEhsQh9WVeGo7HmAU5O//xfVP/8LI+KeMjw6SmJmKytBBlPMZhoYHKUqLZOz6Z4x/+me6e/T4Vxjp7+tFZ+ymoTqfg4evmJWzFhsFeeaqjMspKnaGNWMXKOfVoxlYB1bw7U1xrIzSc8Qxn3/bmYyLagK7KCnWCa2c8ZHwz2ZukhQVBYlsIkM9ikdJB9reMS5maXEpM7AnoZkrRe3sSNGSapg01ofzjQRXtJs6j5gL1cJ6UWDt30CmYhDbnFa0/723aH9cE/Z5TXwcWMNHgbUcSGwiUaJnUYSSA6kaLhV1Ud3QyUq/uTXWX3/xBId9VWw/H8TXnj/A2kPevP7eabb5l7DrbAi+ZX3MW2xzk802z1yba6xLdcPkK7vJaegiIj6DeWvOEJSnYKt9ImlyLQFJ2eTJq7G7dImonDLef38NMRUqUmuMRCQl45pR8wSsvwySvuqcEPuoaR1gb0Q9L18qeaCG+nbAnmuwNsVDhB7ZraOm/LWlxEOEdwqEtoE3l3Duq75mc3V+LsB6ZHyCNmMPWmHiYv8gxt4+0+3WnkEGx8bpGRYGwVynZ3icgaEh9O1ddA8M09HzxbrOQYbGxkyTGoXn6Bu5czeyGLAWgPk3R7LY4yth2ZlM/n1jLGuuFPDUznB+b53BkvNpJoP9zxuiWOVeyVb3Mn6+LYb/LaLziBiwFiIf2xKacS5t53BMIx/51+GYp+HjL7LWq2LU2GaqEbLYu9L0rPavEWWrZwPWQkZ6vm8dV/JasE1X87ZLFftiG9kSXsfe+Caci1qxzdLwnuvcb1585lwRW8KVnE1qZoF9KW85SDkbVcWLF4o5EKPifFITS50rTBnrk8laHNKaWexUZnbnkdmAtV1hCydjilh7wZt9oeWcz1az5moiNrk6djn68pH1ZVacdudkunraZN8c9bjXbbON9S0bDz+hrLYZt8BIIvPqTcAdHupPmbKT0qoCzl66xiWfWKpaJzcrlpY3EpbTgKLzAYL1zd1D/v5/adNpiE9KQdKg4/r1CUqzYhn75M+mSMgnn1+nrvtzPvnkE0qLcklIy0HfPcpfbn6Oe9wWC9bf2hTHR1fLOBpUzUsHEnnhcDpWfuV8d08qu4Pl/HpXAt9cF82P92aw2VvKQd9Knt4ZNzdRkIgGDmcbCJD1YJOhYUusGqfSFnbGN2FfYiRA2sXFHJ2pfZ9tYRtHUpunjba5cC0KrH1qOJjegmtpB3v/Ow63PETJpZwm00ZtwUCvDq3nZLKSD4IU2BW241bazrrQ+jnfvPjrlc4cdkrH2j6CH795hJUHvHh13kl+uewK+64ksv+sP9955daNjXfLVN9+zWyw/iJHLWw6LFL3Ep1ZxEWvaGLKdRTU6whMyaVIO0BYWhE2ruFElhrIkOlw8A3nSmg6GYqeJ2A9U/ASMkpXs5tZ6SO9r5sSbwfor7r/MMB6yl6XtYyYhs/0jT58gJ3p12uu180FWM/F30kMWM/UNt+PdWLAeiYRjvu1Rqyxnsnmw9muEWusZ9rVY7brZgXWD7hF3+zAeubdPb4q6nGv8+ZGQe7WweNBXBML1jONcsx2nShjPYet+cSBtXnm+W5xj7tdm30UxDwDfTs43+v+bMD6bh097se1/7FdQYYnJntR74+o53fn7z3I5avAeLbnHyZYm+y1VuiDPUr70PWHurlRsNO3l2mk+z26tjxoKH1cwDql2mBqm/fNtZFYYv3COt1kk9/1lGKJ9aabhNedKy2y/iBsrj5TaOplLfSztrRa4F6Nbb4BAWItrS4XtyH0sRYssiWWAN791/9m6tQhdOuwtMqs6+WH2xP4p/XRFlnPns617D7WQXXM86i2yHrHrcrUx/prLx7EEuud3T7kKPsp0Y9aXAlwrvmf1se6b3SCeGmHyVI/K3Kwy2yBeurxDxusp+y1sLlR1T1+R5u2Bw2uwvN3D49zOVONTUrTLeWSq6Vr6M5Yw1y8pqmP8biAdWFTN/OdK3j9SqlFljA9cFFArcWWMBVyvrfMIut9Hxkf+shZ4G2B5SNnR4wSj8oOvCVGiysfiZFgeTcx9X3EKCyv4hr6kbSNoxv43CIrvqbX9PPkxYtFWGIJveOFDYfCJkOLqxgl86/k8sPlThZZP1ruzK+2B/D7I/EWWavdi4mt7yFZ2W9xlaIUflkfvWeU9bGavJhSa2SeY8WcZqmnQPr2o6WAtcle60Zo6hln6B7z7aeg834dW/tHedW+1DQCXhgDP1XvO1di6Pvqb86RievoWtro6r9zIMr9em2PC1hXtAywMVrJyrAGi6zloQqWBtdbbH0UVGex0P9xcB3ro5RsiLbMOpqhJVDeSUhNl0WWr9SIW2WHRZZnlZGMpkFTJxGhm4ilVaSs17Rh7n1fOZZYy0LrTUNchEEullZb41S8dSZJ9Oa9e0UlZnv9a89b8avtgRY5FVKIsGyPVRJW001UfY/FVXR9j2nD/7045LEAa8F++pe08NLFud2geDtM33zfksB6yl43dI4xl7lrAaz/aFd6xy86853uDtadHQYunHWmTKa752+G9/oG/6rrT8B6bkD8CViLt/VPwHp2wP4ErMUD+xOwFg/sT8B6dlnxJ2D9kHOyAjRpuoc5k6Q0TU68GWwf9m1LBGthNLqsfYyOoQfTwu52iBUL1sOjIyRGRP2PBuvuvi76RsdpN3YRl5pPeGIu6o6eO8a7izHWqyKUHC00Eijrxq+ijS2RjSbbvTq8kXP5baaJh05FbWyLUeEt6SJQ2o13aSvrIybXmWPHZwvW10raCZB0Yp+tZflN5ntZaANnCtpxyNGwShjte9M1c26LMdaLQxu4WGLEu7KTS5nNLLkp6rI4SIFNfhtn05rYGqPEr6oTnyojRxMazDbjYsF6U5IGL2kPoTU92Ofq2PSF8d6XqsVP2m06b1dg4HCm3nQ7RN7NtRwdW8w04+KMdSdnQtLYdOoKu65GEyQzTttu3xIVexwicK9oI6SmE59iBecCYwiSdUyvMceOiwPrdnY7h7Py2GW2O6XcsN0V7VxOl7HJIZarJa24Vbaz3ymYVSeusSdSdmPdDA357Iz1GCGphZy0d+eKfxqSlrFp4x0Zm8DpK144J8gpUbbh5hvEqcseuMZVIG2dOWiLBesP/eu5WNiGV6WRvfGqW2z3B341XMhtYaXQycJXzqpIFY7FBjaF1tyybiaGXKyxdizrILK+1/RzT+gGItjuXcKkRUkXEbW9+EqM7EnT4iIVJiD24lbcYrYRnz1YH+Df59kyf7sD33rpwLT5/sYfj7P4RCT77eP4ePs1/vGFG9fMsdizMdYORW14lHdgHd/IBzdNfPwgoB6bglb2xyqY76PgWlE7bmUdnIpTseCmdXfbVDl1TSxYh0paOHDRjW2nHXBOl07b7pDSOg5edGLHRR+cclQElNSw29aFrefccMtrnl43E0P+P8JY949O4Jan45lzD2+T4lcBvCWC9ZS5FvpICwNlbgfh+31fLFgLfVljQ8LJLG5A+Brf79clPN/DMNbDI8MomzWU1qjoGhyhSaOhoLKOlq5+WvUaCqsaKK9R0dk/RF5eOvElNWRKGnGOL0MqlRCeX29qW3jz50MMWG+KaaJm6M+EybtpH/sc97zmSbCOaMS2oB2nYiPZ2gHOZKhpG7pOeH0v3YMTnIkyP3IyK7AOU6EwThBU1Ym6Y4Dd0TdiJVZpehTdYzRojawPm1uw3pmsRdo9YfpcCUOndkXVm6BZgPTj+R3Ih/6TrNo2DiSo8C5rx7N+kOSatjkD64tlRsraRnCT9FDf2s++BJUpTnIwQ4dHmZGwun7ilQM4VXfT0DrMlQIDVonqaQCfafREDFgHV6nZesGBw74xLFv1Mb7VAkR3ESw1sPPoAb7xH/OwzdEQUtPKGut9vPjWPAIkrXMG1i4FcpaddmavawALV6/C+QtQdi5QsGjtcr798iZTS0CnXAnzNx9ki2MsNtnNcwLW0tYxqg1jSNTtXPIKwjuxgBOHD1CmmYqUjLN6+xku+ibyp0V7cA9P4vCZK7j5+rN2m80tAH6v6IlYsN6Q0U6icoCAukHCKjpY+EWUZFFgHYfyOshRj7MjvonFgXV4S7oZGh3nbMIcgXWihgL9OFG1fbQOTHAxq9kEzXuSNQTKe3Ap66TMOIF1tgEXaTdBDYPU6gexMjNuMluw/pfXjxEn0ZFflMX3X7eaButfL7tMaLaUd3b5k5hWwDPzj05fmxOwDlBSoBrApaKLOm23aYCXAMMf+tVyIqeNtoFRAovUzPdRk1ndzfHkZjaIaAcoFqx9i+WsOOWLjac71r4xhNV2E1XXzQV3L1YcusLe05dYcSYIexcbjvjEY3XiIGeD44k0I3Ly2IO1sDHOJU/LCw94guJXgfO9zlsyWAuALWsfpfcBt+MTC9YGTSNHj19hx1k/yjQ9jw1Yy3IycYvMpVKho1SuwTu+GKlChVdiKdmJUdh4p5CckERyXjWVlYUU1jdTUqvCISiD2LRC7MNK75i8KAast8U2YRy6zpEMPfldnxMhaZvOZ6+P0pLYPEKKqp/9SRoqjNdN73JUKLvZGz3HxjpRR66mjx3RSnT9YxxKVJnM9PYUPVm6EcKlRlQt3WwOvwHc5thqYa0YY30kTYuspY91EQqUfeNYJypN0Hwgo4UYRS+JhgnyFR0sD6pFeHfApboPm/SmOQNrz6pOspXdWKVqaOobwzpF/UVOW8XJ3G5kPdcJlnZiX96JbvAz09fXKV9v2gw2U6gW1okBa7/CCo67XcBfbsTO4wxOFe2T0Cw34pyUwwvzFn8B1p1cSylk7d7dcwrWDskpHPLzw7lUy9Grx7Evncxou5YbOB0QwdMfCGCt4ZTrVV5+421eWbyeDXYRuM7QVE9lvs011tUto4TF52LnHkxEWj4hQcFUtQwRn+BFgX4KrPvY7JhJZq2BzYsWYR9awOnLrlidvoyNVzLS1vFps/1gwLoW24ohfKWdrIlREyVrZ1nAZEb7ZF4r2Q3deFeOcDq3Be/6YaLkXTR2DGKfXM8HZma5RRnrdD2JLcMcT9egHfoEl5ts9KF0LZVd18nXDXIgpZmDGXpyDBPEVhvZM8dg/fUXrPjdage2eQTzb6/dAOsXV9oTGJHGt14+SFRmGa8sFzeERbSxTjLgVmpgS3Qjur5R1obWmXLapwo6SFP1EyNtJ6JEy/s+KipbxqgyjGKXozV9bads9EyOYsE6MCeTc6mNRMrV7AjLJ0jWRWRdN3vs/NkTLMU9Jp4P9jvg4H2Vrecc2WZtxfHgeCLqZp7lfqzBun9sAs8CHS/YPtix5PeC57tdt3SwFuBa2jb6QDPXwuAToZe4bWrTLeWSp6FjQBiO8uVTIkcmJugfHqVveAyhfeJXrZvN+YdhrNP9o/FKkmLsH0LSaMA/u47OvkHswvNIi4/CKb6K2op8olIKaG6uRdXRQ//IGO3dfej1zcSWqRgYv/XzIQast8Y2oRv9lAtFbUiH/kxIucG0SW5NeAPro1TsiGvCsb6f81lGalS92OQY0I5+hmueahrAZxoHmZWxjtZQrhviZKIafc8IBxOUrA5TsD9Nh7+0mzhFHwbjILsi5hasD6ZpkXYMszNORXP3CIcSlKwMrTNNQ/OuNFLU+QlSdQ+bIpWEKwZwytWyJqzetBnMnA4pYqMgTpWd5Gn7OZmlR901inVKM9vjVWyObWJXYjNnyjrxVQywLa6J/SnNnMs1UtXUxe448zZJigHrwLI6jnlcw7mggWNntuFaacC3XE+QrBPv3Cpe/XARZ9MaCJZ34lVYyyarfXgWNs+ZsXbKKmKfVwCXMqrYfWwzV0pbuVqgxaWijUuxGfzuw7WcSVdy1sOF/TZuXEjKYfuhHTg9YLAWQFiiH6FSO0SZoomAuHCya1oI8HSgWNNPRXMf0tYRNp6IICyvjsXvruLABS9OO8eRXlrDsePHkLSMPmCwlpsiZn7yHnalthNf1cHygBo+Dqple5oOj4oOElTXCZYZcaow4lXZgb5vHJ8MFQvmAqyTdWRoR7HP0WMYvI5joZ49SWp2JDSxL0XD4Sw9oS3jHM7QsT9Fw/HMdpp0Q5yaY7D+h98f4Dtvn2SlSzA/fdOarz9/kH/642F+t8KegMQCfvLuKeLTinhpyZm5NdYROtO7EIcSm9B2DbE2tJ6PAmo4kqHDs6KDTFU/6ZUG3verYWWogr3JbaTWdvCxv3mZa7Fg7VdShlVoKX65ZRwKyiS4uo2wGiPH7X3ZeDWdSz6+LLJ2I1zegU9hA+evncMmOPaJsRZAShhxfS5ZZdFQLQD3owDWRSa4Hnug5vr2HtbCfVMf64kvh+rZwLI5j30YYN3b3UFgcBTHHMORqNsIjYjF6rwXubUaZKV5hOcpaKqXkFlUTb2inhMu0eTLVFx08MEhKB2tse+OXzLEgPWqiEYuSnqRGCfIqu9mb1wzoZJOjiar8JUNIO+cIFrexc44NamaUWTGcRLlRrZFzbGxDlYQWNePtH2MQCGLGdWMR5mB5V9kqnfFN5FZ08raOY6CLAlrJKBxkOr2MfyL9GyNbiat1sDq0MmNirYV3QSV6TmY0oyq/1NqOyfIa+pic8Tk9ZnCtViw3iqMZtaPUWscx6vIwMnMdjIVBk7ltFPaNo7cOI57aRvCdDlZ13VTv3thSqTQXeZBG+sQuZHj7v68sXglq0/64V0gZ9F+WxyylVhdOMdTL77Ch1YOeFW2sPXcWX7z8mvMW+NmAm1z8tXCWlEZ63IDG09f4g8L17DWNhr7pALe2G6HbZqclXt284vnX+Pjs4FcK1Cy2uoof1yynu2uN2WxZwjY5hrrWwxz6yheIREsWrkBK7sQShUGrl4+T7GyG/+AAJas2cpJv3xyqpUcsj7MwlXbuBScPQfGWo6wxyBEMUhl6yjn09VYJalJrOs0TUkVstN7ko2m77GpHHW0rB3rGPM7j4gy1vFN+Nf2U9d9ndTaTg6l6YlRdHI8U0+CehRF7yckNfRinaEns2Wcuq4J/MsMpuiKOZ1HZhsF+farR/FMl1Eg03DpgA9PfeiClXMW33z9BNb+xaSXNHL4hC/ffumGzZ6TKIhvDTENA1S2DGOb0sTWOD2B5appI300pQmHTBXzo9Rk6kapaBnmbLra7MmQYsE6pErLmp17eePjLdgnlOGVEINtSi2BBVJWbd3Ge+v3cSm1Fu8CGfPW7GTblUgCJG1PMtaCvYyStPH65bI7Ok3czR4/jGuPAlgL1lrY0KjoHGPkIYOuOVB8P9Y+DLAWXnf/sDCyfMD0+R4YHqa1q4/BsQkGh4fpGRplaGSEvuFRBkfHaO8ZoM9krHu/GH9+5y8jYsBasM2rIxrZHtfExshGVoU1sDlaxdqIBjZGq9gZr2ZTlNJ0fkP0pMFeJ2LjovBxZmWsg+tZGd5o2lS3KlTBshAF6yIapjcqrghVsDGygWUiNy6KjYIIYLwsVMGGyEaWBtXxUWAd68JvGGnh2qpQIfddx8aoRlOtj1CwJHBuwFqA4x0JavYnN7M5Rmky1XsSBWOtYm9SM/uS1GyJUbElrol9yZP3N8aYB9VioyAC8AZVG/AsVOIv6SBY1oFnsZpAqRHfMjWuuXV4FmtMIO1TqsY1pw73Au2cGWshquFc3Ix9dgPOZe24lrVgn6PCpawVh5wGLqbVcCVfY4p+OBaquZzTiEtF+5xkrG+Ga4l2gPz6dsq0w0gNo5QqjUgNY1S3DFOg6KDqiw2NZU3d5Ncbp+/f/Bx3uy02Yy0As/AL4eqwehb5y03xJ+HdnCmQXhhQxwL/G5nqZcF1pnVT12d6FAvWO5OaEWIfexLVbBf+jaQ0m/6tmIx1upa9SWq2xzdxIFWLdbrWdM0cqBbWzhasBWP9g3dO8ZN5p/neK4f53y9a8503jpvs9D/98Sg/fvc033pR/Mhw0VEQHzlLguoRfhYL/fU/V3aDNAAAIABJREFU9K9lWVDNdNu+hf41JoM933fSWAubyhf4mWerhaiIWLCOqu8muFKLb6mWiNpuImQGQuVGJs9rCCjXElnXQ0SNEb/SZsJru8yCamFz42MXBRHAr6iph0VuEouH6kfFWE9tZizWjaDsGn+oExrvByyb8xwPC6zNeY0zWSsWrGca5ZjtutmCtbmZaXPXf2Qm7M7UNt+PdWKNtTnWWexawW6LiYKYa51ns16UsZ6hcZ7KSos9zspYz0Hf6whL72MdUm8CWAFiLa22xCpNfawFQLbE+toLB/n1DsvuYx1qoX2sBbiWdwzf8c7x7f9XPxJ9rEeuf4KspZ9VPlJ+e9byOoB8mRF/VIz1FFwLozr1fRN3tHO7/Rvmcbn/eIG1ENFQWGQJXQHeuFbBG9fKLbJed6zg9WuVFlkLvGVYJTebAFaAWEsru0IDoTVdpt33wg58Sys/aafJJgtG2dJKAHJhKmRu85BFlneFkQV+NczzlllkvetYzDs2qRZbrxyO5Nfr3CyzNrjz6pkUszdT3w9ZMJPn2BqrxKW8HffKDosrj6oOygyD9+SkRwKsjYPjHIxSPBKmegqyHzWwFgC7omWU3pFbN8c9LiB9+9/jCVjPDYi/cbWc7+9O4Xu7ky2yfrg/nZ8cyrLIevNKGa6lbQTKuyyyQoW3UhU9RFtgCa/LX9aJY1m7RZaT0Iaxyoif1DLrfK6eeZ5S3nSTWGQ9tTecb7xszddfOmhx9Y2XD/GbzV5sjmq0yNoU1cC6SCEOaJm1KUbFwXStKbIjxHYsqawztKSqeh8PsA6vbOW1RyBXPQXVj1oUZMpaC0dZ2ygDY3dmeW8H00f9/hOwnhuwft2hjO/uSuLfdlpm/WBfGj+yyrTI+tPlUtzKJvs8zyYS8aAeG1bbZZFQPQX6/lLLBmvBfvlUGy2yzuXoeNez2iKhWoD9X+8ONcUszNm0N1drhfjH05s8zB4sY26WezbrhQiYJYO1kHG3SrO8EoA/VfkYgLXSOMQHLlWPTARkCq4fRWM9BdjNPY9/3trSwbqr10jv6BhDI8NUlFfgF5ODvnvgjmzXZMba/CjIqvAG00AQYTPgzTGStZGNpg1v603TGBWsiWw0rVsbLg7ExYL19/ek8IuD6fz77uRpKP/u7hR+ZpXOfxxM5xcH0vj+rmS+tyuZn+xL5XsiwV0sWP/8cDa/OZ7Hzw5m3QLlP7XO5unjefzqaLbp/M9M93P5pfWt62YC87MB64CqFnzKdF/STaOTwCoDIfJO04bAIHkngTdNPzQHwsWCdVSdkZAqvWnz0BQEC8fIOiOBlVrC5UYTsEfI2wiu0pt60d68bqa3xYL11SId9rlqrpa23Wq7S9u4UqDlWumkBXco0JjWXbt93QwsuWCsxYK1Z4UB1xIt3pI7wVyYWul9E6x7lBvw+pJ19wL62YD1e14yFvjIeMf9Ttv9npeUt90ngf19bxkf+gj371x3L1N+P8Ba6Bf9td/vv6Vl3TdeOsR3Xj/GN2exOXA2YL0zsfmLDZW3jlTfnTx5fleienqojdAScHvCretmCttiwVp4nJAhFza6T4G56f8IYTN0rMpkwtdFKadz75tjGllz09qpx9ztKBhrsWC9L7GBPXENptan02Ce2szeuHr2xDd+AevN7I0X7ivN/jiPBVh3Do5xIErBb88VPVIxkEfZWE9FQnoe80jIwwDrkfFxOrp6aensM3UAae/uxWDsoWd4lIGhIQzGblqMvfQOj1FfX0VdixFprYp9p904YedFcH49g1/ax9o8sF4V0YBtVQ/K/k/Jq+9ip2nwiwIBtt2qe9EMfkaWspcdcSriNaNoBj4lUdbBxtsg/GYg/6rbYsD6+/vT2JOsp9owgnuknJ/vm4TrX9mUENkwSF37ONLGPt4+lsVbV8uJzVbz9ByC9c+P52NX0oXcMMKFIBm/PDQJzT87nMOemCYq9aP45qh56kQ+J5JbqNQNc8y78BYAf5BgLbTAWrNzJ8+9u4LTcdUEy7tMEB0s78AlLYtd+w8SUGUgWNrK2ehi9kXKCK6ZXPPAwbq+i3Ne/rw6byHrbQKJqOs2QXRkbQenXNx56g9vsvFiAMFVGvYfs+bFP73PVodY0+79mQL11DpRYF3SwoYTF3j27cWstovj2hQkl7ZyPjqbV9afRIDOq7n1LFq/gd+99REbndNvBfCpx9zlKBqsq1rYfe48L36wmv1+edO227uqFcesahbbp+Nc3mY671qoYMluB06kaabX3Quop66LBev5PrWEK4Zo6BrnbFIjb01FSdyrTS33gusH2RDewNroZoraxqkzjnIgpt5sMz5bsP7hPBs22ITxi3mHpsH6H54/yBaXXCoUbTg7RvO9P964Zo7tFg/WauLVI2gHPiWyoo1dX0Cz0Lc/o2WM1pHPSVJ0szNFR1H7ddM6t0K9qYvJTIF6ap0osI5sJF03RlPPdZxztNNxkj2pOgrbJ9APfIJPWSvnSoyoBz+nffyvSHSdbI25AeF3A+qpa2LBem98Da+u2MTP31jFGo+CaeO93TeJ3779Ib+ev5m1fhXsCs3jd+8u4T/mb2ajf8n0umkQv4spf+TBemj8OvGyDv5gV/LIQfWjDtZTXUIGxx/fSMjDAGttnYRrPjFEpleSXtbANf9EEjILCcmupiw3lfNOoXj6RZNSVE9OdirRBVKKZCou+yZSXVNJtrzpvoC1YBaahj7FqdyItP9z/EpbTNZ6VZiCnYkaXCq7yFEPcCxFjW5ggkRlH5quYQ6Y+libZ67FgPVzp3Opau3no6slVGm6WXUlz2Stv78vjRfP5rMuSEWKrIMXTmSzK6oRSVULv51DsH7PqZI8VTfLXKuQNHfz3sUCEzT/8aqM8MJW9ofUsdSlko9c5RSqurEKr2ehXQE/MTNyItZY27iHsOSgM6f8k5m3xRb3L6YbBla3cNzZhQ9WrsKvsoXAsga22fuwJaBszsA6okrBMZdL2CcUceTcXnxkk3Y6qFLP2tNBXI4vZse1BGyjszh44iTHnNx4b/1xU8usKWCe6VEMWF9JL2TLVResg9PZfGw3l4on7fS1Yi37rrrxs7c3cTpby6XYFDYcv8imMxd5e+ulOQNrl5RElm0+wMmAaPbb2+BeNRkl8SxVc8QrhDeOhuFUZsA1t5ajQWm8ucGZI8nqOQPrA1kdBMh7OJRuIKyilQ88Jm30kpAGgmp68KkYYUOkijNFAyQ19BGuH8cuVzunYP215w/w9i5vzkal89QH1tNg/e0/HiEyt5p3NzsRnlzMh5vsp6/NCVinGcjSDOFa2k774ASnM7UmO70zUc3ZPANRykGKDMPsTtFwvqCdJM0YGTXt7DRzgI0A16LAOsVAYn0PV4taae4SBmRNxkmEVp2nsvUkNg8T39DL5jgVx7NayGi9ToSsg7Vm5rnFgvWu8EzmnY9mvWs0H1yOZ29yswma98bK2OCdxfwDp3jvXAzbfSKYd8yTeXusWecU+T8LrFWdQ3zoUvVIQvWjDtaCtRaGx6h7x++IHjzq2eqp1/8wwDrFMwr/3EYGRseRNLQSXtjE0Ng4F4KzSImNxCmukpqKPKJSCmnW1KHvH0SqaiVV2kJPrxGP5MqvGGlunrHeHquia2gC63Qd2Z2fE1EtjDSfBOY1ESqcq3oo0A1xNFVNbdcYKepBVG2DWEffGhuZeszdjmLA+g9n8lBqO/iNdRqFun62uhVNx0G+tzcdh0wDux0L+O7OJF6xKSC/VDunYL3EpYoCmZ5nT+VRZehn0ZUiE1i/F6EmVdGLa14H8VU97PLRUa3qxbXASFWdgT+cMC/LLRas9132YfWVZDyza3lnqTVOJa03+kAXlbNq+1YTWAt22i5Lwc4w6ZyBdWhJGWfcbAir78bJ3w53ySRYB1bo2HIlFyFess81h1Mh6ZxwcuGIkyeLt12YM7C+GJvAfm9vHIp1WDue5ULhjc2PFxPyeXaRANYaLiams8PBm7Wn7Fmwx2mOwLqDy6GefLTWFrf8Ok76OONSeVNGW9LCgstZXCtQsX79Ap6bt4pfvrCAlXbBeN0UD5my0nc7ijPWMi6UDuNV1c7HIQ2ESgws8JLwpns1Z8q6KNP0U9DyKVHyTk4U9xFV30tp6ziXMptvmO0pw32P42yN9T/8fj+vXgzml+/fAOt/fe0oiSl5/OjNI3glFLNsj+PcgnVuG9FNvabuPx1jn2KTo5vOaQs2NU41RIF+mN1Jag5m6knSjZFdY0QYlDVlomd6FAXWeR34VrdzMLWZ1qEJ9iSopuMg+1KbSWkeJkbRYzp3PEtPTWs/e2Map9dMGel7HcWC9e6AGFb4V2OVXMPb19LYnTQJ1lZpGvZEFfOxrRc741Xs8Etk4flAXluzg1XOyRy4i6G+3WI/0sZaGAQTUt7KczbmRUDec61mlW8N8x0reeZcEa84VLLCR877ThW3APpHHlJW+8p526GMFy6VsdRbzofOlTxrU8rbjvcnz/0oZ6ynstaS1tEHOpVxCnIfxvFhgHWLUorNVV8ueieRVtbAJccg7NxDCc2RUpQRj1tiNfVVhcSkFVEtk3A5JIP0SiWnHIKx9wgjJLuG/rFbu7aIyVhvjFFR2f8Z4bU96IY/xT1fh0txKwcSVNgWdGBf3E6KZpCzmQZ0XWMEynroGPkEu3TzAF4AbjFg/fSJXLJbRtjhX0O1upPll/I5FlzBUweTWOhdi29GMz/bncz396awwltKhbydhaezpuHbnI2SYjLWrztUkqkeYHdYA+WKdhbZl2MTJeEdFzkeuQasIlV45XewyUtOTk0H+6NUFMv1vHLKvJy1WLB2DI9i6c7jHHIJ5sNDvtinVmIVXEyAtA378GjeX7YCh5Qagqo0HPKOY4V9NB7l5m+SFJOxjpJp2GvvxGHPcNZsWIdfqYJtdv44ZzeyYp8d54NT2eUYjI1/EKt37OeMTzCLFq8mos78jZJijPXVPDnLTjux9YoXi9Zt5kJKOYtP+WGbreaoTxhPvbWEAxGVHHW+xlKr82y75MT8FTtvREbuEv+4uUOJ2CiIZ14pa3ftY8+ly2y0Po19Rg3LLkThWqzhQmw2fzroiU16Pa4FjVzNrmfhbk8OxtbNmbFeldhCZF0fntX9+Be1si1CgWuR3jR9b4l/Dcez+tiToiFE/ynxNZ2E1I/gkdfCO/cA6dsz17MBayGq8ZuldmzxT+P9tbZ859VzrDwZy7dfPYZ/Ti1rjoQQl1HKm8vFjQwXHQVJ0iG0vY2q7UPbPYJNbiv+EgPHMlvxk3bjJu0hQz/K0VwD3tVdRDYMIWnsYf9cgXWMhuLmQYLlvdTqhV8ADHiWNnMozYB7eQc+tf1ENPSbQNpT3s/FbI3ZUC1At1iw3hFZwh93O/LxqcssvhTKNt8E1gdK2OQUxR83HudjuwjW+xWx9twpPjzrx4IDR/n4cpRZOetHGqxrWgeY51R5CwxPbQq82/Fsuob9CVoiJd2s96ghWNbLtXQ1i1xufa6zCSrOpBsIL2/mYr6BY4laTqa2sj1ShUeW+r5slHwcwFqIhOj7Jx5La/0wwHp0YoImjZai6ka6h0Zp1mjIKa2hrW+QjnYDjYYeuruNaFo76ezppVCqxNAzSG29kpzyWtr77mxMLwashSy1VVaL6XvfLk/PlqhGjqdr2B6j5EhGCzZ5Bk5n6tgcpeRSgQHbfAOXcnVsjDQvBiIWrL+3N5W3rlbwsVM5HzsU8ov96Sy+nM/P9iXx4plcXj+Xa4LoH+xN5Z0rZaxxreCts9lzBtY/PZLLYg8pKz2kLLlawm+O5bPKuZhfH8/lQ2cJqz2lLHSs4Den8lntLWOlcP9yET87ODfGOliixTYkmdNBqTjkqPEsVnIxtZ5AaRuXYnM55hXLtTQFQZXNnA9L50Rw5pyBdbSiG6e0Cs4FJWMTmkd4tQ6byDwCqlpxSsjjQmgaV1MqCK3WcjkihfPByZyPLBLVfUQMWDuWtWIdnMNejzis/PO5nFPPbp9s7PM1nIzIYYdTJMfjZKbzVt4JpnUHQ0rmyFgb8ZG0cyk6iyM+8ZyPrcK5sIlDIcW4l2g4H5XNQZ9k7LIap0HaNrEOx5LW6ft3s9Q3XxNnrCW85Slnd0ITR1KbWRNSx8cBtVgl3MhaLwpoMEH2iggV1kKP9lQNq4Jr5zQKIoDvsysvM2+nO68ssuHbLx/nxbUuCINTfr/elXnb3Hl3o4PokeGiwTq+CfuiNhxLO7iUr2dfipaLBTqsUnVcKengakm76Wf2vjQtV77YQHs2UzN3GeuIBi7kGbhU0MqxVGETZTOnM5rYmag1/R9xscDAkbRJmD6UoTdter+Xnf6y62LBen+ikpVXYlhuH872sAr2RBazPaqeHYFFLLOLYOXVONZ6F7EnqpwVDjEstwtle5jkf0YUpG9kgmvZGrOhWgBuwVK/4SzDs7iDY1nt1PVcJ1vRx5mY+ltg+R3HWqJlfTjnqLlW0cnGwEZO5fdxNa8Nr6J2vItaeWGWGyYfB7AWzLW0fZTHMWv9UMD6+v3PrIsB67tFN+73NTHG2hzjPNu1Yoz1TDYe3o81Yo21ORsQZ7NWjLGeaT76fqwTB9Y3oh83G+b7fVussb4Zfh/kbbFgfbtZflD3Z2OszclLi1k7G7CeaZRjtutERUHM7O7xZdA8k3Niwfr22MaDuP/IGuu6tkHed77VMN/NUt98bbl/PVczNaz1qmZTejt+RW0cTdQRVmTktfNFvGhbzG/OFvGqfRW74ptxrWpnoZeMNx2qOJyk5WJJF17yPqzitWw4b14M5ebXIdx+XMC6SDdC68DjZ60fF7AubxlgQ2QDy0PqLbJeM/WxTua7uyyzBLD+8cFMi6w/2ZfiUtJKoExoiWd5JUC5MOLXEiuyvgcBrJ3LOyy2vCTCcJhOi6zzOTrecaviDedKi6xf7wrl6y8e4mvPW1levXDQNCBma1wTllrrRWxEv9/S5aueb2O0koNpwmAYncXV4QwdaY/igBihrddLF8V1AsnWDuOUo2N/ZAObwprIUvTgVWDAL6+FjcH1FChbeeGCDNfcVrwlvcRVannZtojfXChhS4KW+YEKnKX9OOS0svIJWDOVta7pGGPgtmzvw8hF38+P+biAdW5jJ3+8WMizZ/Mssp4+mcvPj2RbbP3iaC6/PJZnkfW8TTHLfWWsCZBbYNWwP07J1ZLbej3PMGN8vw3w7c8nGOFAaReJjQMkWWAlKwcobhlF1nXdIss3X82vNvnwo9XuFlk/2+TLr3aHmgbFCPbaompPGK+cS2dZSL1F1tLgOt68Vs4zJ7Mtspa4V+Fd2UmAtNviKlDajaR1+NGavNjUOcwqH9ktsY3bTfDd7i/1krHWv4Y1fnLeuFzKey4S0/O9YVfMy3ZlLPGY3NT4kaeM1T4yXptq5Xe+mNcdq0xRkj85SVjuVS36NUy9vsfFWJs6hOhGaO4dZ2Ti/kcZ7icsm/NcjwtYp8ra+PGeJP55S5xF1g8PpJn60Au96C2xhH+vT5+xzHrqdCG/OplvsTXPRcKxTD2nclosrk7nthAk66HSMG6RJWmdoHX4L4x+/n8sshIKVfzLq0dEdcUQE58w9zE/XuPBn1yrzM5mP6hoyu3P+45HNe/7yi2y5nvL+M3JHL65Nsoi6z3bQjKVg9Nib0rwWcLR1C2t597d0v4XX/HHHEi5X2udcrQ8O0tTPAW2D/v4OIG18A0tbx97rLLWT8B6bkD8CViLh/YnYC0e2J+A9eyA/QlYmz8N8ma4fgLW4qH9CVjfx81YvSPj7AitE7Vp8WFD9Jd9/McNrCsNo3Q/RtMYHxZYj0xcZ2hsMrM+MjFhui2cmzo/ND55rbPbSNfQCK1dfaQXSEjJLSerSnVHuz0xxvpft8bz+7P5bPGWsNQ2jx/vjDfZ7n/dlcx718rZ7C1hp4+E5/cn853tCbwnvONzPF2UERcD1s/aFLPEr47DwiADTykv2Hxhuy+UsjKsgcNxKraHKviDfTmbI5QcTVSz3E3CcyKsuPBv11xj/bvzxawKVHA4ronlzpX87tzkc/z2Yhmboho4FKNknV8NL1wsN3UaOhKnYp5DOb8104yLBevfnStifZCCg9FKPrhcylOnJq33U2eLWOxTi3WMkiUulaZ3EBa6VrHBsZynRZhxUcY6W4dVeCFr7UPYHlDEyexJ430yS8eegByWXQhgm38RJ7L0nMxqZodPPltDasw24rMD6zGyZc24R6QQmqegTD86ab1bRsiUKHGPTCc4r54idS8hcfHYeUUQmFFJ+dS6GVjyWRnrz/5Gs1ZHSlY+FQodw5/9fdp6q5p1JGUVUKHupHtwkNysRMJikkjLrWXkpnX3MuWzBevvv32SBXtc+OV7N/pEC1b6qaUOrD4axJIt1/jOH6xEG3Gxxnp9lIoLOS3sjahn3hfDawQgftujmlVRKo4nNfK+VzUHUpq5mNvC1tB6s1sBCs8nDqxr2Jeqw76glT1RDSzwu2G8FwbUsitFy7HkRj70k/NRcD0ncgx8FFhrthUXb6yjef9yGRvdKnh+dwL/tG4Snn95JJs1LuVs9Zaw7EIB/7olntWuFWz3quKPh1L4lplmfDZgnafsITK7nGshaUSV6ynQjkyab80gEVllXAlIJqxYR3Z9F7FFtURVt5Ov+WLN1Nq7HB8pYz1y/ROyG7p4/XLZE7C+yxf1Yb4VIrTea5rBWyD3692LB/08DwOsBwa6Ka2SklwgRWfsp0IiIy6zmDpdO6o6KREpxSTnVqDt6CE1JZ6A9DKUxkGa9O1IqsqJLqy7L2D9k/0ppDf1sTdYTn7zALucckzQ/C/bEnjqSCZv2ZaY9iq8eiSVedcqCMlsZYtT0ZyB9dtOVRQbhtkepqC8uY/NXhWTMRL7ck6V6jker2KDn4wP3aop1/ZxLrOV1NJW5p03P24iBqwXesrIVPWxJURBaWMnC6+VmOD8mWsSrlXqTOC6zL2atf5aYosN7I/VklSi5TUb8yBeLFivD1EQVtnOtrBGsqoNvGo7GSl5z7ue1MY+rqapWehYzjueteQ0DxMb38AzcwTWJ1PlrLS5xhbvNJbs2snhDI0Jmk9k6dgdVsHuoHyW2wVilaRij288L62+xLu2eZw0M24yG7Au1/TgGx5BYG4dl8OySG3oN4F1ca2adSs3cDm8gC3bj+CRVouz4wns/eOILddQ0TI249jJbMB6YKCPlLREymsbifG7Rvf459NgLW9uJyYpi32nXJErFUT4nCM6NZcadTcjn83cYs8WrHdeS6K2oYGFm07eAs++aRI2nwknvb6TDXsu33LNnDiIKLD2rCFI3s+lTB3ylgF2hctNUZK33aVsiVGT1thNiaKV1aF1JCt78azoJkfSwTIze2yLBusgJXF1/djnGVC09rM5fBKaFwTUcjijhRJtH6lSPYsCazldYCRdc9002MvcyIlosN6Zg2uCkk3uErKKGvjpthhTlOS7OxJ51jqdTf612ETW8TubUrwyG7FJbcPRT8K/zSFYhybls9zKCc+kcrZfiiNdNWwC62xJJTa2F/FPyGb12l0EhmawZMFiDvvlktv8mIK1MBDmSmYzvz1X+ASsLRSsBaiXtY/dM7T/oIH4fj3/wwDrsrgoroUX0tY7RIFEhUt8Ff1DA1yNyCcjIRKHkFxKstOJSilBo62ndWDI1EN8cHgItyueyJra7+gpLsZY/4dVKlpDN6+czsNbOoJNWOUNaN4axyZ/KV7ptTxzppiKhnYOeDWw37uCH+5MuLFuhpluMcb6Q1cJmtZe3rxcSmn7CNbhNZNgbVfO5dpBBq7/lUJVLws9ayjt/Az9wGe4x9bz/JTZNsNciwHrdf41lNS18ap9KZKOIVZ5VE2C9VUJYbpx+if+QnRVOxsDlSg6RklrHKJJ38V8+7kB68MxSoLzVLxxpYzKlj7evlzCr07lsy3XiGbsr/SP/wWfXB2/PpnPAuc6/EPr5gysj8bmse7CcY7ntLDH0Za9KdppGy1Y6wPBqaw+68FezxAW7rVl8Ykw3joR/+DBumUMT78Y1m07QEBsCoGuLpQZxnEIqSOsejKrnZUn49XXtpNQ28n5gxuxcy9g75aF/OBnT3Hoog9lupEHBtaD438mwj+Y/QcPk5ieSXFsBIOf/oX66nBarn82DdadgxNs3LYfj7hyDB0adi57lV8/+zI2Xkm3mO0HbawFSL7qHXMHWGfllPH8UnuOxnZy2DaQf/jvdeYA9dRaUWAdpMC7sYel/jJqe8Y4ntBgAut1sWqKWkfZHNlAfl0ry/1qyFQNYRj8DJ90Fe/eZLZvjnvc7bYoYx2vwUtuZF2EAt3wdXbHNJhs9OG8NooNQ5zK1JAmM7A/r5N4WScB8hF2xClvMdszgWzRYG1Xxa6AMp6xTqdW38WvdidMZ7T/eVMs+6PVLDiRyne3plGhGkDbPc5hv7Jpsz3TTLe5xjpXoeeM3Xk2HDiBjU8M21zzSZe1smafI7G1AyawTkry58CJ0xQqDRzftoK0aj2FdUp8cuoeX7AWOk4cj298ZMFamBD5gm0xb10tZ2OAnPMpKpxztZRqBqg3jpnyyVWto5ToRhDM78M0z7P52KX6kccmDvIwwDovPAa3+HJaewYpq9Hikyqls6/PBNbpCVE4xVdRaxppXkCTug6VsZfh8QmaVXVEFCkZGL916qLwS4YYsP75gVQqWwdZ6VZJtn6UY97FvHoqi5/tjjPBlle+nheskvj3YznsDpRxKU6HR2ojLxxJnROwFiIGNcYRPvaUIjUMsj9IxiovCa/YlbHAQ85iLznOsn42BunIqzCwwqeG6uYu1rjOjbH+2KeGgqZeFrnLkOl6We0hDIWp5GW7cha6S1kd2siV8i5eulTK+y7VHEwyEJ7dxAtmxk7EGuvtkY2ElRtY4iWnvNHIAsdKlruVsjZWx/mEJtb4N+KYqOe50wVLfnTCAAAgAElEQVQsdVcQHKng96cLzN4kKSYKciKlmlW2duyLrmLlvk1YJdWzxTsH62Ql668EscQuAavYWvb5xvPRUUdeW3uSF7de5ViOeZskxRjr4qZecuraKWpswy8qmES5katR+STUdpOUX05WmYTFHy7FI72O7Zv34JykJLlCSXxBJa4B7pRohx4YWI9+9nd6hiZo6xnG2NVORk4CamMP6WGOdAyN0tioYGDiLxj6xqhvULN20W4KVJ0oda1Ulhdy6pgtQ5/8bRrAHzRY/+PLh3AJSGDZtrN8/feH+PVCG7750gGi82Qs3OdDtKKf3Udc5hasvWsJq+3nUKySxs5hrGMVbIqoM4HslQIDQlU3dXE4vpVkSSdWCU00GHrZGmx+3loUWIeoiK3t5UiKBl3PMHtjleyKU7A3WY1TSRuB1UaKFEb2ZOhxLO4gRXOdqwUtfBz4/9h77/Cm7jzt++/d2X33ed9nd54t1+zuzO6zM7vTNr0RSEIKJRAggdB7MxgDLthg425s415x771bbnK3ZFuWe5WL3HsvkASSzM583ueI2NiQDZaMjcgD1/W9dM7RT0fHkjj6nFv37/5WqmUH0RisdXK5EVnNZqsCyipb+U+9dN4wECwhUWxzkeInbuJvDsbxuV8nhm7FbHWS4pEu4x+Pque3VhescxXjiKq7SZF34ROZzicXvQnLb2Dv1RASKnuJLaknoySXa9ctiS8o57Ndu0ks7SCjVI5bSimZTePLZrJnygrSOjCB4PX7Pq+yNm/7rVkeHwofntw2susHKGsfoXN4iuGpWVU83fjMHBOztxmfuc3w1By947N0jMxS0T31zAK2YAf5MaSDPA2w7u/tJC0nn5DkApq7hsgUF3ArKh1JXRuVkjyi8+tprqsgu7iSphYFQUkFtPQMkJKeT9vAffX6YcVeE7D+XyfiVZ0DBUvA9YAyXtRLwyhYxuv6sWy0LsLQv4i/WVCk43jZoICPrt+3i6ibPqKJYv2iZSG6ia14FfZgEV3HBw5l3Mpp4iMnCUbJ7fgU93A9voH1DuU4FfZyq6QXw8haXrdaG7B+yaoIo7QO1fEZBFXyoWMFQeJa3r9ZioWoA9+ibi6EVrPeUcrN3E6cRS1ssb9vF1HHz60pWL9iXYyZqAPPvC5OeZWx1aUaX1EF6+0lOGR14J2r5IxfBW85luOc20N8cRd73ErWBKxNMhWc9Ihik64lu+0i0I+Tsu64OSdDZLxzzJC3D13mg/O26ERVq5TsY56F7HKVLKjay00g0QSsFxJEOqZIyJFgZOeKY4SY/KYhHOyukiKpJyJJhKGtO9ZB6WTW9uMZFM1lC2dCs+SUrJEVZOrOXUqlxbh4+xErymdgeIRIX3v6RmcoLCnE3SeAhFwZHQPDRIdH4OYTRK5MsaYe6816fgQnlmBpFco/vHSFvYYB/P3benxwIRBLnyws7CL41/VL/dfzavRybjVSrN3KuSRSEl45hENaC7v8a3AtaGW7731w/tBLhlduMzv8qvCQ9hJRNYhFShObPNcIrH2rsCvsI6p6GNvUZg5GNHNLouCTgPte6yORdbjmNLNV5b2uxiCzj53BNWpBtaBoawzW+2PQC6vHPrGJnSZpvHSlkKsBGfyvI/Gc9CnlI5MU/se+KP7lvIgbyU24ilo4YJfJ/zywumC9WCzMqFRy0y8CPUtP3FMqEckacAqJIruxD7eACHRNnXCMkhCfJeeiwTWO6JsTKmn5cYJ1VFkXguqrzRC9+NheMC9gj4+MWFk3Tf0TKnh+GHh+aF0A7e6xWWRd0yoVe/EHQ9uXhXQQ4WLhh/6+Z+G+pwHWq/G6aALW6sLxSsZrAtZrGcsn/L9WB3bXcqymYL1WEX2aKNbLBeOVjlsRWC9j8uEChGs4diUe68epzU/i/pV6rJcDxysZoxlYqw/IP2T3+KH7NFKs1yieT2OwVtMrvVzrx8Pj1FWs15KZnhnFWlA/3cVtzwxUv2pdiJ2omZqusRUBpjBhc3h6jvaRWUo6ppZ9xbSWH6Lve66yzqlHJtCtBjCu9j6fg/XzuD0B4J+DteY52c/BWvOM7OdgrZm3eh7Gn4P1g8SQ5fiqF495Dtaa23GfGbDun5jhRHDVMwHWgo/aPqOFgfHHB4SrA4bK0Rmknc8GXBd1TNIz/uy3OP+xgLWkeZBDnqXsdi7RytrpJmWLR7nW1sceMrS1dnnLORpYw4lg7Swh5tC1uAc3Sa/Wlbukl1ul/YTKBrW0Bogp6SAhv0kryzWyhE8u+LFFx1sra4dFEnuDq9kbUqOVdSSynvMJzdpZ8U0c9pezy75QK0s3uIroqiHia0e0rhJqR6junXzsL/ZPvUGMXDnKqxq2MF9sz1jN5d+Y3vdSJ1b2rlpr777xOWRd2g/Xy71iU+fC4mmM/bGA9fSdL5m7+wfm7v6XVlbVwBzeZT14amn5V/QRWjmglZWpGGfszrfM3fujVtbA9NdU9sxR0S3MG9GuKu+axSm/W5X5u9lXjrbVh55l/NtBT/7qtUtaWdt1b6EcmmV4+q5WlrRrCi/hnFKqnRVdM0SpckYrq0w5Q8fYV8ze/S+trJrBO9gWdGGR26l1ZZnXSbZi5LHpaE8drEMlnQgNDVYTjFe6bwH8Q6WdCJMRVwsCBWuI0IBFotR+uK7sefZ91j8WsJ794ivufvsn7v0Braz6kTvcqujFV6adFVzZT2TNoFaWuH2Smbv/pZXvq/B5G537lpre21T1zGldybvvg/UH3hVoY73nVso/73XTKGpu3g6xmrdCckffxIN87Cfh236S+6jom1WdU3zKe9HGiqsdpqJrVitL+L/RN3lPa88rDSNfYpPfxXWxUuvKPFdJlraD9ej0rGrW7UrBdzUfL6jVuhG1dI9OrxpUz8O6ANddY7MIsXbf52/Wlm1CF8axmWd7AqO2g/X41BRCvrvw2RibmESh7GZg4tHP4ErA+ou739Dd3Uvf8BRffrMUzr/46i59feN8+fUfmZyaprWji5GpO9xVE+A1BWvP4hZsk0txK+5YCuXl3XhIOlRfpipYL+/BVVyDZ0n70nHLBHlNwTpI0oJbhpyQit5FUD5AQFET7lnVBMl6iKju51Z+He45dYRVqQ/wKwXr23e+QNnVz9Sdbx75Ep2cmmNg+A5ffv0H+geG6Owb4c499SD+SYB1RccEWeXNiGv7kXfNLgH00pY+JO0TS7YtF+JXAta7gms4HFHHZ4GVj0D5J0E1fBJQxQe+leyNqOdoZD2fh9Y+Mu5xMP8kwPqn6wz46Zt6S+D8L169zL9uNucX717hJy9o7mNeKVj3j0zQ0N77CJz3DI5S397L0OzXjM/eoam1g6rGdhRdE8uOAhQAXVOw9ixSYJcqw61Y+RCQd+OaVYW3tOv+9rIeXMS1eJY8PG55IL8SsC5VjJBa3IC4rh/ZIjgvaxtDVKYgr3EUWec0BbVdJJc0UtA0ohbArwys/8Tc7Tu0KXuYmP3qkfPKxOQcfaNf8cXXf2BwcIiO7gFmvnz0/PNDQpDGYJ3TgWG8DL3Icq5lti1AuVlWC5eiJFyKqcA0ux3TrBYuCutxVZhmdyyMWw7IPxNg3TU6zdHASq1Wqz9yllKsGHqs9D8Pxyu9FRI3avqmESwX2gLSDx9HUfvUqlliVvr6LffxTwuse/v7qW5RMjYzR99AP7I6BUMTUwwO9lOj6KS+rZux6RkkkgJy5E2qLoyJSRkY2/pQ0tz9yOdQY7D+9o+0VBaie+o4F/TNaVCOLDpJ/pF6SRqn9xkzODxDYrgL+/cfwNQtisFZ9U6SmoC1d0kLp4xMeGPLbnaYBuEm6f4OmnuwTczhiGMQrpL7Crh7fjUHTh7HIjJnzcA6VNLEsfN6vL19Pydck1U2EkH1DpU2cMbYhHd2HeHszQjcRSVsP3yC9/adwyyukgg1lfGVgPXt2UkivF05cug43uGiRe8tzMzOEuDujIlxBkMjI1y/asTx81cprB9YMu6HvvyelGKdmJPL3kNHOHxOiLPrWIDoktpGDI2v4JJRt7BtuVAtjNMUrDf7VRFeM0xx5zSJVf1sWaR47wyrJ7R2Ckuxkg/CG4jvnlbNjQko61tzsP75ZktuBOdwVM+cP1sE0O+bxhOdV096jox3dpotuU8dhXslYC0IAj6+7hw6fho3vwQmv3zQ8dHppiOfHz6FbXA+zQ1SdI/vZMen+7GxT1kDsO7mrI0r6z45wKcWYbhLer6D6x4cE8R8tHkjNzOqVdvcxFUcPHUGm7iihwB8dcG6rHUUVzcftm7fxxlzP3KbJu5Dc+ckkeHBfH7wOEcuORBXouDiVQu2fHoQa/8kypTTy4brlYD17dlZQjxdOXjgGG4R2cx9/UCQmZ6dwdfZiQu2EjqHRrA0vcLxk2fJldWqdV7RFKyNUyvZsO8kL2w5zDGvTMxy7ivel4KSeWPHfl78+AiHfPIxjMzgtR0HePHjY5z1L/zxgXXb4CQ7Pcu1FqxfsykiubJ31ZXqh2FQyLwWVOGHgVZb1gWwHplaPVvMw6/Haqw/DbAWcqxtbJ3YdeEmooomrG64sOXwNSIKaihIiWL7cTN26diSXtqEqYkJ751xwD1Njl1oHo3t3fSMTK4YrCdnv6BV2UPP6DRJt2wYm5yhJi+WQrFYdfK7++0fGe6sJtjfBdNzJgyNfsWXX31DV3srXlE5dE7cVeskqQlYOyQW88rWCzgWKFn/3m704hsWwNoqJp2DNr64SHrxlLRi5OaEvqkJ9sHpawbWTmHpfHDCgVsl7WzYcgL7vC6Vau0RHYutbwihkgZMzE0xCUvimFsatrGFvHPMn4BK9SwnaoP1t39EaHet6BqiviyLI1fd6R8aws/edOE9u3vva3KL5Ny0vsQl3bjvtv+JhpYeoos7F8Y9DqpXAtbFdb2kFteR3zhIbJQ7hc39ZGfHkpidvQDR+TIZp/Ycwy6hcmHbWoD1gegW4mSd7AqsIb5xjJNB960kW/xrsJcOYJHYz9WcLj6IbMSjWsnpmHo+D6lZc7D+90+s8YnKQc/Yagk8R+fI+OScB2cTOvH2j+UvX76wRNFeLlyrC9YTt++h6OilprmD5toS8svEjExOkJ/gyuAisB6bu0dBcRmHr4ZRV5WHOCuK2pZOOkdvrz5YS5vY45rAjdxW3ty4H4MUxXfQ3I19ZDKvvPmf3EiX4yVp46KNJSfPnMUxKm8NwHqGgjolyUV1pEqb2GvoTU7TBCbO0XjmKFXALGtScPbgLgprlNy4epqbgQno++aQXFRDeGYBpasI1ne//S9GRoZQtHdRW9uAjkMsE3P3uOYUTuPo16pzxld375GdX46NmR6Hr4iZ+wN8efceDZJMyuSlap1XNAVrwzgR+/xLMRNVsNM1FePM9iXQfMTakW0WUaptZplNHDO5xmnH++vLUauFMc+EYq3tYL3bR0b70ONngD5p8BMiCOv7p7UWrAvbplTNbp70372W+3saYC0KiMY7pYKe4XFK65QEZNXQPzyKdWg2KbER2EcUIckTEZGcR329jIaeQQrlDVj6pZGQkY9TbBEDE0sTWdRVrKXlcg4cO4NripwwdxOGJ6ZpKkmhPE/MzJ17TE+P4q13gn0HD/Day+sJyG1jcmwacUoqlq5htA7fUeskqQlY2yaW8OJnhjgXdbLp3d3oxNTgUdKBj2DvkDRjGBSnAmur8Eh+9fZWXn3zDd797BR2eZ1qw7UmVhDb0HQ+vOBOQEkbH206jnVOO8GyHpzCwjD1DFQp15ZWNniLSvns2CnW7zzGusNeBK4yWH9590viQ2zZc+46SSmRnLP2YXhsnGhnC+59+yfu3PuGXnkWu9e/x64t63lpox7t418yPDJAVFQ4g5O31XpvNbWC+HmHsWXbp1hF5BPhZU9hQz85BSkkFWZRqhhC1jmjgmlXQ2sc1hisD8cqiS3o5LOAKiIbRzgdJmebfyWHUtop7Z0hWzFHiXKSE3GNXMlRElg7Slbb+JqDtQDIupbBC2D9/7xykZ+8qEt8hpTtp5w44K/AKzBhzcC6f3ACSyMTdu89SEJ8LIU5GYxMTlIk9qDvzteMTN9RgXPv2BwRUfEcMfCiqbOLlJRE7CyuYWwbuvpgXVzHMc8EHHMVvPfuPvQSG/GUKPEWfNrFDWze/g430mRYBt7ixXff46XX3+C9/XrcyP/OHqKGn1sdK4iscwpff2e27PgU9+gMDpsFkNc8yfWboXhktVHaPklpTS2HP99Mfo0SN0s9fIJjsA7OxD0wAuvgFEraV0+x/uqrL4gNtGbP53sR5RVwxSuFqdt3sXIMpG7oLnfu/QFlkZgdb29k55YN/OqlT+gcnWBuZoLMiECypBVqnVc0BesrEQkcCSrHLKOSrW7pXElvVlk/zLJauRSczn67QAzSWjDLVnDGO4ltJqFcEbUuge/HAfYzAdatA5Ps8NBexdpe1ILgA19L4Jt/rv6JOQRlWFtU6sXHIbRlFzpIzh/rs3j7NMC6pkCEoV0AYakSYrLkmDiGES8S4xKbT1ZS9P2W5lIxkcm5VMhLiRBXkFvWgLFzFPHpubjElTA4ufR1Vxes79z9lomZO0x/cY/CNH9uhcdy/ep1sgrrMLRyRVTdSWt1DbnZKZz8/ATFVX1E34omITEBQytPGvvn1DpJagLW7uIKNn2ymaNmN3l1uymmqZVsv+KOc0k3VrEidl24gq5XFs6ZFRj4JXD8nA7nLL0WWUaWP1FSE7D2yypg22e70bF0YuNRF26kl/OZWRCeGUUcv2rJmWvX2XP6GgGFtRg6urJ971GMwyVrYAX5E3NffMX47JcM9zRx6ehhvL39uGTixN2v7pBRWkn/4BDlklJC3a6w94A7tW3tXLR0wTMohoKaDr5Sw0OvKVjL2scpbhqkrGOSsLhoTJyDOXvqCLeiktA9+AG+2QryZRWc3HWAs3ZhSDrug/ZaKNZbg+tJV0yQUDOEtHuaIymtFHROcCi6gXOJLVzLGMKnfJCzCV0EyQeIbBynsGPtwfqX2624FZOHl3cIf/+SPnuMonhlp6HKcuQVnk9pxzD6Rk785EXNfNbqKtaTqpbrc/SOzjA42IO5swdu3l6YmprQ0dZAoJsVIzNf4ROZgpunDxsOWSEuLsI3NBqLqwZccYpdfbAu62S7zjU+07fltU+tsM6s5KJHIC4lgmKdwsuv/ZYzjtE4imTo+8VzTEcH3RuBuC1YRpZnAxEmU6oD1sIkx9LWUQoaBiioVXLu9HnMXQI5Y+5FQkUnHrHZZNT24Gh5DmNrBz78aCduEVkcvXITWw9/9J0DKG6bXEUriHBe+ZLx6dsM9inRP6VDREwsph4xjExPkVIsp79vhFJJKQFORmw64EpTXxvRyemEB7qTkJ2n1neGpmBtECvhjYPGbNfR41O7AC54+XHEv5jTN/x5Y8cxthk4cdgrh4t+Ybx31pxdZr6cj6rATI1Jks8EWAtNVja7aGcr89/8n3blso6RpwaPgmpd0a2dqrXg/24aeLJZ3msN508DrCemJ6iqaaSospn2/hGq6pspktXTPjBGf38fit4RhoaHUPYN0Tc4iKSuFeXgKJV1TRRV1NM2MLZiK8jin/inpyeRlMkorWxg/PY31Ld2MTh93+px9+uv6VL2MXfna+oraygsKaWuvZ8vHprkuHh/37esCVj7lnfjkJSPoV8i5qm1eEmVWCZXqOK1bqRJMbiVyLXwQrykXfjKevAQV+NZ2KK2Wi1MftQErCOr+3BNFGMenIprXishsk6cMmsJq+zFKbmI68GpqvWQUgU24clYhIsfmuS4PEuI2laQxVD8zR/oalNQLCmnuXuUe9/8QfVrx/z7NzM1SlvHJNO3b1Mqk1MoKaOqtV+tyamagvViQC5q7CMkOZ/gNCkFDUMkZxeQ1zRGUU09gQk5hGfJEOLBFj9mOcuaeqw/8JZzPKqRy8ktnIppYEtgDToJTWy5JVep0pt8a9gZVMPH/rVcSG5RjTseWbfmivXPN5nx7jFX1u+156cv6vHPH5ipJjL+9ENLNhx15b1Djvz09Ysa2UAENVxdsF6a+PEt8vpmsvIllDf2MDo5Q7OilYk731BUVkVWQRnVXVP0DA4hLpSSU1xB6+Dc6oN1eS92CUUY+CVhkVaPt7SDm1lVqsi+mykS9FXnlSI8Jd34lPfgnlONV1HrGlhBFqWHdE6TLa3FPy6HmIJG1cVndk03ko5pimrbCEzIJTSzisLmMSJFUvzjxSRLW1S/8iw3hWQlHut733xLp6KFIkk5ip5R7n39Lf3jMwvfC1MTozR3zTIxN6c6rxRLyxkcnVwTsDbNVHDaM4kjzrEYJlRyNVmGYWoTRtFlHHOJ44hLLKcCijBJlHLcLU417mJczY8PrCWtw7znKNFKj/XvruejGJh4amAtgGadFk9irOl9NKFireF4Jc/3NMB6Jcf73z1WXcX6++B3NbdpBNbLTPR4EhF+GoG1mpMQNY3zWxFYL4bsVVp+EmC9HEjWZIzmYL028XxPIhVkuX5pTcatDKwfTFZcCtxPbrumqSBrFc2nrmK9XCh+EuNWBNardC5Z/B2kqWL9OBvHk7j/mVCscxoGeMuuWCvBeoN9CcrhtfdXLwYoxdAM+W3amQ7yrGdZPwfrtcm9rh9+nmOtOVhPPM+x1jAjW/vBWvoM5Fh/oZaKvFoQ/X37fQ7Wi1TuRZF8ywFv4f9Gr1bnWH/xPMd6MQiqu5xU2YvQJnw1c6g13ffp0GoGJ56u3aF7bJZCLc20Lu8Usqyf3WSQHwtYT859ydjtbxnV0irtnsFN2oOrlpagYAXK+7WyUppG6Zq4y9DMN1pXgzPf0D76lSpnt6xzBm0rSccUZtGV/OZ8GL8+p531v4/68Yv9nlpZe21SVfMplONfoY2V3zGFZ2kvHtIerSzBf5/WOKaVld40RnX/bUbmvtHKKu+ZxSqvUxWXJ0TmaVMJqndWi5Z3Xoyv6OEFC+0Ea+u05oUGHepeMDyp8UInxpIO7ZzAWN71HKz57t+X9+49NcvQ8PQdWoa+oFlLS9Q8jm1BJzb52lk3S7q0ti1yWNUgpcpZKrtva2WVd85S2DaJMJlZ2yq3ZZwzjqn8+Ut6Wll/8bo+v9WNYKNHmVaWTmwDQvpTaeeMVlZi/ShOJd3cLNbOEiZEegjgr4UlXJAIcN0wcEcrK6tlAnOxkmvZHVpXZjkdZLYMPzLX6WHme6otzQXF+mUtVKx/a5aHXfpzsF6cBPLwsqxralVbvD/8QX3S69quWE/Ozqn+8wq3o5NTjExMMfY9CTVDU7dVUN00+AXaWOlN4yqots7vRBtLAGuP0h6trNDKQaQdM8i75rSyyjpntQ6o5wFfAOvTDikaT97TxJeszmN+8spFfqsbqfakx8d1dHxS95+LbyK/dQqpckYrK0EAay2FagH2hQQj4Zc6bSzhfJfaOEZ9/x2tLG0Ga9NnAazTa/t4zbpwTa0gQtqH8JwbHEr40LmUj93L2e4hW6hd3hUcDarGr6jzqXcX7B2f01oriJBYInSJfNLAu1b703aw7u7toH9yik5lJ37hKYQmismXdzxyMbMSsK7rniQlW0JmeQcNA0vBXNYyjqx9WgXr9T3TZJdUkFraSl3/HbUAXlOwNs+o5axPKqYZzYuAXIlxbAmnvNK4KmpRbbfMUWCYWIWVhuCuKVg7ZFZiEJSBc2HHQ1DeiWNhB+6C9SW/EUO/OPS84zGJrsJdTYBfKVhLmweISCuloGlsCZgXN/QTnVVBbtMkFUIKQWkdUdnVlLVPLRn3OKBfCVjnNg0SllFMeGEzeYqJB4DeOk5ETjkx0jYK2iZIK2/GK05McvXggzHLUMifBFj/2Qu6/MMGE37ygu4SQP/FZgvePerC3603XLJ9rcB6d2gdeolNfP49Ldf3RjSwM7CaD/yrOZekUDVBORShfmrJSsE6R64gOKOMzIaRJWCeW9tJSGY5he3TFDX1EpKcg1d0FhHZzUvGPQ7oNQVre3ED+sFZ2OS0PqR2d2IVU4BDXptqu1VKOZcCc7DLa39o3PIUck3B2iG7CqNQMU5FyoegvBO7+CJciztV253yWzAOy+RGQcdD4x4P8ysFa7min8jUYooaB5eCed8clV2Tqu+IeWgvlrdQ0vDQuMcAvcZgndWGXlgex31zMUpvXVC7r4oaOX0rndMBBZhktmMiauG0bxqngkpUTWTUUcafCbDOru/nTdsitcH6N6Z5CIAsKMu/NctXqd5v2hXzjoOEjTelvL+oNrmUcTCgCv24RqxFrXgUdBFW3k9C9TDpDaOIFRPfmxUtePTGpp+uh1g5el8Relgt1ob1qp5phEjAtQLhJ/08TwOsR0eHyMrNwzMyg9beEfLy8nHwjUXWrKRKkoejfxK+kSJaugcI9Pflqk8iopIq7ANTqFZ0MTL5aBKLxmA9cJu09ETWvfEa72w9RKJUuQDMVW0j2NyMJiC7jcb+WeISotn47np2GrlR1jW7MG45CrkmYG2Z1cCu48f52a9+z1vnPRF+fhPUbsvMaj4+fIC//+WLvHnEjGvpTZzziOLNM05YriFYu+bVsm33p/zTr19hh2U0rhLhZ1/B69nF9YgEDrvG41zSg21kDD//+U/525//mvWHAnBeQ7Aua+rm6iU9fv/71zljEfIAmDuncHOy4eXX3+a8qQfpJfVs376DV9/diU967YNxy1DJNQfrCQKTRbzy5lt8cOAs8ZW9KmjOV4wQGOTB6+vWsf4zfcLKlVy4rMcvf/M79p61Iqt+eNlwvVKwFqD6dwc8uOmezd++8iC27i9evoRDmJTmzlHsbgTy168she7lwrWmivUWvxriFDN0Td4lWtbDpvmW6z4V7AiuJU0xg3F6Gx8ktlE7+w2903fxLe1VWxlfCViXtA5x9tIlfvvyW5y44rUEmHV1TvLrV97hnGs2STlpvPfWf/Dzf/s9e455Lhm3OjlqBQUAACAASURBVGDdyd6LJvzi96/xnr4fNwq6voPmLizjcnnz9d9xPUnGzYJmNh05xj///k2224hw1EAZ1wysu9h2+AS/eOFtPr2R9ED1lnRhGZbIO+9twEHchJtEyf6LhvzHm+9wOaluTcG6urVfdV759W9f5YxNGFW9QjO7+8p3cWUNPjFx1PYJ67cpb+pC9/wF3PyzF8bMj/2hW03B2jBBxu/Xf8A//OYt9t9M5KrKStKOjnsQ//riq/zjixv53DWbi6Ep/NvLb/Cz377NUdeMBQBfDmA/E2Cd1zjI2zeKVYD8n+YFvGRZyMtWj9bbN0rY5FLKTi8Ze/0qOR1Wh0F8ExZprTjmKPEp6iFCNkBS7QgZjWNkNo0vqezmCXJaJsj9byD6+0BVyGoeecpgXd8/g3Ac33d8T3tb9fO4vXmLNcv1WBfGxuASVUhH3wgFshY8EkvpHRrEMUJMelwEN4KzyM9IIzq1iMZGOS39w7S1tWPt4MslCw9ii+ofmTCqLljX9sxQrhimon0UT0dTimo6iI0IIDw2fQGYy2o7uXTNn1tZbVS2DqKjY4BXaCIJRY3U9N5eGLdaYG0UWcjvNp/DILGOV97Zw9Gw2u9UayUW2c1cTSrj45MXMU6s5piNK6+ftFtTsL4WkML6ozZYp1XzxuaTXBW1qcDaXarkil8ER1wTVGBtF53Ahs9PcMY9Dtus5jVQrGeRtgyRXz9EYkoiO8/fILWknmtXDBeAWVZXh9GFM+RWNOMdHkZQWiGuCTLC4vM5YR6xMO5xarVwv7pgLW4cJq2yi8zabgJCvImTdeCZUoZrjqBOT5Itb2Xbhs04pTdiamTEecdCchqHSJNWYiE0MartX1OwfvFIMHaO4iVg/dMN1hhZh/OzDSZ4+yXxyof6GqnWmoL1mdQuElrGOBjdTELNIJ/7348H/DS8gUTFJMHSaYxE7XyY0EZYyyQWmW0cCKledbAWhKjc+gGya3pJz83lVmw82ZUKfH3tyV+wkwxzzCaVuHw576//DJ+4BOxc7PCKyydN3rf6YJ3fwC77aEySanjlvQOcj2/5Dqw7uR6SxAuv/R6zJBmO4mr2W7ig4xOtAmuHtQLrgko+d03DLL6MFz44jmlmuwqaXUuUmPkE89p772AvbuJmWjp7LV056xmPTU6zamK4OpYTtRXrvtvI20cQfgFLK6jkwLUgCur6OWPmT3r91AI050pLcQuPVoG1tKYNY9ObXLt6Fa+gnIUxPwTU8/dpCtb60Wns8SrAML6I7c7JGInaVNB8NUOBUUode02s2WYZw9VMBecD0/n41EVOuKb9+MBaaMByNrxOBcrXU1rwyO8iSNpHSFk/IeUDCxUlH1QpzKl1o2Q0jpPVPK42KGsCokNTT1exFiLtNDnutXhMY//TTUxZqYL9NBTr3PBwHMPz6R6eILe0EecYCcPjY9iHi0mPj1rSebGxqYpWoXHM2CSK3mGU7U34pMoZmlraeVFdsE4vqUXf4iYeqVXYW+lT3jJAZkoUMXEpS4DZO0aOf04H5c2DHLnsREphDddsPYjMb1ky7nFwrYlirR9ewG8+MeRqZjvr1u1if1Dlgh3EPL2cvZbunA+XYJmr5Ep0Pu/qra1ibeSXzAYdNxzECta9fxjD1JYHdpD8Ki6G5qjA2rWwGdMoMQa3otlqFImTkGCghmqtrhWkomOMgPAgzln64RUUyB5Dd/JrOrE1fQDW5ZXlnDt7FElDD7fik4iXtuPkFYCOvj0HTIJXFaxDkwrQMTDHLTyZAB9nRPX9+KbW4ZiuUAFzZnkL7732Cb4lPdhbGKJzLRtxbSf2zq4E5zaSpxhfM7AWlOefvGTBOWPRErD+23dcMDAK4f97UZdbgQm8sc1gDcFazgVRP8mKUT4LrSO2boD9gffBWq+on7GvvmVk7lsUg1PsCa/lSEwTLpUjeEtXX7HOrx/A2sGHs1es8A2NJDQ2geKWPkKibpK7ANbdnPYpIkvewLa3NhOYryChsBI3X38uXL21+mCdW8MB90Qss1p5a/0eTkU3PLB55Nbx/sfvqMDaPqMEHc8gjMJEbLgQgE3B8uwfiydSaqRYi0s55peLbVoNL60/gLFI8UCNFpfz/o6t2IsbsQ714pz3LS75JbLhlCM3CtTzc6sL1nXdE4RGBqFnbElgUi7H7eMpb5/k7FVPkmomFqC5VjlEanGhCqz9vWz5xc//hZ//0y/Y+KkNFY+xf8xDtXCrKVgbhMdzJKSCaxnVbHZJw3CRHUTXN4bPrjpzOamRa9ntCOr2fhMzjrtF//jAWmjPLFFqZ+qFAKctgzNPze4wMn2bUi19bQR1Sfm8pbnaivXwcD85BcWEpRai6B4mr6AY/xgRFc2d1MpKSC5pprWxmoLSWlra2glNLaKmvY+ENDHBCTnUKQce+TyqC9bzICxYPGJignAOScLY1I6QNDl6Fh6EFCuRNfZx1SaI695JyFoHsLQwxS86jctmTiQssozM7+uHbjUB6+spMj7cvZv9lt68utsa3Vg5W674YJwk54CJDXvNXDnrm4Z5ZgNnnPx4ff8l9OLmVW31Jklq4rF2TCng44NHOXXDh42nPLiWVMpOi1CcijsxDUtir5kbRmFSzBIrOGgTyAnzG3xml6pSllYTrBerzIUV1Zw6egYbt2BOGbpQ0TaMb2opRc39ODmYY+fqhYmFNbmNIwQmiDG3cyQwq35VwXp+YmFB6xh+8Ulcdo3A1MmTiNIu7K31CUjKwdTgDEdNXDhw/hpOqfVY2VpgYOOFb6qU7OaxNQNrwQryH7t9sPMoZMthB3652ZTrbrH85esGXPXNwtBNhKdvHD9764FNZLk2EBW0azh58ePwJmKbxgmtHCKqcoATkXVkNA7yeWQ9OvFNWIqHsc7t5FxyN7fKeglvHMe/bPXBerF1o7i+jcuOvlh5+HPJ5DqZ0kpuON6gSDHKoXOmGDv68vEZe4LS8rkREM8VM3PO20WtPlgXKdmuZ8uea+6sO+DAtbRKznmEqSZXW0Rl8tYH73DaNRnrJDE79Qw5ZOXJm0fcsc5fI7CWdLDlnCUHzNx597QPVqnF6PomqPzWlsFxvLVpEwZB+ThlSfnE6AaHLT350CCEm8WP91UvVrTVBevF0CutaeHcGX28w5O47BKLtHUAv7RSVexmobwaB28fAkVy8itbiM0swcXRBkdvEbVrANaX40rZcMqGXQam7HYIQ9c3hKMBEk7fDGX9Pl0+ve7Pcb8CLgdEs98ugA8PHuKQc+yPD6xHp4WfE7UXrIXki9GnkNU8OXeb5kHtbQ5T2D7FwMTTVfOfRcVaOObJmVnGp++r/cLy2NT9i7fJ2VkmZuYQUkDmb4UUEGFdGK9annvU064pWAswXNU2QFKejOSCWiqU02SUK5C2T1KpGCIxp4yk/Epqe2eQVDeTKC4nvVRBTe/cqivW1nntXInK49ytdC7GVmMhbuVyjAyL7Bb0Q3LQuZWOXmieyhaiH56jgmyD5IYFVVud9BFNwNpDaLEem8uVkEwsRU24FLVinlKNm6QLyyQJRsGZmCfIcRQ3YxScwZXQTOzz7ttF1gqs5copMotriBCVklLWibCeWzdAuXKW/EqFqh1yakkzUsU4MTkVxIorkbZNrg1Yt02SUdODf2oxoTlyxC1jJBXKEFX3kFXZQkBKIQFZtWQ3jxApLsMvpYhQcTXilrVTrAWw/vlWa97Y58jLOy34mzcv85tt1xG2/3KLpWr7rz4w4s9fOL+GirWgTss5HNWI4IE+GF7Lx36VnIltYJPP/ZbrW/1q2eZfzSeBdSrQFsbtC119K8hisJYqp4krrCMoTUJMkYKi5kFSJXUIdpHE/AqC0kuJl/Wpfo0IFUkJFpWRXjO4+mBd3I1ZXAmXAjIwTqrDsbAdy/QqHIq6sE4u56JfGkYRUtX/VeOoPC4FZnAtdZGqrYYlRCPFWtrD9egCDEOysMhoxqVIgW1mHa4lndgklKAfmM71+EpcS7q5GpWPYWg21tmtD1TtZaaQrASs63pnyJXWEpdTTnZVD8J6UdOgyiIobewkLruUuMImqrrnVEq2vKWXspaRBVV7MaT/d8uaKtYmGcKkRBHHPVPQT6jiSlIF+slNGMSUc8IzlRPeaZwJlXIlsZyTPmkc90zDIKnhOVivhcVh8XMIarqQJb1SiFP38ULjFaEBy+Jj0ablovapp+4/V/c1fXj807CCPHwMT2J9JWD9Q0rzk7pPE8VaHTBe6ViNwFoNO4c6IP3wWHWtIIsV67VYVtdjvaBYLyPVY6VjVzp5UR31WZOxmnqsn1Sc3uP2s5LJi0she3Xi+jRNBVls11jNZU3BerGyvFrLKwHr/w6Gn+R2TcF6OZMPVzrmmZi8KKjBgiqsTdD48LFUdE+xll5rQa1uG77feOHhY9GWdQGshV8bngQYPq19/FjAenDyNrX9t6nu085KaRzDrqBL1SRGaBSjbSU0mXgYaLVlPVg+QEHrFJKOGa2s3OZxkuR9JMp7ta7iy7s5ZZ/M371jzN9t0L76h/dNecs4XhWNJ8TjaVtdSmpBmPQvZFlrY8XWjuAi6VElZwgQq20lJAUJkZvaWJ6lPSQ1jCLvntPKEjWNY5vfpeq+KHRg1KayzutErNDyzotCDnJNn/ZO0JsH2fr+tctsFhRybfadC69JcYcA1o/aEp4WJGvyvD8WsFYMTRNaNUiAfEAry1fWr7XgKgC08MW3WsrQSvcrHJuHtA8PiTZWLxcDS3j1gAsv7nHUunpp702OWsXjmVaLZ7r2lbeonnBJN4m1I1pZ4fIhnIp6cNTSEroHhlT2E1KlnRVU2U9ARZ/W1i1ZH95l2lmh8kGymifIbp7UusppmaRp4PHBDU+186KgzrYMzWi1Yi2AZFH7JN1jS9MYNIG5xz1mbOY28m7tVvCF10PVdfEZzrAW3ocfC1g3DEyqwHA1f9Zcyb4FuPSV9WpteZZpL1gLarpgddEmxWb+WIRElt0OGfzlq5c08hhrYp9Q5zE/eekChy3ilj3ZcaXWE3UfL7SCL+ucoapnTitLUA3NcpSYZHVoZQnnpMjaQaK0tMJrBgiu7NfKEqBfuGi3ye/UyvIr71fNBVkLO5smz6Ecebyo+FTBWgCc/olZhMlw8+qwtt4KkyxXc8KekJndJExY1NLc6vn3RTg+4YpNuCh63IWCNt+v7WA9Mj7K6Mx3F3Ozs3S0tdA/MvbIa/4crFcG7c/BWjNwfw7WkyuC9udgvTJgfw7WmkP7c7CeU2uS9sPw/UyA9fjsHHItzmueB0rhVto5Rd/E3BOHSgGq6/q13xIjvAaF7ZN0rYF6v9pQ/rTAuqevn+qWTkanZ+nt66OivpXB8SkGB/upVXRS39bN6NQ0JcVisiub6JuYoaurC3MTKyqqm54IWDsWKjEJjmf7OSNOuqVhm9+5kOdqmS7nTEAaFrnd2Oe3ccYpgM0nTdHxK+RG4XynsuXHT2miWPuUdmDqF8L20/pc9MtFgN/7qncP9iIpumE5uEnvA7VnsYLz182xjS3QSBXXBKxdChXoOnmw5dQVLodKVF5Ple1D0sX1uFzOR5biVNKDS2ELl7zC2aFzGZNU9TukaapYC+3g91+z5f2TZuiGV2CZex+ezVLk7LpkynvHTDkfLMUis54jbikc8C/DUk0v45MA659tsmSffhj/9PrSJisfXQ7lVrKMU2bB/I+XL2ikiK9IsW4dJzqnBB0jcyyDMsmZj/lTjBIpykXnqi0WwZmk1/bhdCuQw+dN8E6Vkd+6qDX7YyZoPgmwruyaJikrH53LV/GMzUOmnFKp35XdU+RIy7BPkpHdNKGRIq6pYm2cXs/uq05sPGuNToRsQe3Wi5Sw9YIJ756x4mxEhWr7pdhS3j7uwfmU9oVxy1XINQXrm7FpHLh0HbPwYsJr7ivekVU93IyKZ+fJc1wNyiJMpsTcO5C9F62wTpQToYEqrqlibXornD16lljEyQmUfwfP8h7cksXoXLiMv6RdpYKbRhRwPqwMAZLVVcZXBNZ57RgEp/HRMT0+swrlenb7guptEJLMh6cN2XHVj+tZioXt6irjK1GsS5sHCAqPQc/EnpDsOiq+6yBboZwgIDQKnctW+KXVkS1rxvqGIxfN3EiWdasF2s8EWAsA9SzYQeYBu6Rjio6RWcafgBVC8JgPTs5R2T2t9Ur1/N8vZGsPP+XGOU8Cup8GWPe2N3LD2RdDx3AyShu54eqPgZUXEblyClKjOarviJ6ZJyJpI14ebpx3jCC/RoF/WDwpUeFUl9c9kmOtiWJtm1HDW+/v4EJAOus/3MmxIPlCa19dnzDWHbqIWXY3Fqk1vLTtEjrOYby6w4Tr4o4FAF+uPUQTsHZOk/D21oPYiqp5Y9MpTNJbv4PmLnQcXdmoY42LpBfvsk7MQ2M4fk4X+xDRmoG1RWgq7+43wDJZxuuf6HM9W6my47iUtPK5oQnbzO5ny14NTGLD3ktciyvFsaBDbS+3pmB9/oY3H+o6cSk0j9f2WWGc0a6yk5iL6rmWWsdZ12B26DlhFp/NyzuPstUh86mA9UfXUohPquU/3jZcBM8XMPAR8fbBm7iHF/Lu1iuL7lt+tJ0mYJ1V109KRQdZ1R14hAYQJevBNiyb6MoBlTqdVV7Dlo1bcUqSc/DQaRwS6kkqbychtxhrqxvkNo8uW8VeCViXtY1SUN9HUV0HVy4bk1utxNvVmoL6HhVEyzuGcXPU5aMLliTXDq8pWF/09WbbBTvOevqzz8KBK99ZSYTGHBcT6jnpE89enzwMEmvYbRvBv7xnwZmktrUB62ol+2xDcEivZP02XRwKulVWkqB8KZ+evESApAVdfX180nK56B6CfVI+H19LJHStwFrWzG7bSGwSJLz+iQHOxT0qaA4sb0ff0JDfv/oaPkUK1bYtp03YaZuw5mBtlV7Kpt1HMEqQs/W4Pqf9pAsAbSmqwjRRwpZtm7gSVbKwfbXBuqJzmqKGPvJqewmPzeCT8+4kSdo4ah5JXuusCpolFSXYWtmQLa3h8517uBGWiWWUjISsPELyGn+cYN06PKv1VpB5sJxXbWv7pleUjCFAddPAtCrbU9vtH4v/9oqu6SdyUfEk4Hgl+3gaYJ12KxpfURV9IxNIa5QEZdcxODqOZVAGyTHh2IfnI8nNIDK5gKYmOYqBYQqzktm4+xIbd+ly1jaM7tHpJaq1JmBtmVrNv314imvpdez+dA87XPMXgNkhr5nL/lEqsLbNbODjwybsOG/CZqPAJcr2aoK1dUIxv99tjHNxN1ve/ZQz0TUL0OxdVM9l/xgVWFvHpvL6nrNs/+xT9utZ4lTUvTBuub5uTRTry7eSWXfOHfscBRveP4R+assCNDtnl3M+KFvVtOG8Zwz//u4+Pjp6ni3GYdwsUc/PrSlYf27qwUdmsZjElvPa1gvopyoe+LRzFZx08kEnvBSr3A50wqV86iV5KmD9k5evcuZ6Ab9atxisbblumco/vqSLjWc8nx68uiZgLajNhpfN+MUv/jfWbl74uDghbpvEJkhOQGmfCphTssp4/Y1jRMq6MdY9iM2tSvJbx/AKT8E5bu0U65vu9vzm5bdwjMnl9GlzStsnSc0IorCl+zuInqWiYxyXfDlpDWNrCNZtnLTQZ8tZXwzjijnm7odRxmLLRzvbdG9w8lY272/bxGv79Pmnl/eyzycXYzW93Bop1rIGLgSk4SftYuvGvZiIFCqw9k0VsVnHnPDqHuwdbQnMkqLnFMwRExtO++SunWJdVMb5kHw8xfWse/cQ1uKO79ToPgLzS9m8a8sCWDv+n++OE0HSNQdrszgxb31wjuuiJvbrXeGES/YSgD7rHMFGHW+uZ7Yu2a4OXKurWEvqmji8/31+98obWHlHcNYjl8LaPg7ruZLRMK2CZnF6CEbXzJC39mB2Yje+MZkYu8djYn2DsB8rWPdPzFH8DPisFwOmAMMlyimEn936xmdVuc7C5MP/znssKNxCRJ0Q3acYmqG8a4r8tsln6oJC+PuFhJTJJ6DWrwSKn8RjnwZYN5bmYuUeSVx2BSn5Ndh6xZOeW4xfqpSCzGR80+TUVRSRmFlCdU0liUU1tHT3UdWoQJQYT0lJNeMPNSzSBKztMmt5d/tezrhHs+HjfZwMkaEXLMYmvxu7rBrOOvlgEF+LeVoF6447ccEnlpc3HcYgRbEA4KsJ1s6iMt7/9Bim0QWs26GHSWo9BqG5qnQR1xwZZ276YJlaj3teHaYRWehcvsjlGwGqCTnLBer5cZqAtWVkJh8cNuRKmJh1e69hklrLheACVeSXXXI+x5wjsUhr5PKtLD7Wv4VxWBbrj9/ArmBtwFrXOZBN5+05653KumMO6MWUcSpIgnFMMR+dvcExt3iMk2uwzGnhuI+IrbYpmGbfV7XnJyc+7vZJWEH++m1LDB1LeWeHFf/z9Uu8f8yJv3rFkEueGew454tLaBFvfmC0JmAtTD5MkjQTmFZCalkjniHBBIjrsA4REVvZS1BcAkl5Uj79ZA82EfkcPHKRm4lVXHf3wyZCTHx555pZQQpqlcTlViKubsfU5DpJBZV4ONtR2NBNiEhKkWKC4vp2rBKyiCrrolKDCZKaWkEu+Qfx8Xkbjjl6ss/KDZ1wCbtdcjjjl85rey+y2y4e3egKdAIyOO6dzn98YMDRMPkaKdadHLkRgkV0Ae/uMeJmngJ3kQS//HL2nTPENV3KOcMruMVEo+/iiX1iHu8es+FWhfqTJDWygsha2GcbxrXQLNbvv46TuA6HtDICK3rxSRfz3paN3EyrIkjej1WihH0uqfiU3le11bGDrMQKYiWqYNvBs1wIzmXzcWPOBpZz6lY2xmnN6LiFsOWSCxfCSjBfZBFRB6qFseqCdUXHBOkl1cTmVBKVkM3nF90Jz6rkrG08ufW9JBVUUCKXYm9tQ1xGAYf2HsMjIhWPVDkRonzsEisXLCMP+6m/b/2ZsYII6m3VM+KzXgzX88uCPaS0cwp597SqY6JgFVGOztI1OquyjQiTEoVYQQGmpcoplfox/9hn6VbIrxYugp4E2D7tfTwNsJ6YnqSxpZ2qZiVdQ2M0tnZQ1dhG5/A4g0ODKAfGGBkdoWdwhMGREWpauxmYvD+BcWRkmLHxyUdee03AWvBYm0ZmcMophAv+eViLFZz2TsEqrwvThGIOWrpzzl+EXV4rer6JnHCK5FJwEXYFD7zYqwnWgsfaKioVXddQrkZKVV5lHe8U3Et7sIzL4ZiVOxe9M/As6cJX1oNTXCauokq11WoBrjUBa5fCVq4ExnPGORyTGDm2WbWc8BRxs0iJYWASBy29ueSXj2NOM5e84znrFse1xOoHXuxlRvxpqlhbZNRxxj2Sw/YRXIquxiCmhMNeeRhH5vK5qQA8fpwLyMIivZIDNn7sMvfHIKXlgaq9DL/1kwDrX37mzMnrcezV9eRn7xiy+6I3/+9rl3jpkBvHzSPZfMqVv3rpaXisJ0gsrsExOJFb6TJyGofwCrhFSnkrMWIpjsFJeCRLSZEpsPX0w9I7Es8kKUJTmuWmg6zECjKfJCJ4rDNKqvAITSQquwKZchyP6EzyGkdIzkrFyjuMwKwaVVbx/GOWe6spWBunN3DMNZa9dmEqgD4TmMdWq2RO3spi02Undl335YhP7gJI77HL4FLa2nms3VKLMfaJ4UainFBZGzcTcwiR9+KeIsbIIwS7uBJCy9uwj0zFxC8Bh+SqBS+2OgkkGoF1ZR820Vnoe8Zgl1rLraJarOML8S/vwiE0iUNGlpgGFxBY0YehbxwnbgThkHvfc71WYG0jdMWNzOWwfTAnvEQqgD7knIRhcgN6PhHsNvPigJUfxqlNa6ZYL4bf0pYholLy8AgXkSDpQNrYRZQon/KOceIyCnEPSiUipwlxRSu3otLxicpBVNX/47SCCCqvAJ/PEmT+0LEKavbi+qGxz9J9sq61y/NebfB+GmC9Gn+TJmC9XCh+EuM08VjPq8lrcasJWKsmKi4TjlcyVlOwfpza/CTufxJgrU58nrpjNfFYLxeKn8S4JwHWy4VkTcZpCtbLnXy40nHCuel53J76ExcFAF+JYq2u+qzJeHUV68VgvRbLz4xiLQCHkDQhJE48S6D5f9OxChcKdX1L/b2rAYprtc/nYL38ZI+VAPZzsFbP/rEYxJ+D9fInKz4M3s/BemX52M/BWn37x2JFWzPFWjNQVketfg7WK4vaE8D9mQJrwTsqtA//vwlWn6W/Vei22Du++k1ynoO1evng0o4RjkXUsTekRivrQlKTypctQKI2ln1RFzYFnVpZl2KreM8gnDfPBWpdvXUukPf0w9lmkcgnltpXO62TuZFYTWnHNKXKGa2r8s4Z2ka/ZGj2G62snOYJdvrI2ewu077ykHEhvknVdTGsuh9tq9DqfjykPZhktGllGWe0cSKynu1eFVpZVxJbqOieo7bvjtZVXf8dusce/x391BvELAap+v4fjx3kWYLm5RyrYAMZnXn8B2rx+6nNyz8WxVrcNMgGJymv2BVrZe0OrMY6Tzs7fAk/U1rkKjHN6dDKOuRdyF9vMObPXtDVynr5uBemGQoEW4i2lfCZi6gaVss7uRY/I88/R1X3bRVQ3/sDaGPltUzwonkBvzQWa2XtC6gkUN73XWrG2ii9y1WGBauFbZ6Sg1ENWlkHIut516WMXxmLtbIO+VepkmyaBr9AG6t34s4jc50eZh2tAmuh+YqQtLEc0Hs+Zu1sM0J6SePADMIk04c/QM/q+nOwXhsQ13awNtd6sNYsx/lha8STXhdgXwBrs8xWtSY9Pgl/93L2IbSCj3wO1hpDu7aD9d7nYK0xtM+DtbZeND0H61Voay1E0QmTQ56D8yTilnHiihuJyKkkIreG9LphEouqCM+uILKgWXW/8DqJm4eJLaxVjYsqbCazrptEaSspZQpym0dIqVAiVkxo/JoK1sNCugAAIABJREFUHSeFmMBnFaK/77i1HaxHJsYYm5llcGScippmyqqbaB8ceyTOUVPFep1LOUdCa9nhXsZr82r3jWI+9K3kVEQ9R4OrecdJymeBNZwIr2WTq2aq+ErB2jxVznk/EWai5kWzzJUYxxZzxiuNa6KWRdvVV8Y1A+t29GMlHPNIwSiteUHtvpal4HxwNse8MzBIaeJqRjM6/hmqdWORYmHcchXy+4r1ysD67965yl+/cnFJZN3frLvCusPO/Ha7OX/2n5r5mFcC1qYpVej4pmGYVP8AynM7MIop4YRHEgZxVartluJ2VXMdQQ1fDkwvHrNSsJY0DRCZXkxaeRcVnfebTAhqc1nrMDHZZWRW91PRNYtY3kpompSCpnG11PGVKtYTE+PIq2rpGp7h7rdLVe+Z6Sl6p+7y1b1vaFU0I6tpYuLON2pBtuZgnctGpzI+95bxmnneA7XbJJeXrUvY7SVjnVW+avtL1hJesix8MEYNdVxTsPYrasAyMgev4ofSNOQ9uKcUElDWqVLBhYg7t8L5HGn1FPGVKNa6aW1Y5ig5G9e0AM6HYxoxyOjAOlfJxeRmDkU1YpqlVPUVMEtv5aiayvhKwHqjcxl7vGS8eG3Re2ss5lXrIvb6VrLRvlj1fr5ons+7lpr94rEisB64TUVzJ4nicmTt40sU78a+GUrknfe3Ddyhqq2fZLGUiraRJeMep5I/c4q1AEADk3MIft7nYC0A8xgR4koCknKx9okmprybgOh4nG6FomdoTkbdoOp1ymkcJDy7HL/4TBwCE4iIC8XSM55bAQGklDbhHJ5DcmUv4hbN4Lp9eOYRoPs+WH2Wtj0NsJ6YmqChRUGRvJG+0UmaWhTkSqvp6B+ms11BbmktJcJ9I+OIc9KJL6yksqWX5MwSopPSiShpYOyhHGtNwPqNm1Kcq8Yo65yiqnWY/V6l920kDhIul/SQ3TJCeGkXe/3l5HZMIu2aorC6i/cdS9S2m6wIrPM6+OiQDi9uOcBm43CVbUM1yzyvhZ2nz/Hih5/y5n5zzDI0b0agCVibJJWycc/nvLh5D+/rh2Gc1a6CZqO4IjYdPc3v39/ORh0XdAPEvLHtEC9s/oxd7vlrDtY/327HzbByNnx0fQlYbzOJJ0fWRlqOlF9vvLzkvuUq2xqDtVjBp0ZWvLjpM97ccwHznPv52dczW9h87jovbtnDhxfsuJbZio53JB/tPYR51qIGN8uIAhQAe0VgrZzCOzSK7fuOc97cjULFhAqaK9qGuWltzNbdh9mta098UQ2XL15g594jmLtFUd5xvxnFvN3jh25XAtZ3790jPCKQo6fOYGxmx9xX3y5A8+252ySG+eOe381QTytmVw05dPAQDqGZfPXtnxbGPc5+oilYv2AvI6Z2TNVN2Cy2ln83uW8lecdZRnzDOKKaPg56lPDra8U4SYc5Hlq7hmDdx3FjS97evo/t+gH4ls9bSXpxiU1j/Zsv4JZVpQLra8FpfHojgQAN7CYag3V0E7mdM9QN3aGgfoDTsY0quD6X2kZu1wxV/XOIFaMci2lD+PwIzdqSyno4vVZgfbWAtMYxhEQbj4Qafnf1/nv7go0Ej7IBiltGuRhWpXo/rTM78Aur5t/VuFiaV9BXAtblNQ2cPXaKXYd0sAjOpX5g3k5yh5SMNI7uvayC6BJ5Hbpnz3H45AVyZC0/frAWmqxU9U4/B+vWB6p9cn4Zzn4x5DSPkVJUj94FYxxiy8hpGV/yOoUk5+EUlkd8SjRmLuF4eHsRFROKW2AopjdciS9pXTJ+ORcvxR2TqoudZwmal3OsTwOsq3KScQgSUd3SQ46kAeeIPJo72vGMLyQrKQob32TSk5KJzyyjpqaUamWvqvFQV7OcQ7qWFDcoH7nA0QSs33cto3VwiiMRdaT23MZF1LgA1nqFSvwknZyPrOFNhxK2eclUneeiC1t4236NwTqznI3mcRhFl/LCZj0uJs2r00rMRQ1cCc/gjW3HuZo2v31tFOvTHgm8csiGS7EVvLTxOKdiG1XQLCjWxmkNXPCP4oNT5lxJbeaUbwYfnjTgSFDpmoP1X71hwrHrxazftBisDTB0zWbdtmtctItCV8+KP39BfdVaU7C+nlLMYWsT1et00uIcBqK2++q0YMkRNXM9s4lTXhGYZLRjEl/C9lM6aw7WZc09hAR4ktc8ws1QKbGV973aBZJqNq7fT2RxK4anj2Jg5Iye0Q2K6roITUxA2j61bNV6JWA9PdJJSWaU6hetCrEfw3fvLQBzcXIw4mwRQRWjfHnvG6Zuf0WjNANbz1i++ma1wTqPE4k9/3975x0W1Zn2/39333333fdNtmU3m60pm002ickmJhoTW2IvscVesaOIBUQBRUHpvUvvvbehw9D70HuVJmBNTNnN5/c7gyBoCnNQnOh4Xfd1nnPOMwNzzsP4me987/vGOLGehdZ52CdW8eapYfhS9y4hpaSNc+FVzD2fyksnJexKaGXLVIK1VMY2y0BM48qZPW8zWlHD7cHdCtpwkuTx0cIZmMcOg7V5Qimb7SRTC9aRDfhXdHM8upbWK9fRiqySg7WgWB+LqSOsup/Isk62+deSUzdIQEEH+4LuKtsT9XSLVqytSzkTKWOpdS4VTZeZaTCsSG8KbCSnsR+T6BpWmGXIwXqzUzk2roVTDtaeoQnsMAoltbiRjSfsSK+7NgrN2QVFHNx9ClnndTwS0jlpYo+hvR9ZVU+AYi1AUUvvVZUd5A5YJ5a3Ye8bimdqPUlV3YRlyLgUFIW2gSHRJe1EFA4r0TH5lVi7+RFadJkkWSeR+U14RqZh7BLGORsvfKNiCcoqJGkMsP8QWAveaqG++Hd1k5wIwCrrnEcB1nHugVgFZFDR0EZmST32ETnI6po575VIRKAPpoHZFGYm4BOWhExWQE5VIy3dV6ioriUuLRuP+DI5aI+9pqLA2lJKXecAmz1LiWi9gWWMjI8spMw0zmCRQwE7fSvkTRFW20tZaCVFI6ya4rrLrDPJnFrFOkbKx/qBaAXmycH6UEg5erEVnEuuR8tXwiYdI44GFmAgaRBtBxGjWKtZB/HOtvMcDSnmzTk72OFTjEZwCSdjqzjik8C6Cx4c9C9EO7aGI0GF7DD3ZN6pcE4qmCQ5eSvIEVZpSnj/Dlj//oPj/O/bOhwzk/DeAh00LgROPViHpcrBWie2CjW9g2hGyDgWVIBuXC3H/LNYduA8+9yzOZPUiG5UMZ8cODRlYO0VEM9xPWMCoiW42duQWjuAmUc2/vldpBTWkSDJZfYHm/HPbuT47m2YuOTg5h+M1llTjB2dHipY3/r8K5KiYrGwtCEjO5P0CD8Gbt4iP8mBrps36e3t4VpvEzvXzOP9D2bxzxnziMyupLG6lITYWFr7bo7C9w+p1cJ5cYq1BLWwdowTa1lgXSAH6xlnk5llmMZhr0pCEmrQDKwhJL2Sl08msS66ic1TCtYV7LIKxCKpijnztnAiQoZDRrW8k6FbdgVLV8weBWuH7Aa2u2RMMVjX419xmWN3wFonuob9ITK2B8g4GFbNufQ2gqr62B5Uxcm4Bi4V95Ij62Svv2JJkqLB2qYU/YgKFlsNg/UcowzeOythV1wLSYUtHPKrxDaiTg7Tyy2LsXKeGrAubezC2d2FM6b22HuHsts4gozyVracsJN/25RX20VFxw2KK2s4pn4GWcd1/OJTsQvLwScygXMBOZQrkCj5o7SCCNAgtP8ubR+UN1n5Ifh7rM9X9+EfFcs5+2ASqq6QKGvD0s6JQyfPYuqXQkxpKwbOoYQWdWHv5oFpYM4oOAtw7RUaTWRxG05+oZy3ciY4SzHFWugo+bh0WhwLo8L4UYB1W3Mjzpd8OW7qSW51C27efhw4bUN0biVZiZE4RRVQlp9OaHwmRUVFHDfzJraghvNmThw+70J6WfN9CaRiwPo902wuVQ2SWtuPrLWffa6FuKc3st1FyoXkDkLLeogo6WS9Qy6Sqh4Sq/vIl7WybMqtILXMWrWDt1fs5IMDTuiESdll7o5BUhEfzPmIf879hAV7dTgdI77LlxiwPhGYyqxlK5i+chvv7bZjj0cy7+23Qv1SJDMXf8Kbiz9lyTFj1FwSeGe1GtNXbmbx+Rh0phisX9/mSFByCxdtouRVRfSsgpm+zoDVehFEpZYSmyTl7YVHRfmsxSrWZxIqWaZxkreXb+adJVvQ8k/h9RV72e2WzfSVO3hl7ho+3K7NIf881utf5IVpb/LxblfOJjUq5LMWYwURvNR5DUMILZItXdxYvUOdA7qmJJa0o6uxmTCJlFMaaizbsIuFW08SmtuCtY0V67ZrYOSWQE7D0ENVrD//6hs++/I/3PrsJq6XHNh/+AhHjmnTfbkdx3MH6O7poa6uDqk0mXMBmRRKE9i9eRXbd+zG0tpW/tiJQLV4sE7kbdMCgst6Sau7wvmwCrY6FxBT1MI29zJKGq4QVd6Da0w5/zydg1vlIDGyHlbZShW2g4jyWOe3sOGQDnPWbGeumgUWSYVoWjpgl92CgZU9z7/wHKsPmGGf3sQOfUv+uWgz6l65ClceEW0F8a8kvXmI3PZrFNR1ox3TRJyshZOxLSQ3DpHcNERcTR/bYxqIbBgkv/0a0fnN7PCbIrA+lUacrJdYWS8+8TJW2ctwT8pjgWMpcYKaXtKNVWydvNKIW2YHReXdrHfIV/jeirGCCOAsREZuPhvWbGb97iMcs41CWlKGlbMTpa1DuFyy5+03Z3LEIgTv8ARWb93HzoNHsI7IpeJJAGsBfASvtdBC+7EG5wmox0nV/Qgxch2EsZDUOLp/Z5xU3UdS9V37iHBeODY8b/gxiqjVwuNK2h6vSiBj4fpRgLXw869cvUbf0HA9cPl48Kr8mDAeGwNXr9E/JJy7Tv/Q8GOE8djXIIzFgLVQmm+OdT4XEhtQc8pjxoUsNP3LWGqVyQ4fGTapTez3KuJ9kyx0ouswT6xjieWjSV7UDUlmrbYZWqElnI0r44hXIgaSMj5V12Xedk2WHTmPbuzYxEbF7CBiwFpIPjzoGsHCwxfQDC3jaEg+a00j0PRLZ/l+HT7ceoSVp6w5HlrI2lPmLDvlyomoqim3gryy0YqT1tGo6Xrz0zcOsGSPJX/96CR/WqiPunEYy/ZaiYJqwYctFqwF/7O2XxKrjhtzwKcQ3agiPtF15khQKau0zZi7XZMFB8+hEVjAVmNH+f6yI77ycn5jkxN/aCwGrMd6olMLajAwscE1upic2n7c3F2RFLcirW7noq0bfunV5Nb14Ozmg6mXhJxGxRpPTMYKIoBve2MNru4e5NZ0cuPGdTLigxm68Zlclb5+6zrFnbfoaq3F2sqMs+cMcbnkMSVg/ZJ2EpsulWIYUcm8c8nMN8lCO6CUV0+nssOnkrPhVcwySOWVU9noRtZhkVjPMstsheFLFFgXtGOflMPus1aYJ8pwza7mfGA8jjktGDr7sGrfCXboueOQ0cRBYxdWHTjJUb+CqQNr33JOSprxKupCI6gSteAaLNPq2BtSjaW0A//iLrTDq9gcUIlDXideBR3sDJhCK4hWIhs8yjEIr2a6joQZRrkcdMvkZZ0kVjqVcCGyikUXh5NRz0ZUY5HYwCrbPIXvrRiwvptweIOs/AIMLS+RUtpOSV0roYlplLddxTskBPUT+pxyjKGgvpfQ8DCMnQKRCgLTkwLWQmk3WYeqQsgIQE/1Nrvx8VWrBSB9VGB9LxhPdl8sWE9V3etJJS8mKwbJYtrnigXriVb2mMy8yVtBFPdOP/TkxQkmH/4QOP/Q+cmC9VjIfhjjyYL1RJVnsfPEWUGG/dQjSWgPcysWrCdai3oy80Qr1gomIU7UU33vPNFWEBGJiGLWwOTAeiRZ8eFtf7RWkBHY6B68RmbDeBV2qgHzSfx5wjcFzb2PT5fFkfU0dqsC66mpY73SMR/tqCq0o6qVMo6FyzgSUqaUsd4ykWc/1uOpmceVMmbsd0E3tkZegUMAWWUK4UOWV2EX2fVDSJUwchuv0jJwm2u3/62UEVfRq9QNYlY75GOd0YRNZrNShm58HRt8ypQy1nuXMdtCyt9PJillbHIuRNp4leLW68oXbddp+rF1XhwLPsJY+Oq7vvsqqXUquJ5KwBeqsvTcU9bt3nvzY99/XMA6qbKTuRZS3jXOVMr4p1YMf9zqzh+3uCllPLfKnD8sPKOU8foWa7bYp7LbXaqEkcPRkFJM05swy2xWyrCVtuKa16GUcSm/g6CybmKqepUyTCQNvK6XopTgJQDhP09J+Jeecsbbesl8YJzJctcipYxlrkXMsc7lnQsZShlrXAqxyWrFQdqmdOGY00ZWY98PFnRQqs6L3wZrAlyXtQ+qqoRMwI/9IOBbSFgU/O3fdi8ep2OPD1h3Mc8qh/dMspQyXtAI56eLrPnJQivljBmnRdVxnqhlYjLznl91gcOBpQp7sydjP1HksQbJDVhktWCppGGV3YK1koaNtEVejcKnuBNljDOxtXKwfllHgjLG88cTeE49Wmnjdb1kljgXKm3MtcllhmmWUsYq10IMUxoxTmtSujBJbyK5tufHD9YCzAmWkNwmVSLjgwDn73uO1LoBmh5zC8jIhwNlB+vuvh56Bq/S3d9PQUk5ybnldPQN3PeBJ6lSHFjPMM1mjmUOH5hljwPy982lzLXKYY6llJmmw7D+gbl03BxFIF4sWP9siQ1Pr7Tn54vHQ/nPl9ryy0/s+cVSG/5rsbV8LOw/vdKOny0WAe+TBOv/mqbOz6YdHAfnP52mzv+9e4T/e0dj3HFFIXsyYC10fTwRWYFO/HDzGjkwx9ehFVXBiUjZ8PH4WrSjKtCKuts9cirA2iKjEZPkGswzmu6B8mbMUuuwyGwePp7ZjGlKDSapDffMmxjMiwVry4wGzFJqsMxqHg/mWc2Yp9VjldWCdVYzZinVmEgqMUupHT9vAjA/GbD2KmjFLacJ76LxUO5V0IKbVLDAtMth3TOvGffcFlHgPhmwfk0vhTf1U3n11F0of/V0Mm+dSZXHG7rJclh/Qz9Vbjf5hwh4FwvWfzocy0tH4/jLoZhxUP7HQ9G8eDSeFzRjEcZ/PBTDC0fj+JvG+HkThXmxYC2o3Kvdilnmcj+UC0rzStciOax/4lYsn7dUJLxPBqxnmmXLxZzZFtnjwHyWuZR51jnMt85hlpl4aJ8MWBsl1XA+oZqLqfeAeWoDFyS1w6Ce2ohhYhXnE2u5qCC8P1ZgLcCQUNta1ZHx4VlihJrVJW2D8lKHI/D5OG8fCVhfvUprRxd1rV109g/SIoxbOuTjnr4+Glo75Oe6+gcpKsqioK6Fgsp6zli4ccLAksj8qvvK7YkB6xlmUvZGNxJT2Yt7cj2Lre6As1k2BxKbSKzpIyi/lZUOeSxzLcY2q4U5FuLgWgxY/2y5PWvtc/BJrUXHJJpfLrORq90/X+bAdussAtNq0buUxj93eeCfWktQVgMR6SW8vnVqwfp/pmuy8oQvs5cajKuuMfugO66R+Vi5xfOXmYfGnVMErsWC9cmIQpbsOcKbK9TY7pqJTny9XPU+FpDKnI07eXPZDrbYJXL4UhwfrN3K9PUa7A9QXBkXpVhnNnHY2p0PV29lna4b5iMQndWMYWQ2C3af4nRsNZaZjRx38ufjjTv4+GwQFpkTg+mx6rkosM5qRM3AjA/W7GS7aQijz5HVxLmgRD7ab8R5ST3WKcUs2badN+ctY+XBU1MH1oXNnDA2ZcHmA5z0SB6FZtf0Mvaf0ufjjXvR9U/HRSJl66HjrNiji0lM2ei8iarjYsH69TMZXJC0ElncxS6nXEageZ1rMSlVvcSVd2PpV8pSh1I88zoJkLawzFSoLHEXwicyFgfWMezyqiAkr4Oz7vm8cAeaBYiea5qDd04HltEyXjkRzzqnEryy2zhqlzwOwB8uWBdhm9NJSm0/5rHVrBgD1ysulWCY2YFDSg0rvMrxqegjqbafo8FlolRxsWA900zKntB64qr68M9pZLHNXbg+ENBIRl0/yTV97LPPGwfdiqjjYsHaMKGcFXuO8N7q/RzxyhhVuy+m1HHCyRM1PQv5sTNh6czfuJv3NxxBKyB7dN5EFPLHDqyFJiW1l4cQAPD7VFfVOXHXJ6dp4L522SqwZkL/bt2+fZ+S/G3XrrU6jxN6FpyxDcUrNoejZ2wxtvPCOVpKalQAu49d4KiuDf4Jxfj5eGDsHUtZez+XrwzS2lBKmqz2gYD1x7Z5lHVfRT2sipTOm5hGVwwr0mZS9idWs9UjnwXWucy2zEE3uYWspj7mjcC3gpYTMWD9t+0eZFW38LqaB+lF9Sw/6iUH62fWB3DEPo8XNrhwOKqav2xy5ffrXHhXNw17rwR+vmRqwfqPyy5gGVDFhvUm/Nfrdytw2HnGsHm/EZ8c8+f8cVP+Z9rdc1MB1rvO2DJ7nyV7nOKZtkabIxE1crAWOkMeCylkp4kty9SNEFTto0F57LB0ZLWjVGHLiRiwNkvKZ7+ZEXqR+ezT3oFBSv2wGp3RwGFTK57710KOR1RiHCVh+0l99COLMUyqnTLF2iw2hQO2ThhEZLJPaxvGmcN2Esu0KnadOs0fP9zCmYRarCW5qDtHcTaqGONE2ZSBtWtMKJt2a2AZHoe2sTZud1RrA78MtppEYRlbwLaLwexQW8bmi0GY+XpzXFN3ysB6U0ANFxKbWOEiwym2mrdODwPzbv8K8nObWGSYzmwTKXEdn3MhtIitwW1oBFdODVgfk2AhaWWlYSoFtV2sMRmG5ldOZ3Apr5t3TyfJofrvumk4ZzWxxFDC3zWnULH2qsS/sIujwZU0dg2w179UDs1LXYrQTWxBUtJCeG49Ky8Vsc6zlL2JLXhJG6YUrBc5FxFWO8hq10L8K3rY7182CtBHA5owCSpnsX0eH5rdBW5FoFqYKxas9SMlbLBJQC8wkc024ZyXDKvWhjH5rNu0kUU7NeQQrevhzj43CZo2Fhx18FBItX7swFoAFVUJPnHQ/H0fNpJrrshtNpcHHn9f9VjYfRSKdayrD1ahUtq6r5CaW41jRAHd/b0YuMUSHuCNiW8aualx+IQlU1lVRN3lXi73D1BeXYNHjJTm3gdjBVlol0fj5QE2epQRUn8dm8SqYbA2zWZzSBU2ma0EF3ewyj6Hj2xyCau8PKVg/fcdnhSX1/DcWnviy5pZq+MnB+vfbPRC41I+R1xzuZRQyZ/XOfLMendcJDXM2HtJnId7UlYQdT7cFc/qT8eC9THsnFNYsFCLj3bbYXPBil+8ObVgvVbHknlaPmj6ZvPWYnXUQ4draOvE1XLYT8o2Cw/2euXIQfqIdzwf79Vkg2OWwg1sxIC1SWwqB4xPY5LZxEmLU+hJ7to8TOLymb5ouRys9VwceevDBazYf5wPV+4Yo2xPXLkeVZsnYM0Y8WIbh4ZyxNEBi/QajptqYZR+16dtHJbEtKV3wDqtgp1nzVi8VY2Pt+tMEVh3YOfvxNqt+rimlWDgZIprwbAd5KyvlIOuObhkNrDpfASm/oEsXL2Ot2d9wNa9J6YIrFNQj+riQkId75vlY5dYxTt6w2C9xDYP26QG3KUdmAfL2BXQSFJNPxWdt9AKrZoasNZJ5Xx6E9NPJpDd2MMmizS5Gj3NspDMjusYhVXhmt7GOttKshv6sE1qJCWvnve0FPdyi7KCBNTgUtDOdt8yGvqvciBwWI3WTmomqbaXSzmtJBe3sNa1iN3BVbgXX2aH79Qq1isuFSNpvsJ8mxwcins4GFgxCtZb3Ctxk3aQ2XqDXS4Fo8enCqzPBoay16cAY0kJq+xiMUhqGFWjz3t7sfLACYzTGjnlGcyGs44sVtPgkEusCqwFMOodvE5+86BKtX5AyYyZDQO09T9ZUC2so0cB1rUl2WidtULb3I/glGJOGdqjc9EJx6hsksL9h1uaZyXKW5pLczI57RCKf0oJ24+ZcczIFZeITLqujC+DKMYKMs8mj8yuG5gnN1HVe51zIaWciaxinVMu+wJrOBBSRXB5N+uc8ljnUUpSQx8bLxUwQ0G1WvBii1Gs/7jVg6SabladjSW3vJ6lh304ahnJ9JPhmEXLWGEQg1NSE//Y4MqbJ2LQtYjmf5aM92JPOFlyEmD9i3ePs14nk33qTvz3tIMs3m3JrI0XcAjIwMwuBEPvbPbuPMfP3phasN5v4cyHmzXZbOTG29vMULuUyCcm0Rz2iOWjAxfZbObP4YBc9npmsdUmknWnjFhgEDclYG2RUsaG04bstfFl2dpVnIvOZeUJC/RjqjAIjOf1D+eyzyMLw5BY1uw9zCFbL+YvWYxZ5r1+7B8GbDFgbZGUy9pTphy0dGHFhg2cj0hnyTEbjBKr0XX35x9zVnA8uBCTWClazqHs0TfgwxW7pgisO/FISWPbnoNomZmxS/MElvFFrNb14oxbHB/vMUbXPYw9NhF45Ddx3jOU5Vt3s9c8corAOpn5btW4ZrdhKGnHKqqGVda5GMdU8om1lONehZyNa8YzQsZr5zJRC6iioHUIDa/CqQFrjUSc09o56VtBcV0nqy+kc8gzl5kXsggo62OjZTbOGZ0sMs3Hp6CDY4GVyOramH9acdVaFFi7lZNQ2Yd1Rhu17b0cDq7GIrWaLT6lqAXKOBtfR0x+I1sCZMTW9GGaVI+af9k4y8hEEybFWkHm2BfiXzOIfpgMSW0v+32KORNVzV6nPFYFV6MdWUtm522OuhVOOVjrhWew8Kgt+43N2WLmySmvYI74F3BRUsMJM1Pmb9qLfkwFh4102GLqwzatY+ww9+VC6sSTJB9LxXpEcRSqVhS0DKpsIZOEa6HtbM3lx7e74sh6+bbtowDrgWvXkFVWEJokpXvgKtVV5XiGJdPY1UN9dQVZFc00N9VRXFlPc2s7QfHZ5FQ24xYQh5NvNOHpJfJE3rGvRwxYv2cmZUNQDRapzRhGV/KxZS6HhTdouxx76XRMAAAgAElEQVQOhtTKj58IrmSeZQ6a0Q1YpjZjEFnBrHsSHSeSxCgGrH+yzJ7Z5yRoOmaw9UwIv17hzHq9QJ771Inl5xI56pjBlouxPLXCnlf2B/Dn9fbi1GqhUskkwPoPS86x3ygYNV0ffvH2Yd5bf4E3VuozfYcthy+GcOCUK8++Kw6qBcuIWI/1qdhS1mlflHcwVPMq4LB/FpvsU9DwSGDpQX0+2nuKTaZ+7HaOk48XaRihEa54AqMYxVpICDzsGMonh/TZeMYXk8RStht7YxBXyTEHTz45rM9200CMU+tRt/aQz9tmHHo3oVGBCiRiwNo6u5k9Zu6sOnyGnSYRmMTlsumCHxcSK1A3c2CVxhn2O8ZiHCtlq5Y+q44Yctgrd8rA2qe4g3MuHmw5Ycgp93QcUirYaxWFc0ophw0t2KptxMWoPHxyKtl/1pQDVqG4FXRMEVhLeOV0GocCqzCKqWWFTQ7zTbPR9CthiWUO56JqORdRxXKzTF4zz+NUVC2n/EtGVe2JeKtH5ojzWEfzqV0e+qGV7HfM5iXNJDbaZvLy8VgW2RaiJxx3L+TFo3FscShAP1TGLptM/iyi+ogosHYulNsXnKVt6EVWss6zAv1YGStdC+V2j/WeJRwPLWe9bwVWWe0457RjlVLLWrfh8xOFamGeWLAWkt43+1ZiIcBoXDWLrLLQCCxns30u64QOkalNWKU28pFNzpSDtWFCJRtOGLLsoC5avmmcDU7gRGgJhrGFbNU8x3J1Iw66SzkbnsEqTQOWHdRHO0A6qmo/kR7rsTAhjAXrQmGLSrn+PpvH950Tyuo19Fy9z7N773V+XPcfDVjf35J8stdXFFiLUJ4nAtHfNkcUWE9lab5JgLUifmkxc0WDdcJwsqIiFT7EzBUH1j+sNI9NQJzMWBxY37V+jNhDHsZ2MlVBJpqAOJl5YpMXR8D3YW/FgvVEkw8nO08sWCsCx5OZKx6sxVf7mKglRKzHeiJgPNk5j7ViPQIjQhMTQbn+PoBUnbvfly0o1Q3dV3+wFuPIdX4ctyqwnpq61yqwfgSKtQqs5cmOKrAeX45PEdBWgbXivuqxMK4Ca/EA/qjB+kJaE2dSWjiR1IFm4nBoJbVzJqUV48epjvX3gV3XFaHG9SBCEp4Kon/4GqTXX6Gyc0je1fL7ruvjfu5xAWtJZZe8bqhQW1QZ40X1IH46+zw/+VBJY6YuP3lXSynjhfVW8lbrekkNKGMITRwEeBXUV2ULQWUW1G6zjCbljMxmHHPb8ChsV8rQjanhDf0U/nFKopTxt2PxPLs/kt/vj1C6ePZAJK+dlrDMpUgpY6lzEfNt85hlIVXKWH2pCANJg7xJjPAe8/CjCV1JC4fiO9kS3ceHwdf5u88X/M7jPzztBk+5fcPvPP/Ny75fMC/0GudyrpHcfIum/hvfKU4qfefFHwI8oQzfiC1EBdffD9ZComLjE2z/GLuWHhuwruriY9tcpXyDFN64X9rryU+nHeInb6grZ7yvz08WWChlvKjmLa+QcS65EWUMQb2xz2nFIVf5wj63VV5JRBmvm/x3SmmUg79jbivKGFqR1Uw7k8orp5OVMv6qGctvd4fyG7UQpYvf7g7hVZ0EVl4qVspY4VrMQocC5tjkKmWscS/mdEI9+kkNDz20E5pYH9HDG36f8azn1/za/RuecoP/+44QQPsZz2943u8btiZ/hXfV53QM3Liv3O6PHqxHYEkoxVfUqmp9/m2qvfCBQ6hT/SRW/xhZH/duHxewTq7qYoGyg/Ub4zsTivEbP7THzNIXn/j4kL3gL+724UREpVJCtQCHgt9QAFhlBGvhdzLLbMYguVEp41xKIxZZzUp77X4MYK2MUD3yOykzWAvAv9BRucFayPl4mN/SnU5qZG9MO+8GXOdX7t98J0h/F2CPHP+1xzdslXxFVtutcer1YwPWAjj1Dl2nomMIwUP8bYD5JB4TGuoI5QmftDrV94L0vfvKDtYdXe10DQzRPzhIXXM7iWVt4/5wR16PWLD+2KGANZeK+MQ5n9mW478SnG+bzxKHfD60zGGlSyFrXItYap/LByK+OpQr1pMA6/+adojff3CMn785Hs5//aE2zy/Q5U9zTvBf97QUVwjCxYD1Yht+v/ESz29x49k1Dvz0DmALbdj/sMF1+PinTvzvcjv5WJj35w1O/LeCLdcnC9ZnYss47p+FVkjRODjXiy7hmH8W2qFFcugUq+qKBWtzSQXnI3K4EFs2DiztpUKlgVJspS13jrdgmVyBZXrDuHkTBXmxYK0dWsBRv0y0wkpHofxMYi3HA3Pkx3WiyuXHzyRUcTrq7hxFIH4yYG2RVIJhRC5mkurx1yWnCfPUutFvEeyljZgllGGTPXI9J/4hSCxYv3o6hVkXs+TVQN4xSBtVu988m8Zc02zmm2Uz63wabxqkj+7/a8y8iSrkgmI9ArGKbF/UiGKaVhyvHonkt3fU7mf2hfPq8Vje1IrjtaMx/GFPKL/bF86L6pE8I1IRnwxYC+3Kd/pXoBYgY6NX2TjV+xO3Erb6VbDJq2TccUXVcbFgLbRb/9SjmKWO+ePVbts8eeOaJQ55LHAsYJ1HCZ96lLDKtYB5toop44JiLQasdRNq0fTP5rBPJiejK0fB/FR0GRq+mWj4STkZW83p+Go2Rl7mT55fiQbqEbAWtoLCPS/y3yQ136J7aLhAwWMF1gJsXLl6nda+qwi2hycRpMe+5pE25cIHjhEQU22Hr8WjAOsrQ0MUlxTjE51GR/8gZaVFOPvHUdt2meqKYnyj0wlOlNLe24+vjwcXvGLJLilj9yFddjuk0Xvt/vsoBqzn2uXj1XCdlJo+mi4PsN/9rt9url0h1gVXCCm9zCrXEqq6rxNX3U9BRau8fJaivrzJgvWms6Ekpabx6sIjjADzT6edwDRGxqWgbNJyS/jdrKOj50bmTHgrAqx/t8MX/+LL2MRUExmfyx9WDnd8/NuuEPxSanFPrsMpsZJ/7PDguHMmuh7FJKfl8+I6xTpDTgqsk6rYfuQwszbsZebK7ePAWt3CmvnbDvDexgNoxdSOO6cIZIsCa2k9q4/qM2fDLqbPX41tVuMwHEob0TSz4tk3V3I6tkp+zCq1jEXrD/KpebIoZVwUWCdW8P7Wo8xYtZm3l+zg7B3F+3hQPh/sOMnH2w+wVNsavcQqlqsfYe7mPaPwPSVgnVnGpt07mbd6DSv26Y+CtU1KMdu1T/LeQTvMM5vkx88HRPLW/H0cjxi+nhP9QCLMEwvWb1oUEVraQ3rjoLy03qt3rCS7/Coor+3BOr6Ow06FHI7qILGyl5zWa2gFV4wC+MMF6zAcJM2EFHSRWVTPtEPDVpI/HYtnr3cpeiEVuGe1865mNAd8ywmLq+Lvu8VZTSYD1pt9ZDT23aSg7SoRBa2sdbtrKdkXXkdR72f4ZtSyZszxKQFr20KyGweIrx8kKqeeRXZ3gXm9XxUl3dewTaiQlwO0zmzFq6iPxNImljncnTcR+4lYsD4WnMsbi7Ywc+UqPjV0QzdRyE2pZ6+JM7M2aTBtwSaW6AWz0zeDZ90+fyBQPQLYT7vD772+IbDmM3mltccOrOVwfe06I7Wu0+ufPMBOqR22ftTL/dRPXvOXiXx4eBRgnRsdhqlnHAWVTUikMiz9kuVdFa0CUogJ9uasfRiRIaEExWRRUJBBTnUjnX0DVNTXczKw6IGB9VLHAuovD7EzQEZ0+01sE6vlHu15NoWYpbYQWdVLdE0/W92ryars4UxcIw391znpexfAJwrYkwXrZ+edxM07gNcWa47C80+3uhOUXMALK404Fl7N72ZrjZ6bMFCPtCAXAdYzjgQRk1rMnze5klneyLt7hrs+/nlnCBb//z7ttcvCJKyYXyyz4ak1Lmh4lrHqqBf/vWjqwFovLIVZH23keEA+ByyM0Yq769M2SKziZJCULSaunIytm1Kwtk7KRN30FOYZdRy/cBCj1DtqdE4LxuES3vpoKToxlVjEZbPuuCkf7TRikY43tiIsJ2LA+lRAONstrDgdXcoO3T2cTBi2kpxNauB0bCVHPePZ5RiFXmI9h50DWX7g6BSCdQsmfs58skUHs5gsNM11scweVqHtsxu4GJPNfP1QzNLruRAYxbbjeryzQpt9HhkKfzARB9Yp7I1ow1RSz2K7QhyTa3jnzLBHe7NnKYm5regEylhhnsOeiA48pG0EyfrRCiidGrDWjOdcSj3vnIwjp+Eya40S7qreu0OZppeBVUgJLxwM4y2tJKzdinn5UYB1TBORpe1sCqwiqKKbLd6lcnV6k28VPmW9uJf0EFzQzAav4eOKQrVoK0hgnfzbo+3+FdR2XmGN67CdZFtgFQEVvYQWteGVUi2vkb3YpZjAin4M46rk+xMB6pE5YsH6hF84G50yORWVzRLzMLTj6uSqtfBBXSe6nE91LjLdQMLv3L+UJySOQPGD3L4R9B+iGj7jsQTrEbDqHbpGY++TpV4LUC3rGJJbP4TEzpFrodqOvxaPAqxjXL2wCsqms3+QjMIa7CIL6BsYwNAzgYhAn+HOi5kJ8s6LIy3NhfvW3tfD6ZCSBwrWjT2DbPWvILL9FvaSYbBe7VZDess1ZL03aem9jpZnKftDq7mY0kxb/1UOuU49WAugbOviNR6st3gSmJLPn5cbohE29WA980gQ0alFPLvOkazyRt7b4yb3af/zdCIbLVJ551gUp92KeWaZLbNPRhAUk8vvP7FV2Ms9GcVaAOv3P9qIVlARh6xN0Yq/C9a6kYVsueDBkYACORQqolKPnStGsRbAWtNKD+ucZnRM1DFMu2vzsE4q4L0ly+VgfeKiAS+9PYM/vvw2L81djXmO4nYGsWCtZmePfkIlavp70L4D1gaSeo56JbBQw47jdywiJ/0TWKWhNYVg3SoH65VbTmGZkMcxi7tgPaxGN7DIKAYTSTmbd6zkhdfe5jd/+ieLj19U+IOJWLA+ENmKUWI9sy0LcZXUMP0OWAtWEMEGsse3Cu+kWozLhjCNKkcrphOjYBmvKZgkKcoKIoC1pI5pmpHk1F9m3cXEUbD+65FY3EoH+Eg3Xm7/+MvBGC46Fj4ysA4vbGWNj4xAWc8oWO8PbqLs8k2q+j6j+vIQB4Jlou0goqwgAXWYp9Sz2buU+q67YG2d20lF903qe2+QkdfKfJtcdofWEJTdwFLHvPGWkQkkTIoGa/9wtrrlohdbwHKLSLRjh8FaL7GWnRcd+EA3kD9fuvlAlep7ofyX7jAr/N+PN1gLUCLApaBeFz/miY2C7SOrYYD67iezk6KiHxweBVi3NcrwCAjHwT+BvPImfAIisfEIJk5aRlZSJM7RhZTlpxMan0lJWRkOgUmUN7TiHRSB2jkP0itb7yuTKMoKYpuPW+0gyQ0DlLVdQd2nhHMxNax3HvZabwiqxr2km8WO+TjmdxFT1oVdUjVzrHIUrj4yWcV6r1kYJRXV2Bi58ZcZuqw5ZMHP3jnN+chyvOOLCUnM55n3p9oK4o1nUQdu8TKCI7J5fbsfp2xDmXUyGqu4WpzjqjD3K+I3KxzZaZXKQg13haFaaMk+GbA2SJCx5dhRZqzYwJxNGuhLGlhn6M+RwGK2aGvxt7dm8e7KrezzzBEN12LA2j67jm26hny4divz1+7FNKGANdoWnI+tQP38ef7w/AssOmaNRcZwYp+GXRKfWqYprLgKoCkGrM/Gl7Fw3wmmr9zEnI3H0ApKYe4hSw55Z/Cvjxfx+uJNzNmtx/GIEhbvPcjz06az/EigwnAt1mNtl1bEp2rbmL16IxuPm3E+Mo8l2m6Yxuay7uAh/jprFWoOcaPX65MjnhwLnzoryGzLIryL+wivGOBCqIxVtnmYxlWxzrEAz5x2gvM7MQkp53xGLynVPURUDKAfUDY1YL07HPP4RsKzmkmR1jBDO5H9rpm8qB7CexeyiEmR8fyBcDlsH/MppaCiB12XjFH4VsTLPRkryCa/KkpbryJ82+5f0I5aYA3mme2jEL03uhHHtJqpt4LYF5NS3U9KVQ+h0ka2+FZjmlA26qE+FSnDLqFCDtL2+V3s9ClRGKoF1Vo0WIdJmb5qJ28v2yDvLKvpHsger1z2XbjE396Zx5/0Mx4qVI9AtpDQ+Fgr1mNhS2gmI3QaFLo1CqruWC/yj30sbRygpmuI9v5r35rgNvY6qMaPzmMtXPue/iu0Xe6VA3LvlSs0d/bQN3QVYdzVPyhXsLv7B+gbHKL1ci89A0O0dXXT1HGZritD930DIQasBRuH8FWdTnQtuz2KmGeVxz6/MpbZD4P1AqdCtvuVM882j2NRtRwPq5TXyp6o/WPsvMmC9dx9dmzT8WDVlov89p0TvLP2LD994wB/W2bI+mOuTF92mp9NIjnyJyKsID9ZbMM/1YPZZBTHy+ud+OUnriw/4cUvV9rxwdFQtlyI5W01d3663IE39gfw1FKbKQdrQVnWjy5mq5ErBz0yOZfcwF4XCdoRMo5eCmGtjgVrTlpyNLh0Sq0gAvCaRGdxwMwNvbAibNIrOeQQhmlyDXpeoWw/Y8Uhpyiss4YV6ouxFehHV456iYeV2Ykl4YkBa8EnrekRyyZDdzSDStGNyGejWai8NfJGA2dWa5uz0cgLnVgZO8w9WK1tyQ7z5CkDa+H1nw9N4YB1ABcTazBLKmevQwKWyWUctnRlh4Etp4JzR6+XbkA+Jql3fOwK2GnEKdbJvKqbwlrnYjT9yph7IZ05Jlns8Shktmk2GgEyDvuW8b5hOm8ZZKLmXc5h7xJmnlO8rJ8oxVothDdOS9jhlMf7J2L4w/4oFhkl8ef9obymnci7xyJGExqXGaez/1I+K43uqtpTBdar3Es4ElOPeVoz+wIr2OAt40RM/ShYb/Ct4EBQOZ9MopyfKMXaJpe9odXox9bxiUM+y11LORxUxNw7yYnr3IrY5lEoh+mDITIWOtyT4DgBtXoyYK2bUMMeG38+NfTleEQF2kHJaASXoHkpkWlHLvG/Vn1TAtYCYD8xYD0ClH1D12nuvSovP/djr3stNHup7R6ie1AF1CP3d6LbR6FYT/R3U2SeWLAeC78PczxZsFbYMz3inZ7oVgxYP+Qye4JaPVnFeqxl42GNxSjWioDxZOeKBWtFkhDFzhWrWE/2mkz08WLBeqLJh5OdJxasFYHjycydjGItxjOt6GPEgvWID/phbsUq1t9Vnk8nsZHpAdd/EKoFG8fvvL67hrUAzMNJit8/54kE6xFoEWBUKM0n1HdO/REp2ILaLmTmCtYWoS61ykc93js9cn9/aPu4gHVCWSuzDOJ563SMUsYLapd4eq4uT805rYShy1NLzeQJhkKSobLFP9SD2BdQxrGoaqUM/cR6ecdFu5xWlDFspK3YZLcpZdhmt+FZ1ElQ+WWljHPxdbx6SsKLJxKUMp4/FsdfNaKVNv51NlmuKAuqsrKFAOHzbHKZfiFdKWOlUz6GKU0YpzU/kDgc38mznv/+XrD+jSfsTIeARpgR/u3g/GsPUM8Gtxr4V+hwmb0R+8e92ydOsR4LXEJTmZ7Ba9R1D1HSNigv0aesKrZQm7uwdZCqriG6Bq7JS7qMfS2qsWKA/biAdVhKKb+fr8svZp5Qyvjjp9a8Y5DIOwZJyhfnknjbIJm3DFKUMt4xTON90yxmmSlffGCWzQb3Yi6mCi3Dm5UuzDNaCCzrJr/lmlJGYet1WgZuc+XW10oZYYWd/PlAOL/eGaSUISjCQi3lpU4FShkrXApZ7V6qlLHKrYQ3dZN4erOfUsY8AwmBRZeJqOidfJT3op58nV9+TxOY33jAqQJouwGDt2FL6rdD87NeENoMt/8NaV0wN+rbAfyJVqzvBdGRJMfyjkEKmgcRbBZCQuCj9F8LMJ3bNKxOq1qRKwbO997fe/cfF7AOSSriVzPulqJ76NaJiVos7sx7bq0l75tnK5z0+DDtKWOfe6ZZNu+ZZCllvGucyb8M05U2VrsUYpTShEl6s9KFaUYzoeU9yDpvKmVUdd2i7/rX3P4apYzY0sv8cW8oT28LUMp47VQCq92LWeNRosRRyhoP5QsBrF/XSeC/13oqZczWSyC8tIf4qv5JR2xlP3sltxBsHveqysK+YP3QkML1r2DgNhzJAQG0v22ucOy1IIhvh39/A5JO+Cjm2+c+0Yr1vbA1si8o2UIlkcrOYauI0GwmrW6Ah6lmC88tgHRm/YC8uoegoAtecFVzlwcL1CP3WNnBWijD13f1GgNXr9F5+TLVTe30Dl69L3nxQYD1b2Zq8tQ76uNqQT/9niYvLtLj2Zma/FRBmB4L92LBWkicXOdWzALr3PugfIF9Piud8vjQUsoix0LWXSpirrXiFUsEwBYL1vOs81jlXMicMWA+wyybxY4FrHEpZKl9PjNMsvhQSBS1zpWPFQX4yYD1XMscltvlMcMoYxTM376YySK7PFY65DPfQsp7xpkssctjqW0u040UB3ixYH0xqYrTIbmcT6ofD+RpjZyJLhmF9fNxZZwKzsEouWH8vAmA/GTBuqxlgLSiOnJq++4D84KGbopbr8qPV7QNkVnaQKasi4qOiUP8ZMH6+s1btLR30Xf99n1gfvOzz+m/+RW3v/oPPb29NLV3c/3zf9837/ugfjJg/deDEbx+NJJndwWOQvlze0N483gMb52I4VWNMH65PYCndwTx0uEInt2lOLyLBesNPuXsC6mUl7AbC+VC6dGDoZXs8CtjrUcJ2/wr2B9SyUYvAYzFwrviUL3ZT8b+4Cp5x8URKF/rWcaOgEoOhlaxzbdcDus7AyvZH1LFp56K/4zJgPWzu4L4+74Q/m/dXSj/1bYA/qEexqvqYfx1ZwA/X+vJ3/aG8PK+YH653ktheH8wYN1HZFETbskylobfkHdHvBeWBdjenQF9n8O1L8G0DARLyL3zxu4LXRbfDh1WrL/6D5T0D+8L3uux81Rg/T21ngUVW4DsvjugXdV1Va5mCwAs+LIFv7OgaisC3MJc4THCY4XnECK3aZCqziF5rWDhZwk/U+WdfjhA/ajBum9wkMt9A/L7K4y7evvpH7omb11+uX+Ay/2DXLl6jQpZAZVtXTQ2N3LW4CIfbz5JSln9feticmB9kKfeO4mRSxhLt528C9ZvqLPRNIHWywNIolP54/viFXExYP2BTT4mRX303PiC2OxGPhpT5m+2dR62eT1kVLSw3r2YjI6bcrgwDi+Tg/ZYNXoiYzFgPdM6H8/qIXqv3cYtropZpsOK9/uORYS2Xmfw1pfEVfbyoUUOR2Lric9sZL4IVVwsWL9rXUBM0zW6Bz/jfEAx0++o3h9cKiW37zMGbn2Ja3Ybe4NkNA/dpqP/Juru+aMAPlGVXBRYpzWx5bQRzz7/d2Zuv8CF1MZRaDYIz+bNJdvQDJNhnFTBsk1r+e2fXmTuIXuM0xRTxicH1jfwCgrmlX+8zA7tixS1DI3CdVlzLzqmtnhm1iPruI53UDDT33oDNQ0rSluvjc77IaV8UmD91b8J8HLijdff4KCeAzdu34Xmz7/4EkmYG7aSBq50NaP+6WJeeeM97IKy+fyriavjYsH6t7sjcc/vob33GmqWKfzyjuK9xTabzoFbXLnxBTnFpfxmRwCvnE4npbKDVTp3AXyiCrlYsHYt7pG/r8QXtrLBcxiYNwpdFuuGGPr8K7LqetgeWElM4zX6b3xBgLRJDtri4FpR6C0jom6Q3uu38U1vZP0dtXtHcDVp7TcYuvUlUaUdbPCvIqfzpvz9x05Sx1oFVXHRYL3OC7/8Llo6B9mhF8kv7sD1oksVNF35jIEbXxAaVsEv1aJIrx+ktXOAzRfi5KCtiDr+IMA6sqgVtd17+P2L/+K3BmXjoFcAYMEvvTUV+j+HW1/DwWz47Q9A9Qg4C3D9vD8kdQwr1/+/YiRvhqjA+j7VbwS2fmgrwK4AvkLpPiH5sXPgGi19V6nvvkp115A8GVJQmoXEwnujtG1QroDXdV+Vt1y/PHBN7u8WPN5CIxsVSD9ckL733j4KxbqtqREXN1+Om3qRXdmEq6cf6nq2hGdXkBEfxj5de44bOZNaXIO5iTHbzrjiJinHPb6I6sYmHKOL6BwYr1pPDqyP8N52F4JjJKzcOQasPzJG0ymTaasuohtZz8tLz9yFbgXVazFgvdqtmPKuQXZ6l1LSdoXjgSVy1Xq+XT7nJE2E1w+RJmtlv28duSUd6EfWUVp/me1Ow+UCJwLUI3PEgPUW7zIy6nvY7FFMSXMfm13z5VYSAawt8ho4FlbFTp9S5tnl41rYRVZu85SC9aHQagLzW9jqUUxObReLLLPk0DzLtQSX3Fo0gmR86lLA+yZZ8m8FbLK7MQ0pGQXwhwnWF+Jy2WV0lhOBmahp7UE3qW4YrFMbOGzlzJ/eWciRMBnnI5LZqqHNXhM7Zq49PCVgnV5QR1B8FpnFVfj6OxOTX4eZXyqxlXdV60xpEqu3anAptQ5pYSHaxzSx9QojPKWY8vYbDw2sP//yPzTUN5FbUExDYw2SBD+qm5pJDrSh77M7qvVXX1NRXohEEoFjVjs3P/uC5roqPF2s0TPz59aX30xYtRYH1oEscShDL7ySORdzMfEv4Lmdw2r0s7uDeeVIJAd9ZOyyS+NfpyVoexVSVF7Hp6enCKz9Kgmq7EcvqkbeYEUvulKuRq/1LEUtqJILGa2kNg1yMKqOmJoe7LM6SC/tYPtUKdYBtYSUdaMbXUtTzxCHQ2RydXqdV5m8UZddfhfR1X3siWokRtaFffZlYnNa2DRVYH0wibMeeSzUjSOnpJ6/7PCVq9FPb/Hn+b0hHHDL56RbHp84NqHvkIOaUxHWAbk8s+Guuj0RwBYL1nGyy7jHZmATmoVXaimnPCW4JlcyzWd8UxgBjDenwJXb8MW/waR04lA9AtfCdm40VA/B1/8ZTnp8ZgyYqxTr71Gs74WxH9ofq3ALAD42BBX6hx6vOjF0orYAAAtxSURBVD911+hRgHWMayD24bnUtnSRVdqAS2whtc0dGHjEEx7gjYF7EkmxEXiHJ1NYmEV+bTNpRfVEFzTTN3gVy6B82vvH17KeHFgfkAOznqnbeLBea8Mhzyz+Z8ZJ1jvLeGnZ1IL1evcS6tt6We6QR17HILph5XKw3hdWQ1nPTSp6b9HcNiBvFR5e2U92wwBd3VfY7TI1YK3mW0ZWZTuLbHMp6hhgp3uhHKxnWOawPaCCC2ltuBV28YG5lENhVSRnN00pWJ8Mr8Yno1b+++U397LURioH63fNpaj5lXE+pQXTlCb5sfm2+VjmdGMbVsZ7Cvq5xSjW5yOT2XNBC6O0Zo5bnORk/F07iGFMHm8vXC4H63NhCezQN+KAtTtz12py8WEr1h03sDSxY+68hbh6+xHobE1p501s/EoILb3r1a5ou4a+ngMeqXUkJEWzc6s6zt6BmNk5UtQ8bA/5IbVaOK+oYn3j1m1sz51n8eIl+ISEI43w5eaXX1GZ60nX7WGwvnmlhS0bP2HJ0kW8u2AVktJWBq90E+TtjK6x+xSAdTDbvJvRCS7hpWNxmIQV8OfdY2weO0PwSqlh0blEJG03KGnso6P3KiZWqTyjoJdblGIdVIVXTQ9qAeXIeq9xPq561OaxwaeMM8nNJDYOcCiqgdDSLhzyusiVdaLmPUVWkPB6LpV0sFv4JunKdY6GCeA/rHpv8a3APLuD8Ko+9kc1EVjUgWtRD5LCVrbK7SoTV8dFK9Z6Gag5pvHKoTCK69p4fpf/qM3jlzvDORNexZt7A+T1wb0zmokv6sIvIo/fb5wasI4qamD7rrW8vWgzhr7JWMWWEF5xhXeDbt+nWH8QOQzFglda2gMv+o9XnMcC9HeND0th8Av4/Gs4X8w4H7cKrB8gWKvAeOrAeLLX+lGAdU50GAaOYaQX1BCZXIKRczT5ZWWY+0uICwvAMiSHYqkE/4gUikvzSS2rIyOvEhOPRHLz8/GWlMi/KRn72icH1ur8bvYpTJyC2HnYkKfeOs4KdXv+sPAM2u5ZrDvsjJe0nr8v0Z1SxXq5axHS9mtoRdbKFetjfmU4ptSww7sYvbg6LpX2UVBzmY2O+XIvokVmFwEptSy0mBqwXutRRmp9P0fD68irv8wejzJcUmSscSnhaGg1J+KbcCvuZo5VLqfi60kvaGW1TY7CCZJirSDbAyoJLe7gWGQ9ySUtbL9Ujl18EaudS1H3L+dITAOmacLxQvRCKzBO6cA3tlLeuGOiarUwTwxYGyeVsv70GdSs/Fm2aQ164VIWaRijE1GJXkAi0+YtYo9HFqdc3Fi46SDq9r7MWbCCi2l3LSMTSZacjBWkvKUfV18vnKOlmLkGkiK7jJO1EemlzRTVNHNU0xDLkGwyCko4q2tCWGIm9u5uFLY8PLAe64e+ef0KAWH+SLJzcTY/TXdvN9E+tvT1dBIXHYaziy37DR2RFhSRkVeIJCqAQ8fNuPnFfx6yYh3AaxdzsYyrQTu4ijO+BczVT+BcYL68e+EK71o0zFL5694QNtjnsNspl6yKNjSMYvjNVIC1dzlhlf3YZbdT2TmAblQN9tmN7AuqxjqzXd6UJbxhEO34dtJqr2CZ1U5tRx8agVME1j6VxFb1YSPtoKq9nxOR9Thn13EwtB7bzFZOp7QSWHUFHUkXceU92OZ0UtF4md1+E4dqAdRFg/X2COyiZOxyKSIupYT3tJI5ZBPOLz71YplFDub+ufxineCp9ubt43FYxrdwwjaD/1UwSVKsYj022TE0t5Y9Bl5YBCfxL/tq/s/tm3FwLajW74ZBbg98+R+IaAEBtp+6xyv9bVAt2EgOZEHDteEKIc7V8Bff8WCuAmsVWD+RSvqjAOvevi7SsvJJyC6lvLGDNGkhiZkFlDV20tRYT3FdB+3tLVQ1tNLU2kpyvozqlk5SsgpIyiygpqP7PsvQ5MD6MC+vNGHFQXs+3mTEr6Zp8NrKszw9XZ2/rzVj6T47Vu635unph6cUrD+wzkXwFR4Lr0YzqIyFNvkcCijlY5thcF7iWsIe3xIW2OVxIKQK7cgaVjjm35fkOGL3+L6tGCvITItcdgdVcSSkkr1eRXxklc8hvyIW2uazL6ASzdAq1LxLmWOdy76gSk6EVrLeedguokgCo1iwnm6Wwx5/GeoBFWxyymO+RR77PHL52DqffX7l8uPrXQpYZpeHRmAFhwMrWGmdxdtToFgLTWWOeiaxy8STPZYRGCVUsMcugrPxNej4JrDd0IVD7skYxpdzyMYHNVNPdtvGjPqwJwLVwpzJgLWs8waSgmqc/KIJluRS0jJITEIieXU95JWV4OIbhntkBgVNQ8SmZuESEE14SuFDtYKMBevbX/+H8uoaYhIkJGcWcf3GLSqKpFy/9YUcnG9+/hn1V25zpb+blLQ0YhMk5Fe1y5W18c/z3Z5rcVaQAH61K4xFF9NZb5XJWyeieVkjghUXkvjNrmBmX0jnr/vGVxqZrx/H3/eNUbUnCNiiFGuPEk5E12KU3MTZuBo2e5ejHV3NNr8KdBMaMUhqQD++js3CflKjfN6ZmGrW3/FiK+6zVgx4BejVjW+Q/9xTUdVs8a1EJ7qKHf5VnE1q4lxSEydjatnoVynfF17HyYgq1k2VFWStF4vPJbHSKJnph4L5w64wZmsF8j+fevGSRhT/3OV3x0/txzzdRNZelPCSmt+oqj0RG4gw50GAdUzZZSx94jl/KYzFnk08fQ9YjwDz/GjI7xu2c2R3w8zwby+1NzJfqBgiJDy23hhOeLSW3Q/VwlwVWKvAWgXWTO7frdu3H9k1nBxYD1tBxlbxeNBjMR7r7wPhB31ODFgrAseTmSsWrBVRnSczV4xiPVEwnuy8yYH1xKt7TMT28W1zFLWCTBSIH9Q8sWA90eTDyc4TC9aKw7FYtVp4nOJgPRWPEa1YK6g8TxSk7533IMB6RL2Oq+rnUMrNcTaNEUgWtkI1j7dCoHIQvvlmeCso12PnjIx/5Q6nC6Dns+GkRcH+8fvv6NSoAmsVWD8yKBxraZjq8aNQrB/Ga1SBteL2j7FwrgJrxcvsjcC4CqzFA7gKrBVXqcfCuAqsxUP7kwbWOhk3+LXHeCvICCwLW8EWsjB22Bby2ddwRPrtqvVz3pDTA1e/BLtK+JvftwO48JwqsFaBtQqsJydY8ygV6wJZE1oWoWhcDFTKOH0pBXNJHRbJyhlmkjpME2uVNozja7gYp3wh/F7OmU3EVV0mobpbKaOgdYCWvhtKGa39N+m//jk3Pv9SKaOk+Qq6/sWc8C5QyjCMlOEsbcZF2qIKBa+Bc3YzRpEVaF7KUcqwjJZR1HKFsvbBBxJJ9VeZGfb9Lc0F5Xp2FJzIhee/A5iFOYJ1ZF8mPOfz3VCtAmsVVD+RUC0ox4+LYv0wVHDVc/54knBV90p1r1RrQLUGVGvgu9fAlavXMcj/4jvtIGPV6wc1VinWKrh+IuFaBdbf/UakepNWXRvVGlCtAdUaUK2Bx2UN5HXcZHro96vWDwqqBWuJCqxVYK0C6x+xFeRxeeNTvQ7Vf+KqNaBaA6o1oFoDD2sNGBfe5tcTKKc3WcB+zvsbFVg/rJuoel7lfoNQKdbKfX9Ufz+q+6NaA6o1oFoDqjXwoNZAfd8NDmd8Ia8EMll4/q7HP+P5DVrZX6jA+kHdNNXz/LjeAFRg/eO6X6q/L9X9Uq0B1RpQrQHVGpjMGpB132BB9L8fGlyviPuayu4bKrCezE1SPfbH+0euAusf771T/d2p7p1qDajWgGoNqNaAmDVQ0nmD5bFfIzR7+S7lWdHjz3jCgqivyWu/iZAsqfJYqzzWKo+1ymP9RK4BMW/Kqseo/jNXrQHVGlCtgR/vGui/ep2izhuckt7mBb//TEq9ftoN+XOczvmCsss35FAtrI3/B8JzNu5UndhZAAAAAElFTkSuQmCC;" parent="1" vertex="1">
          <mxGeometry x="1281" y="197" width="178.69" height="96.24" as="geometry" />
        </mxCell>
        <mxCell id="Sl2bv3AIZOpNkn_9FIrU-53" style="edgeStyle=orthogonalEdgeStyle;rounded=0;orthogonalLoop=1;jettySize=auto;html=1;exitX=0;exitY=0;exitDx=120;exitDy=50;exitPerimeter=0;entryX=0;entryY=0.5;entryDx=0;entryDy=0;" parent="1" source="Sl2bv3AIZOpNkn_9FIrU-52" target="Sl2bv3AIZOpNkn_9FIrU-51" edge="1">
          <mxGeometry relative="1" as="geometry">
            <mxPoint x="1290" y="245.12000000000012" as="targetPoint" />
          </mxGeometry>
        </mxCell>
        <mxCell id="Sl2bv3AIZOpNkn_9FIrU-54" value="&lt;font style=&quot;font-size: 10px;&quot;&gt;Generar&lt;br&gt;Dashboard&lt;/font&gt;" style="edgeLabel;html=1;align=center;verticalAlign=middle;resizable=0;points=[];" parent="Sl2bv3AIZOpNkn_9FIrU-53" vertex="1" connectable="0">
          <mxGeometry x="-0.1483" y="4" relative="1" as="geometry">
            <mxPoint x="7" as="offset" />
          </mxGeometry>
        </mxCell>
        <mxCell id="MrkzlXc2_4qQzo67yfB1-6" value="(6)" style="edgeLabel;html=1;align=center;verticalAlign=middle;resizable=0;points=[];" vertex="1" connectable="0" parent="Sl2bv3AIZOpNkn_9FIrU-53">
          <mxGeometry x="0.1797" y="1" relative="1" as="geometry">
            <mxPoint as="offset" />
          </mxGeometry>
        </mxCell>
        <mxCell id="Sl2bv3AIZOpNkn_9FIrU-56" value="Cliente" style="shape=umlActor;verticalLabelPosition=bottom;verticalAlign=top;html=1;outlineConnect=0;" parent="1" vertex="1">
          <mxGeometry x="1355.34" y="408" width="30" height="60" as="geometry" />
        </mxCell>
        <mxCell id="qZR9Qv6uX3RPC9YeKpCW-8" value="" style="points=[[0.015,0.015,0],[0.5,0,0],[0.985,0.015,0],[1,0.22,0],[0.985,0.43,0],[0.73,0.85,0],[0.5,1,0],[0.285,0.85,0],[0.015,0.43,0],[0,0.22,0]];verticalLabelPosition=bottom;sketch=0;html=1;verticalAlign=top;aspect=fixed;align=center;pointerEvents=1;shape=mxgraph.cisco19.surveillance_camera;fillColor=#005073;strokeColor=none;rotation=-90;" parent="1" vertex="1">
          <mxGeometry x="34.72" y="181" width="34.56" height="27" as="geometry" />
        </mxCell>
        <mxCell id="qZR9Qv6uX3RPC9YeKpCW-9" value="" style="points=[[0.015,0.015,0],[0.5,0,0],[0.985,0.015,0],[1,0.22,0],[0.985,0.43,0],[0.73,0.85,0],[0.5,1,0],[0.285,0.85,0],[0.015,0.43,0],[0,0.22,0]];verticalLabelPosition=bottom;sketch=0;html=1;verticalAlign=top;aspect=fixed;align=center;pointerEvents=1;shape=mxgraph.cisco19.surveillance_camera;fillColor=#005073;strokeColor=none;" parent="1" vertex="1">
          <mxGeometry x="83" y="110" width="34.56" height="27" as="geometry" />
        </mxCell>
        <mxCell id="qZR9Qv6uX3RPC9YeKpCW-12" value="" style="image;aspect=fixed;perimeter=ellipsePerimeter;html=1;align=center;shadow=0;dashed=0;fontColor=#4277BB;labelBackgroundColor=default;fontSize=12;spacingTop=3;image=img/lib/ibm/users/sensor.svg;" parent="1" vertex="1">
          <mxGeometry x="139" y="151" width="30" height="30" as="geometry" />
        </mxCell>
        <mxCell id="qZR9Qv6uX3RPC9YeKpCW-13" value="" style="image;aspect=fixed;perimeter=ellipsePerimeter;html=1;align=center;shadow=0;dashed=0;fontColor=#4277BB;labelBackgroundColor=default;fontSize=12;spacingTop=3;image=img/lib/ibm/users/sensor.svg;" parent="1" vertex="1">
          <mxGeometry x="26" y="136" width="30" height="30" as="geometry" />
        </mxCell>
        <mxCell id="qZR9Qv6uX3RPC9YeKpCW-15" value="&lt;font style=&quot;font-size: 10px;&quot;&gt;Camara&lt;/font&gt;" style="text;html=1;align=center;verticalAlign=middle;whiteSpace=wrap;rounded=0;" parent="1" vertex="1">
          <mxGeometry x="48" y="84" width="60" height="30" as="geometry" />
        </mxCell>
        <mxCell id="qZR9Qv6uX3RPC9YeKpCW-18" value="&lt;font style=&quot;font-size: 10px;&quot;&gt;Camara&lt;/font&gt;" style="text;html=1;align=center;verticalAlign=middle;whiteSpace=wrap;rounded=0;" parent="1" vertex="1">
          <mxGeometry y="212" width="60" height="30" as="geometry" />
        </mxCell>
        <mxCell id="qZR9Qv6uX3RPC9YeKpCW-19" value="&lt;font style=&quot;font-size: 10px;&quot;&gt;Sensor&lt;/font&gt;" style="text;html=1;align=center;verticalAlign=middle;whiteSpace=wrap;rounded=0;" parent="1" vertex="1">
          <mxGeometry x="150" y="131" width="60" height="30" as="geometry" />
        </mxCell>
        <mxCell id="qZR9Qv6uX3RPC9YeKpCW-20" value="&lt;font style=&quot;font-size: 10px;&quot;&gt;Sensor&lt;/font&gt;" style="text;html=1;align=center;verticalAlign=middle;whiteSpace=wrap;rounded=0;" parent="1" vertex="1">
          <mxGeometry x="-9" y="114" width="60" height="30" as="geometry" />
        </mxCell>
        <mxCell id="qZR9Qv6uX3RPC9YeKpCW-35" value="" style="group" parent="1" vertex="1" connectable="0">
          <mxGeometry x="244.99999999999997" y="212.5" width="44.510000000000005" height="46.5" as="geometry" />
        </mxCell>
        <mxCell id="qZR9Qv6uX3RPC9YeKpCW-30" value="" style="verticalLabelPosition=bottom;html=1;verticalAlign=top;strokeWidth=1;align=center;outlineConnect=0;dashed=0;outlineConnect=0;shape=mxgraph.aws3d.rdsMaster;fillColor=#ECECEC;strokeColor=#5E5E5E;aspect=fixed;" parent="qZR9Qv6uX3RPC9YeKpCW-35" vertex="1">
          <mxGeometry width="24.51" height="26.5" as="geometry" />
        </mxCell>
        <mxCell id="qZR9Qv6uX3RPC9YeKpCW-31" value="" style="verticalLabelPosition=bottom;html=1;verticalAlign=top;strokeWidth=1;align=center;outlineConnect=0;dashed=0;outlineConnect=0;shape=mxgraph.aws3d.rdsMaster;fillColor=#ECECEC;strokeColor=#5E5E5E;aspect=fixed;" parent="qZR9Qv6uX3RPC9YeKpCW-35" vertex="1">
          <mxGeometry x="10" y="10" width="24.51" height="26.5" as="geometry" />
        </mxCell>
        <mxCell id="qZR9Qv6uX3RPC9YeKpCW-32" value="" style="verticalLabelPosition=bottom;html=1;verticalAlign=top;strokeWidth=1;align=center;outlineConnect=0;dashed=0;outlineConnect=0;shape=mxgraph.aws3d.rdsMaster;fillColor=#ECECEC;strokeColor=#5E5E5E;aspect=fixed;" parent="qZR9Qv6uX3RPC9YeKpCW-35" vertex="1">
          <mxGeometry x="20" y="20" width="24.51" height="26.5" as="geometry" />
        </mxCell>
        <mxCell id="Sl2bv3AIZOpNkn_9FIrU-68" value="Hadoop/Cluster" style="shape=cube;whiteSpace=wrap;html=1;boundedLbl=1;backgroundOutline=1;darkOpacity=0.05;darkOpacity2=0.1;" parent="1" vertex="1">
          <mxGeometry x="506" y="501.24" width="131" height="68.76" as="geometry" />
        </mxCell>
        <mxCell id="Vl_7YJs-ZOXVQnEXLEF5-61" value="" style="group" parent="1" vertex="1" connectable="0">
          <mxGeometry x="547" y="473" width="40" height="60" as="geometry" />
        </mxCell>
        <mxCell id="Vl_7YJs-ZOXVQnEXLEF5-59" value="" style="rounded=0;whiteSpace=wrap;html=1;" parent="Vl_7YJs-ZOXVQnEXLEF5-61" vertex="1">
          <mxGeometry width="34.52054794520548" height="53.684210526315795" as="geometry" />
        </mxCell>
        <mxCell id="Vl_7YJs-ZOXVQnEXLEF5-60" value="&lt;font style=&quot;font-size: 9px;&quot;&gt;Job&lt;br&gt;Python&lt;/font&gt;" style="rounded=0;whiteSpace=wrap;html=1;" parent="Vl_7YJs-ZOXVQnEXLEF5-61" vertex="1">
          <mxGeometry x="5.479452054794521" y="6.3157894736842115" width="34.52054794520548" height="53.684210526315795" as="geometry" />
        </mxCell>
        <mxCell id="Vl_7YJs-ZOXVQnEXLEF5-42" value="&lt;font style=&quot;font-size: 9px;&quot;&gt;Imagenes&lt;/font&gt;" style="text;html=1;strokeColor=none;fillColor=none;align=center;verticalAlign=middle;whiteSpace=wrap;rounded=0;" parent="1" vertex="1">
          <mxGeometry x="220" y="70" width="60" height="30" as="geometry" />
        </mxCell>
        <mxCell id="qZR9Qv6uX3RPC9YeKpCW-25" value="" style="group" parent="1" vertex="1" connectable="0">
          <mxGeometry x="220" y="94" width="69" height="39" as="geometry" />
        </mxCell>
        <mxCell id="qZR9Qv6uX3RPC9YeKpCW-21" value="Photo" style="html=1;whiteSpace=wrap;strokeColor=none;fillColor=#0079D6;labelPosition=center;verticalLabelPosition=middle;verticalAlign=top;align=center;fontSize=12;outlineConnect=0;spacingTop=-6;fontColor=#FFFFFF;sketch=0;shape=mxgraph.sitemap.photo;" parent="qZR9Qv6uX3RPC9YeKpCW-25" vertex="1">
          <mxGeometry width="51.53164556962025" height="23.081632653061224" as="geometry" />
        </mxCell>
        <mxCell id="qZR9Qv6uX3RPC9YeKpCW-22" value="Photo" style="html=1;whiteSpace=wrap;strokeColor=none;fillColor=#0079D6;labelPosition=center;verticalLabelPosition=middle;verticalAlign=top;align=center;fontSize=12;outlineConnect=0;spacingTop=-6;fontColor=#FFFFFF;sketch=0;shape=mxgraph.sitemap.photo;" parent="qZR9Qv6uX3RPC9YeKpCW-25" vertex="1">
          <mxGeometry x="8.734177215189874" y="7.959183673469388" width="51.53164556962025" height="23.081632653061224" as="geometry" />
        </mxCell>
        <mxCell id="qZR9Qv6uX3RPC9YeKpCW-23" value="Photo" style="html=1;whiteSpace=wrap;strokeColor=none;fillColor=#0079D6;labelPosition=center;verticalLabelPosition=middle;verticalAlign=top;align=center;fontSize=12;outlineConnect=0;spacingTop=-6;fontColor=#FFFFFF;sketch=0;shape=mxgraph.sitemap.photo;" parent="qZR9Qv6uX3RPC9YeKpCW-25" vertex="1">
          <mxGeometry x="17.468354430379748" y="15.918367346938776" width="51.53164556962025" height="23.081632653061224" as="geometry" />
        </mxCell>
        <mxCell id="s4cBqy5uWarLuJxs_DqD-4" style="edgeStyle=orthogonalEdgeStyle;rounded=0;orthogonalLoop=1;jettySize=auto;html=1;exitX=0.5;exitY=0;exitDx=0;exitDy=0;exitPerimeter=0;entryX=0;entryY=0.5;entryDx=0;entryDy=0;entryPerimeter=0;" parent="1" source="qZR9Qv6uX3RPC9YeKpCW-9" target="qZR9Qv6uX3RPC9YeKpCW-21" edge="1">
          <mxGeometry relative="1" as="geometry" />
        </mxCell>
        <mxCell id="s4cBqy5uWarLuJxs_DqD-5" style="edgeStyle=orthogonalEdgeStyle;rounded=0;orthogonalLoop=1;jettySize=auto;html=1;exitX=1;exitY=0.5;exitDx=0;exitDy=0;exitPerimeter=0;" parent="1" source="qZR9Qv6uX3RPC9YeKpCW-23" target="Sl2bv3AIZOpNkn_9FIrU-1" edge="1">
          <mxGeometry relative="1" as="geometry">
            <Array as="points">
              <mxPoint x="300" y="122" />
              <mxPoint x="300" y="153" />
            </Array>
          </mxGeometry>
        </mxCell>
        <mxCell id="s4cBqy5uWarLuJxs_DqD-90" value="&lt;font style=&quot;font-size: 10px;&quot;&gt;Cargar&lt;br&gt;Dataset&lt;/font&gt;" style="edgeLabel;html=1;align=center;verticalAlign=middle;resizable=0;points=[];" parent="s4cBqy5uWarLuJxs_DqD-5" vertex="1" connectable="0">
          <mxGeometry x="0.2381" y="2" relative="1" as="geometry">
            <mxPoint x="-4" as="offset" />
          </mxGeometry>
        </mxCell>
        <mxCell id="s4cBqy5uWarLuJxs_DqD-13" style="edgeStyle=orthogonalEdgeStyle;rounded=0;orthogonalLoop=1;jettySize=auto;html=1;exitX=0.75;exitY=0;exitDx=0;exitDy=0;entryX=0.426;entryY=0.945;entryDx=0;entryDy=0;entryPerimeter=0;endArrow=classic;endFill=1;startArrow=none;startFill=0;" parent="1" source="Vl_7YJs-ZOXVQnEXLEF5-59" target="Sl2bv3AIZOpNkn_9FIrU-65" edge="1">
          <mxGeometry relative="1" as="geometry" />
        </mxCell>
        <mxCell id="s4cBqy5uWarLuJxs_DqD-40" style="edgeStyle=orthogonalEdgeStyle;rounded=0;orthogonalLoop=1;jettySize=auto;html=1;exitX=1;exitY=0.25;exitDx=0;exitDy=0;entryX=0;entryY=0.75;entryDx=0;entryDy=0;" parent="1" source="Vl_7YJs-ZOXVQnEXLEF5-60" target="s4cBqy5uWarLuJxs_DqD-9" edge="1">
          <mxGeometry relative="1" as="geometry">
            <Array as="points">
              <mxPoint x="618" y="493" />
              <mxPoint x="618" y="480" />
              <mxPoint x="728" y="480" />
              <mxPoint x="728" y="370" />
              <mxPoint x="855" y="370" />
              <mxPoint x="855" y="220" />
            </Array>
          </mxGeometry>
        </mxCell>
        <mxCell id="s4cBqy5uWarLuJxs_DqD-41" value="&lt;font style=&quot;font-size: 10px;&quot;&gt;Meter datos&lt;br style=&quot;border-color: var(--border-color);&quot;&gt;en DB&lt;/font&gt;" style="edgeLabel;html=1;align=center;verticalAlign=middle;resizable=0;points=[];" parent="s4cBqy5uWarLuJxs_DqD-40" vertex="1" connectable="0">
          <mxGeometry x="0.1771" y="1" relative="1" as="geometry">
            <mxPoint x="-134" y="106" as="offset" />
          </mxGeometry>
        </mxCell>
        <mxCell id="MrkzlXc2_4qQzo67yfB1-4" value="(2)" style="edgeLabel;html=1;align=center;verticalAlign=middle;resizable=0;points=[];" vertex="1" connectable="0" parent="s4cBqy5uWarLuJxs_DqD-40">
          <mxGeometry x="-0.9288" y="3" relative="1" as="geometry">
            <mxPoint as="offset" />
          </mxGeometry>
        </mxCell>
        <mxCell id="s4cBqy5uWarLuJxs_DqD-53" value="Dataproc" style="sketch=0;html=1;verticalAlign=top;labelPosition=center;verticalLabelPosition=bottom;align=center;spacingTop=-6;fontSize=11;fontStyle=1;fontColor=#999999;shape=image;aspect=fixed;imageAspect=0;image=data:image/svg+xml,PHN2ZyB4bWxucz0iaHR0cDovL3d3dy53My5vcmcvMjAwMC9zdmciIHhtbG5zOnY9Imh0dHBzOi8vdmVjdGEuaW8vbmFubyIgd2lkdGg9IjE5LjM2MzAxMjMxMzg0Mjc3MyIgaGVpZ2h0PSIxNy45NzU1MjY4MDk2OTIzODMiIHZpZXdCb3g9IjAuMDAwNTYwMDI1NjI2MzI3ODQyNSAwLjYxOTYyOTc0MDcxNTAyNjkgMTkuMzYzMDEyMzEzODQyNzczIDE3Ljk3NTUyNjgwOTY5MjM4MyI+JiN4YTsJPHN0eWxlIHR5cGU9InRleHQvY3NzIj4mI3hhOwkuc3Qwe2ZpbGwtcnVsZTpldmVub2RkO30mI3hhOwkuc3Qxe2ZpbGw6I2FlY2JmYTt9JiN4YTsJLnN0MntmaWxsOiM0Mjg1ZjQ7fSYjeGE7CS5zdDN7ZmlsbDojNjY5ZGY2O30mI3hhOwk8L3N0eWxlPiYjeGE7CTxnIGNsYXNzPSJzdDAgc3QxIj4mI3hhOwkJPHBhdGggZD0iTTQuNjkgMTYuNGwxMC4xOS01Ljg5Ljk3IDEuNjktMTAuMTggNS44OHoiLz4mI3hhOwkJPHBhdGggZD0iTTcuNSA0LjR2MTAuMzVsLTEuODcgMS40MVY0LjR6Ii8+JiN4YTsJCTxwYXRoIGQ9Ik0xNy40OSAxMS4ybC0uOTcgMS42OC04Ljk2LTUuMTktLjI2LTIuMzZ6Ii8+JiN4YTsJPC9nPiYjeGE7CTxwYXRoIGNsYXNzPSJzdDAgc3QyIiBkPSJNMTIuMzkgOC4yNkw3LjMgNS4zM2wuMjYgMi4zNiAxLjUxLjg2YTQgNCAwIDAgMCAzLjMyLS4yOXoiLz4mI3hhOwk8cGF0aCBjbGFzcz0ic3QwIHN0MSIgZD0iTTYuMTMgNi4yOWgwYTMuNzggMy43OCAwIDAgMSA1LjE2NS01LjE2M0EzLjc4IDMuNzggMCAwIDEgOS40IDguMThhMy44IDMuOCAwIDAgMS0zLjI3LTEuODl6TTExIDMuNDlhMS44NCAxLjg0IDAgMCAwLTEuNTktLjkyQTEuODMgMS44MyAwIDAgMCA3LjU3IDQuNGExLjg0IDEuODQgMCAwIDAgMi43OTQgMS43MDZBMS44NCAxLjg0IDAgMCAwIDExLjI0IDQuNGExLjggMS44IDAgMCAwLS4yNC0uOTF6Ii8+JiN4YTsJPHBhdGggY2xhc3M9InN0MCBzdDIiIGQ9Ik01LjYzIDEwLjk0djUuMjJsMS44Ny0xLjQxdi0xLjYzYTMuMjkgMy4yOSAwIDAgMC0xLjg3LTIuMTh6bTUuNyAzLjg3bDQuNTItMi42MS0yLjIxLTEtMS4yNS44YTQuMjMgNC4yMyAwIDAgMC0xLjA2IDIuODZ6Ii8+JiN4YTsJPHBhdGggY2xhc3M9InN0MCBzdDEiIGQ9Ik0uNTEgMTYuN2gwYTMuNzcgMy43NyAwIDAgMSAxLjM4LTUuMTYgMy43MiAzLjcyIDAgMCAxIDIuODYtLjM4QTMuNzggMy43OCAwIDEgMSAuNTEgMTYuN3ptNC44NS0yLjgxQTEuNzkgMS43OSAwIDAgMCA0LjI1IDEzYTEuODMgMS44MyAwIDAgMC0yLjA2IDIuNjloMGMuMzI5LjU2Ni45MzQuOTE0IDEuNTg5LjkxM2ExLjgzIDEuODMgMCAwIDAgMS41ODUtLjkyYy4zMjYtLjU2OC4zMjQtMS4yNjctLjAwNC0xLjgzM3ptNi45NyAyLjQ3aDBhMy43OSAzLjc5IDAgMCAxIDAtMy43NyAzLjc5IDMuNzkgMCAwIDEgNS4xNi0xLjM5IDMuNzggMy43OCAwIDAgMS0xLjg5IDcuMDQ0IDMuNzggMy43OCAwIDAgMS0zLjI3LTEuODg0em00Ljg2LTIuODFhMiAyIDAgMCAwLS42Ny0uNjcgMS44NSAxLjg1IDAgMCAwLTIuNTEuNjggMS44NiAxLjg2IDAgMCAwIDAgMS44MyAxLjgzIDEuODMgMCAwIDAgMi4wNy44NSAxLjgyIDEuODIgMCAwIDAgMS4xMS0uODUgMS44OCAxLjg4IDAgMCAwIDAtMS44NHoiLz4mI3hhOwk8cGF0aCBjbGFzcz0ic3QwIHN0MyIgZD0iTTcuNDkgMTQuMTVsLTIuOCAyLjI1IDIuODYtMS42NWE0LjA3IDQuMDcgMCAwIDAtLjA2LS42ek04LjE1IDhsLS41OS0zLjZ2My4yOWEzLjQ3IDMuNDcgMCAwIDAgLjU5LjI3em01LjE1IDMuNDdsMy4yMiAxLjQxLTIuODYtMS42NGExLjY5IDEuNjkgMCAwIDAtLjM2LjIzeiIvPiYjeGE7PC9zdmc+;" parent="1" vertex="1">
          <mxGeometry x="647" y="389" width="30" height="28.57" as="geometry" />
        </mxCell>
        <mxCell id="s4cBqy5uWarLuJxs_DqD-88" style="edgeStyle=orthogonalEdgeStyle;rounded=0;orthogonalLoop=1;jettySize=auto;html=1;entryX=0;entryY=0.75;entryDx=0;entryDy=0;startArrow=classic;startFill=1;endArrow=none;endFill=0;exitX=1;exitY=0.75;exitDx=0;exitDy=0;" parent="1" source="s4cBqy5uWarLuJxs_DqD-67" target="Sl2bv3AIZOpNkn_9FIrU-8" edge="1">
          <mxGeometry relative="1" as="geometry">
            <mxPoint x="718" y="320" as="sourcePoint" />
            <Array as="points">
              <mxPoint x="768" y="342" />
              <mxPoint x="768" y="532" />
            </Array>
          </mxGeometry>
        </mxCell>
        <mxCell id="s4cBqy5uWarLuJxs_DqD-89" value="&lt;font style=&quot;font-size: 10px;&quot;&gt;Generar &lt;br&gt;analitica,&lt;br&gt;predicciones&lt;/font&gt;" style="edgeLabel;html=1;align=center;verticalAlign=middle;resizable=0;points=[];" parent="s4cBqy5uWarLuJxs_DqD-88" vertex="1" connectable="0">
          <mxGeometry x="0.1184" y="-4" relative="1" as="geometry">
            <mxPoint x="5" y="62" as="offset" />
          </mxGeometry>
        </mxCell>
        <mxCell id="s4cBqy5uWarLuJxs_DqD-104" value="(4)" style="edgeLabel;html=1;align=center;verticalAlign=middle;resizable=0;points=[];" parent="s4cBqy5uWarLuJxs_DqD-88" vertex="1" connectable="0">
          <mxGeometry x="0.2469" y="2" relative="1" as="geometry">
            <mxPoint x="22" y="78" as="offset" />
          </mxGeometry>
        </mxCell>
        <mxCell id="s4cBqy5uWarLuJxs_DqD-67" value="&lt;span style=&quot;font-size: 10px;&quot;&gt;analitica&lt;br&gt;predicciones&lt;br&gt;.csv&lt;br&gt;&lt;/span&gt;" style="shape=document;whiteSpace=wrap;html=1;boundedLbl=1;" parent="1" vertex="1">
          <mxGeometry x="603" y="296" width="61" height="62" as="geometry" />
        </mxCell>
        <mxCell id="s4cBqy5uWarLuJxs_DqD-76" style="edgeStyle=orthogonalEdgeStyle;rounded=0;orthogonalLoop=1;jettySize=auto;html=1;exitX=1;exitY=0.25;exitDx=0;exitDy=0;entryX=0.125;entryY=0.325;entryDx=0;entryDy=0;entryPerimeter=0;startArrow=classic;startFill=1;endArrow=none;endFill=0;" parent="1" source="s4cBqy5uWarLuJxs_DqD-67" target="Sl2bv3AIZOpNkn_9FIrU-52" edge="1">
          <mxGeometry relative="1" as="geometry" />
        </mxCell>
        <mxCell id="s4cBqy5uWarLuJxs_DqD-77" value="&lt;font style=&quot;font-size: 10px;&quot;&gt;Importar datos&lt;br&gt;crear index&lt;br&gt;&lt;/font&gt;" style="edgeLabel;html=1;align=center;verticalAlign=middle;resizable=0;points=[];" parent="s4cBqy5uWarLuJxs_DqD-76" vertex="1" connectable="0">
          <mxGeometry x="0.5413" y="1" relative="1" as="geometry">
            <mxPoint x="30" y="1" as="offset" />
          </mxGeometry>
        </mxCell>
        <mxCell id="MrkzlXc2_4qQzo67yfB1-5" value="(5)" style="edgeLabel;html=1;align=center;verticalAlign=middle;resizable=0;points=[];" vertex="1" connectable="0" parent="s4cBqy5uWarLuJxs_DqD-76">
          <mxGeometry x="0.374" y="3" relative="1" as="geometry">
            <mxPoint x="3" as="offset" />
          </mxGeometry>
        </mxCell>
        <mxCell id="s4cBqy5uWarLuJxs_DqD-108" value="" style="shape=mxgraph.signs.animals.fish_hatchery;html=1;pointerEvents=1;fillColor=#000000;strokeColor=none;verticalLabelPosition=bottom;verticalAlign=top;align=center;" parent="1" vertex="1">
          <mxGeometry x="77.28" y="194" width="48" height="60" as="geometry" />
        </mxCell>
      </root>
    </mxGraphModel>
  </diagram>
</mxfile>
